%TF.GenerationSoftware,KiCad,Pcbnew,9.0.6-1.fc42*%
%TF.CreationDate,2026-01-11T17:24:36+03:00*%
%TF.ProjectId,eink-environment-clock,65696e6b-2d65-46e7-9669-726f6e6d656e,rev?*%
%TF.SameCoordinates,Original*%
%TF.FileFunction,Legend,Top*%
%TF.FilePolarity,Positive*%
%FSLAX46Y46*%
G04 Gerber Fmt 4.6, Leading zero omitted, Abs format (unit mm)*
G04 Created by KiCad (PCBNEW 9.0.6-1.fc42) date 2026-01-11 17:24:36*
%MOMM*%
%LPD*%
G01*
G04 APERTURE LIST*
%ADD10C,0.150000*%
%ADD11C,0.120000*%
%ADD12C,0.127000*%
G04 APERTURE END LIST*
D10*
X90053333Y-49794819D02*
X89720000Y-49318628D01*
X89481905Y-49794819D02*
X89481905Y-48794819D01*
X89481905Y-48794819D02*
X89862857Y-48794819D01*
X89862857Y-48794819D02*
X89958095Y-48842438D01*
X89958095Y-48842438D02*
X90005714Y-48890057D01*
X90005714Y-48890057D02*
X90053333Y-48985295D01*
X90053333Y-48985295D02*
X90053333Y-49128152D01*
X90053333Y-49128152D02*
X90005714Y-49223390D01*
X90005714Y-49223390D02*
X89958095Y-49271009D01*
X89958095Y-49271009D02*
X89862857Y-49318628D01*
X89862857Y-49318628D02*
X89481905Y-49318628D01*
X90434286Y-48890057D02*
X90481905Y-48842438D01*
X90481905Y-48842438D02*
X90577143Y-48794819D01*
X90577143Y-48794819D02*
X90815238Y-48794819D01*
X90815238Y-48794819D02*
X90910476Y-48842438D01*
X90910476Y-48842438D02*
X90958095Y-48890057D01*
X90958095Y-48890057D02*
X91005714Y-48985295D01*
X91005714Y-48985295D02*
X91005714Y-49080533D01*
X91005714Y-49080533D02*
X90958095Y-49223390D01*
X90958095Y-49223390D02*
X90386667Y-49794819D01*
X90386667Y-49794819D02*
X91005714Y-49794819D01*
X108223333Y-60394819D02*
X107890000Y-59918628D01*
X107651905Y-60394819D02*
X107651905Y-59394819D01*
X107651905Y-59394819D02*
X108032857Y-59394819D01*
X108032857Y-59394819D02*
X108128095Y-59442438D01*
X108128095Y-59442438D02*
X108175714Y-59490057D01*
X108175714Y-59490057D02*
X108223333Y-59585295D01*
X108223333Y-59585295D02*
X108223333Y-59728152D01*
X108223333Y-59728152D02*
X108175714Y-59823390D01*
X108175714Y-59823390D02*
X108128095Y-59871009D01*
X108128095Y-59871009D02*
X108032857Y-59918628D01*
X108032857Y-59918628D02*
X107651905Y-59918628D01*
X108556667Y-59394819D02*
X109175714Y-59394819D01*
X109175714Y-59394819D02*
X108842381Y-59775771D01*
X108842381Y-59775771D02*
X108985238Y-59775771D01*
X108985238Y-59775771D02*
X109080476Y-59823390D01*
X109080476Y-59823390D02*
X109128095Y-59871009D01*
X109128095Y-59871009D02*
X109175714Y-59966247D01*
X109175714Y-59966247D02*
X109175714Y-60204342D01*
X109175714Y-60204342D02*
X109128095Y-60299580D01*
X109128095Y-60299580D02*
X109080476Y-60347200D01*
X109080476Y-60347200D02*
X108985238Y-60394819D01*
X108985238Y-60394819D02*
X108699524Y-60394819D01*
X108699524Y-60394819D02*
X108604286Y-60347200D01*
X108604286Y-60347200D02*
X108556667Y-60299580D01*
X114618333Y-36394819D02*
X114285000Y-35918628D01*
X114046905Y-36394819D02*
X114046905Y-35394819D01*
X114046905Y-35394819D02*
X114427857Y-35394819D01*
X114427857Y-35394819D02*
X114523095Y-35442438D01*
X114523095Y-35442438D02*
X114570714Y-35490057D01*
X114570714Y-35490057D02*
X114618333Y-35585295D01*
X114618333Y-35585295D02*
X114618333Y-35728152D01*
X114618333Y-35728152D02*
X114570714Y-35823390D01*
X114570714Y-35823390D02*
X114523095Y-35871009D01*
X114523095Y-35871009D02*
X114427857Y-35918628D01*
X114427857Y-35918628D02*
X114046905Y-35918628D01*
X115475476Y-35728152D02*
X115475476Y-36394819D01*
X115237381Y-35347200D02*
X114999286Y-36061485D01*
X114999286Y-36061485D02*
X115618333Y-36061485D01*
X115953333Y-67199580D02*
X115905714Y-67247200D01*
X115905714Y-67247200D02*
X115762857Y-67294819D01*
X115762857Y-67294819D02*
X115667619Y-67294819D01*
X115667619Y-67294819D02*
X115524762Y-67247200D01*
X115524762Y-67247200D02*
X115429524Y-67151961D01*
X115429524Y-67151961D02*
X115381905Y-67056723D01*
X115381905Y-67056723D02*
X115334286Y-66866247D01*
X115334286Y-66866247D02*
X115334286Y-66723390D01*
X115334286Y-66723390D02*
X115381905Y-66532914D01*
X115381905Y-66532914D02*
X115429524Y-66437676D01*
X115429524Y-66437676D02*
X115524762Y-66342438D01*
X115524762Y-66342438D02*
X115667619Y-66294819D01*
X115667619Y-66294819D02*
X115762857Y-66294819D01*
X115762857Y-66294819D02*
X115905714Y-66342438D01*
X115905714Y-66342438D02*
X115953333Y-66390057D01*
X116334286Y-66390057D02*
X116381905Y-66342438D01*
X116381905Y-66342438D02*
X116477143Y-66294819D01*
X116477143Y-66294819D02*
X116715238Y-66294819D01*
X116715238Y-66294819D02*
X116810476Y-66342438D01*
X116810476Y-66342438D02*
X116858095Y-66390057D01*
X116858095Y-66390057D02*
X116905714Y-66485295D01*
X116905714Y-66485295D02*
X116905714Y-66580533D01*
X116905714Y-66580533D02*
X116858095Y-66723390D01*
X116858095Y-66723390D02*
X116286667Y-67294819D01*
X116286667Y-67294819D02*
X116905714Y-67294819D01*
X42019819Y-42786904D02*
X42829342Y-42786904D01*
X42829342Y-42786904D02*
X42924580Y-42739285D01*
X42924580Y-42739285D02*
X42972200Y-42691666D01*
X42972200Y-42691666D02*
X43019819Y-42596428D01*
X43019819Y-42596428D02*
X43019819Y-42405952D01*
X43019819Y-42405952D02*
X42972200Y-42310714D01*
X42972200Y-42310714D02*
X42924580Y-42263095D01*
X42924580Y-42263095D02*
X42829342Y-42215476D01*
X42829342Y-42215476D02*
X42019819Y-42215476D01*
X42353152Y-41310714D02*
X43019819Y-41310714D01*
X41972200Y-41548809D02*
X42686485Y-41786904D01*
X42686485Y-41786904D02*
X42686485Y-41167857D01*
X115953333Y-59649580D02*
X115905714Y-59697200D01*
X115905714Y-59697200D02*
X115762857Y-59744819D01*
X115762857Y-59744819D02*
X115667619Y-59744819D01*
X115667619Y-59744819D02*
X115524762Y-59697200D01*
X115524762Y-59697200D02*
X115429524Y-59601961D01*
X115429524Y-59601961D02*
X115381905Y-59506723D01*
X115381905Y-59506723D02*
X115334286Y-59316247D01*
X115334286Y-59316247D02*
X115334286Y-59173390D01*
X115334286Y-59173390D02*
X115381905Y-58982914D01*
X115381905Y-58982914D02*
X115429524Y-58887676D01*
X115429524Y-58887676D02*
X115524762Y-58792438D01*
X115524762Y-58792438D02*
X115667619Y-58744819D01*
X115667619Y-58744819D02*
X115762857Y-58744819D01*
X115762857Y-58744819D02*
X115905714Y-58792438D01*
X115905714Y-58792438D02*
X115953333Y-58840057D01*
X116905714Y-59744819D02*
X116334286Y-59744819D01*
X116620000Y-59744819D02*
X116620000Y-58744819D01*
X116620000Y-58744819D02*
X116524762Y-58887676D01*
X116524762Y-58887676D02*
X116429524Y-58982914D01*
X116429524Y-58982914D02*
X116334286Y-59030533D01*
X98053333Y-60394819D02*
X97720000Y-59918628D01*
X97481905Y-60394819D02*
X97481905Y-59394819D01*
X97481905Y-59394819D02*
X97862857Y-59394819D01*
X97862857Y-59394819D02*
X97958095Y-59442438D01*
X97958095Y-59442438D02*
X98005714Y-59490057D01*
X98005714Y-59490057D02*
X98053333Y-59585295D01*
X98053333Y-59585295D02*
X98053333Y-59728152D01*
X98053333Y-59728152D02*
X98005714Y-59823390D01*
X98005714Y-59823390D02*
X97958095Y-59871009D01*
X97958095Y-59871009D02*
X97862857Y-59918628D01*
X97862857Y-59918628D02*
X97481905Y-59918628D01*
X98958095Y-59394819D02*
X98481905Y-59394819D01*
X98481905Y-59394819D02*
X98434286Y-59871009D01*
X98434286Y-59871009D02*
X98481905Y-59823390D01*
X98481905Y-59823390D02*
X98577143Y-59775771D01*
X98577143Y-59775771D02*
X98815238Y-59775771D01*
X98815238Y-59775771D02*
X98910476Y-59823390D01*
X98910476Y-59823390D02*
X98958095Y-59871009D01*
X98958095Y-59871009D02*
X99005714Y-59966247D01*
X99005714Y-59966247D02*
X99005714Y-60204342D01*
X99005714Y-60204342D02*
X98958095Y-60299580D01*
X98958095Y-60299580D02*
X98910476Y-60347200D01*
X98910476Y-60347200D02*
X98815238Y-60394819D01*
X98815238Y-60394819D02*
X98577143Y-60394819D01*
X98577143Y-60394819D02*
X98481905Y-60347200D01*
X98481905Y-60347200D02*
X98434286Y-60299580D01*
X89076666Y-59364819D02*
X89076666Y-60079104D01*
X89076666Y-60079104D02*
X89029047Y-60221961D01*
X89029047Y-60221961D02*
X88933809Y-60317200D01*
X88933809Y-60317200D02*
X88790952Y-60364819D01*
X88790952Y-60364819D02*
X88695714Y-60364819D01*
X90076666Y-60364819D02*
X89505238Y-60364819D01*
X89790952Y-60364819D02*
X89790952Y-59364819D01*
X89790952Y-59364819D02*
X89695714Y-59507676D01*
X89695714Y-59507676D02*
X89600476Y-59602914D01*
X89600476Y-59602914D02*
X89505238Y-59650533D01*
X75383333Y-65169580D02*
X75335714Y-65217200D01*
X75335714Y-65217200D02*
X75192857Y-65264819D01*
X75192857Y-65264819D02*
X75097619Y-65264819D01*
X75097619Y-65264819D02*
X74954762Y-65217200D01*
X74954762Y-65217200D02*
X74859524Y-65121961D01*
X74859524Y-65121961D02*
X74811905Y-65026723D01*
X74811905Y-65026723D02*
X74764286Y-64836247D01*
X74764286Y-64836247D02*
X74764286Y-64693390D01*
X74764286Y-64693390D02*
X74811905Y-64502914D01*
X74811905Y-64502914D02*
X74859524Y-64407676D01*
X74859524Y-64407676D02*
X74954762Y-64312438D01*
X74954762Y-64312438D02*
X75097619Y-64264819D01*
X75097619Y-64264819D02*
X75192857Y-64264819D01*
X75192857Y-64264819D02*
X75335714Y-64312438D01*
X75335714Y-64312438D02*
X75383333Y-64360057D01*
X75716667Y-64264819D02*
X76335714Y-64264819D01*
X76335714Y-64264819D02*
X76002381Y-64645771D01*
X76002381Y-64645771D02*
X76145238Y-64645771D01*
X76145238Y-64645771D02*
X76240476Y-64693390D01*
X76240476Y-64693390D02*
X76288095Y-64741009D01*
X76288095Y-64741009D02*
X76335714Y-64836247D01*
X76335714Y-64836247D02*
X76335714Y-65074342D01*
X76335714Y-65074342D02*
X76288095Y-65169580D01*
X76288095Y-65169580D02*
X76240476Y-65217200D01*
X76240476Y-65217200D02*
X76145238Y-65264819D01*
X76145238Y-65264819D02*
X75859524Y-65264819D01*
X75859524Y-65264819D02*
X75764286Y-65217200D01*
X75764286Y-65217200D02*
X75716667Y-65169580D01*
X90053333Y-54294819D02*
X89720000Y-53818628D01*
X89481905Y-54294819D02*
X89481905Y-53294819D01*
X89481905Y-53294819D02*
X89862857Y-53294819D01*
X89862857Y-53294819D02*
X89958095Y-53342438D01*
X89958095Y-53342438D02*
X90005714Y-53390057D01*
X90005714Y-53390057D02*
X90053333Y-53485295D01*
X90053333Y-53485295D02*
X90053333Y-53628152D01*
X90053333Y-53628152D02*
X90005714Y-53723390D01*
X90005714Y-53723390D02*
X89958095Y-53771009D01*
X89958095Y-53771009D02*
X89862857Y-53818628D01*
X89862857Y-53818628D02*
X89481905Y-53818628D01*
X91005714Y-54294819D02*
X90434286Y-54294819D01*
X90720000Y-54294819D02*
X90720000Y-53294819D01*
X90720000Y-53294819D02*
X90624762Y-53437676D01*
X90624762Y-53437676D02*
X90529524Y-53532914D01*
X90529524Y-53532914D02*
X90434286Y-53580533D01*
X91393333Y-40229580D02*
X91345714Y-40277200D01*
X91345714Y-40277200D02*
X91202857Y-40324819D01*
X91202857Y-40324819D02*
X91107619Y-40324819D01*
X91107619Y-40324819D02*
X90964762Y-40277200D01*
X90964762Y-40277200D02*
X90869524Y-40181961D01*
X90869524Y-40181961D02*
X90821905Y-40086723D01*
X90821905Y-40086723D02*
X90774286Y-39896247D01*
X90774286Y-39896247D02*
X90774286Y-39753390D01*
X90774286Y-39753390D02*
X90821905Y-39562914D01*
X90821905Y-39562914D02*
X90869524Y-39467676D01*
X90869524Y-39467676D02*
X90964762Y-39372438D01*
X90964762Y-39372438D02*
X91107619Y-39324819D01*
X91107619Y-39324819D02*
X91202857Y-39324819D01*
X91202857Y-39324819D02*
X91345714Y-39372438D01*
X91345714Y-39372438D02*
X91393333Y-39420057D01*
X91964762Y-39753390D02*
X91869524Y-39705771D01*
X91869524Y-39705771D02*
X91821905Y-39658152D01*
X91821905Y-39658152D02*
X91774286Y-39562914D01*
X91774286Y-39562914D02*
X91774286Y-39515295D01*
X91774286Y-39515295D02*
X91821905Y-39420057D01*
X91821905Y-39420057D02*
X91869524Y-39372438D01*
X91869524Y-39372438D02*
X91964762Y-39324819D01*
X91964762Y-39324819D02*
X92155238Y-39324819D01*
X92155238Y-39324819D02*
X92250476Y-39372438D01*
X92250476Y-39372438D02*
X92298095Y-39420057D01*
X92298095Y-39420057D02*
X92345714Y-39515295D01*
X92345714Y-39515295D02*
X92345714Y-39562914D01*
X92345714Y-39562914D02*
X92298095Y-39658152D01*
X92298095Y-39658152D02*
X92250476Y-39705771D01*
X92250476Y-39705771D02*
X92155238Y-39753390D01*
X92155238Y-39753390D02*
X91964762Y-39753390D01*
X91964762Y-39753390D02*
X91869524Y-39801009D01*
X91869524Y-39801009D02*
X91821905Y-39848628D01*
X91821905Y-39848628D02*
X91774286Y-39943866D01*
X91774286Y-39943866D02*
X91774286Y-40134342D01*
X91774286Y-40134342D02*
X91821905Y-40229580D01*
X91821905Y-40229580D02*
X91869524Y-40277200D01*
X91869524Y-40277200D02*
X91964762Y-40324819D01*
X91964762Y-40324819D02*
X92155238Y-40324819D01*
X92155238Y-40324819D02*
X92250476Y-40277200D01*
X92250476Y-40277200D02*
X92298095Y-40229580D01*
X92298095Y-40229580D02*
X92345714Y-40134342D01*
X92345714Y-40134342D02*
X92345714Y-39943866D01*
X92345714Y-39943866D02*
X92298095Y-39848628D01*
X92298095Y-39848628D02*
X92250476Y-39801009D01*
X92250476Y-39801009D02*
X92155238Y-39753390D01*
X58519580Y-36726666D02*
X58567200Y-36774285D01*
X58567200Y-36774285D02*
X58614819Y-36917142D01*
X58614819Y-36917142D02*
X58614819Y-37012380D01*
X58614819Y-37012380D02*
X58567200Y-37155237D01*
X58567200Y-37155237D02*
X58471961Y-37250475D01*
X58471961Y-37250475D02*
X58376723Y-37298094D01*
X58376723Y-37298094D02*
X58186247Y-37345713D01*
X58186247Y-37345713D02*
X58043390Y-37345713D01*
X58043390Y-37345713D02*
X57852914Y-37298094D01*
X57852914Y-37298094D02*
X57757676Y-37250475D01*
X57757676Y-37250475D02*
X57662438Y-37155237D01*
X57662438Y-37155237D02*
X57614819Y-37012380D01*
X57614819Y-37012380D02*
X57614819Y-36917142D01*
X57614819Y-36917142D02*
X57662438Y-36774285D01*
X57662438Y-36774285D02*
X57710057Y-36726666D01*
X57614819Y-35821904D02*
X57614819Y-36298094D01*
X57614819Y-36298094D02*
X58091009Y-36345713D01*
X58091009Y-36345713D02*
X58043390Y-36298094D01*
X58043390Y-36298094D02*
X57995771Y-36202856D01*
X57995771Y-36202856D02*
X57995771Y-35964761D01*
X57995771Y-35964761D02*
X58043390Y-35869523D01*
X58043390Y-35869523D02*
X58091009Y-35821904D01*
X58091009Y-35821904D02*
X58186247Y-35774285D01*
X58186247Y-35774285D02*
X58424342Y-35774285D01*
X58424342Y-35774285D02*
X58519580Y-35821904D01*
X58519580Y-35821904D02*
X58567200Y-35869523D01*
X58567200Y-35869523D02*
X58614819Y-35964761D01*
X58614819Y-35964761D02*
X58614819Y-36202856D01*
X58614819Y-36202856D02*
X58567200Y-36298094D01*
X58567200Y-36298094D02*
X58519580Y-36345713D01*
X115984819Y-50401904D02*
X116794342Y-50401904D01*
X116794342Y-50401904D02*
X116889580Y-50354285D01*
X116889580Y-50354285D02*
X116937200Y-50306666D01*
X116937200Y-50306666D02*
X116984819Y-50211428D01*
X116984819Y-50211428D02*
X116984819Y-50020952D01*
X116984819Y-50020952D02*
X116937200Y-49925714D01*
X116937200Y-49925714D02*
X116889580Y-49878095D01*
X116889580Y-49878095D02*
X116794342Y-49830476D01*
X116794342Y-49830476D02*
X115984819Y-49830476D01*
X116984819Y-48830476D02*
X116984819Y-49401904D01*
X116984819Y-49116190D02*
X115984819Y-49116190D01*
X115984819Y-49116190D02*
X116127676Y-49211428D01*
X116127676Y-49211428D02*
X116222914Y-49306666D01*
X116222914Y-49306666D02*
X116270533Y-49401904D01*
X45643333Y-33699580D02*
X45595714Y-33747200D01*
X45595714Y-33747200D02*
X45452857Y-33794819D01*
X45452857Y-33794819D02*
X45357619Y-33794819D01*
X45357619Y-33794819D02*
X45214762Y-33747200D01*
X45214762Y-33747200D02*
X45119524Y-33651961D01*
X45119524Y-33651961D02*
X45071905Y-33556723D01*
X45071905Y-33556723D02*
X45024286Y-33366247D01*
X45024286Y-33366247D02*
X45024286Y-33223390D01*
X45024286Y-33223390D02*
X45071905Y-33032914D01*
X45071905Y-33032914D02*
X45119524Y-32937676D01*
X45119524Y-32937676D02*
X45214762Y-32842438D01*
X45214762Y-32842438D02*
X45357619Y-32794819D01*
X45357619Y-32794819D02*
X45452857Y-32794819D01*
X45452857Y-32794819D02*
X45595714Y-32842438D01*
X45595714Y-32842438D02*
X45643333Y-32890057D01*
X46500476Y-32794819D02*
X46310000Y-32794819D01*
X46310000Y-32794819D02*
X46214762Y-32842438D01*
X46214762Y-32842438D02*
X46167143Y-32890057D01*
X46167143Y-32890057D02*
X46071905Y-33032914D01*
X46071905Y-33032914D02*
X46024286Y-33223390D01*
X46024286Y-33223390D02*
X46024286Y-33604342D01*
X46024286Y-33604342D02*
X46071905Y-33699580D01*
X46071905Y-33699580D02*
X46119524Y-33747200D01*
X46119524Y-33747200D02*
X46214762Y-33794819D01*
X46214762Y-33794819D02*
X46405238Y-33794819D01*
X46405238Y-33794819D02*
X46500476Y-33747200D01*
X46500476Y-33747200D02*
X46548095Y-33699580D01*
X46548095Y-33699580D02*
X46595714Y-33604342D01*
X46595714Y-33604342D02*
X46595714Y-33366247D01*
X46595714Y-33366247D02*
X46548095Y-33271009D01*
X46548095Y-33271009D02*
X46500476Y-33223390D01*
X46500476Y-33223390D02*
X46405238Y-33175771D01*
X46405238Y-33175771D02*
X46214762Y-33175771D01*
X46214762Y-33175771D02*
X46119524Y-33223390D01*
X46119524Y-33223390D02*
X46071905Y-33271009D01*
X46071905Y-33271009D02*
X46024286Y-33366247D01*
X68643333Y-64919580D02*
X68595714Y-64967200D01*
X68595714Y-64967200D02*
X68452857Y-65014819D01*
X68452857Y-65014819D02*
X68357619Y-65014819D01*
X68357619Y-65014819D02*
X68214762Y-64967200D01*
X68214762Y-64967200D02*
X68119524Y-64871961D01*
X68119524Y-64871961D02*
X68071905Y-64776723D01*
X68071905Y-64776723D02*
X68024286Y-64586247D01*
X68024286Y-64586247D02*
X68024286Y-64443390D01*
X68024286Y-64443390D02*
X68071905Y-64252914D01*
X68071905Y-64252914D02*
X68119524Y-64157676D01*
X68119524Y-64157676D02*
X68214762Y-64062438D01*
X68214762Y-64062438D02*
X68357619Y-64014819D01*
X68357619Y-64014819D02*
X68452857Y-64014819D01*
X68452857Y-64014819D02*
X68595714Y-64062438D01*
X68595714Y-64062438D02*
X68643333Y-64110057D01*
X69500476Y-64348152D02*
X69500476Y-65014819D01*
X69262381Y-63967200D02*
X69024286Y-64681485D01*
X69024286Y-64681485D02*
X69643333Y-64681485D01*
X91913333Y-45799580D02*
X91865714Y-45847200D01*
X91865714Y-45847200D02*
X91722857Y-45894819D01*
X91722857Y-45894819D02*
X91627619Y-45894819D01*
X91627619Y-45894819D02*
X91484762Y-45847200D01*
X91484762Y-45847200D02*
X91389524Y-45751961D01*
X91389524Y-45751961D02*
X91341905Y-45656723D01*
X91341905Y-45656723D02*
X91294286Y-45466247D01*
X91294286Y-45466247D02*
X91294286Y-45323390D01*
X91294286Y-45323390D02*
X91341905Y-45132914D01*
X91341905Y-45132914D02*
X91389524Y-45037676D01*
X91389524Y-45037676D02*
X91484762Y-44942438D01*
X91484762Y-44942438D02*
X91627619Y-44894819D01*
X91627619Y-44894819D02*
X91722857Y-44894819D01*
X91722857Y-44894819D02*
X91865714Y-44942438D01*
X91865714Y-44942438D02*
X91913333Y-44990057D01*
X92246667Y-44894819D02*
X92913333Y-44894819D01*
X92913333Y-44894819D02*
X92484762Y-45894819D01*
X77566905Y-40224819D02*
X77566905Y-39224819D01*
X77566905Y-39224819D02*
X77805000Y-39224819D01*
X77805000Y-39224819D02*
X77947857Y-39272438D01*
X77947857Y-39272438D02*
X78043095Y-39367676D01*
X78043095Y-39367676D02*
X78090714Y-39462914D01*
X78090714Y-39462914D02*
X78138333Y-39653390D01*
X78138333Y-39653390D02*
X78138333Y-39796247D01*
X78138333Y-39796247D02*
X78090714Y-39986723D01*
X78090714Y-39986723D02*
X78043095Y-40081961D01*
X78043095Y-40081961D02*
X77947857Y-40177200D01*
X77947857Y-40177200D02*
X77805000Y-40224819D01*
X77805000Y-40224819D02*
X77566905Y-40224819D01*
X79090714Y-40224819D02*
X78519286Y-40224819D01*
X78805000Y-40224819D02*
X78805000Y-39224819D01*
X78805000Y-39224819D02*
X78709762Y-39367676D01*
X78709762Y-39367676D02*
X78614524Y-39462914D01*
X78614524Y-39462914D02*
X78519286Y-39510533D01*
X79777200Y-57206475D02*
X79824819Y-57063618D01*
X79824819Y-57063618D02*
X79824819Y-56825523D01*
X79824819Y-56825523D02*
X79777200Y-56730285D01*
X79777200Y-56730285D02*
X79729580Y-56682666D01*
X79729580Y-56682666D02*
X79634342Y-56635047D01*
X79634342Y-56635047D02*
X79539104Y-56635047D01*
X79539104Y-56635047D02*
X79443866Y-56682666D01*
X79443866Y-56682666D02*
X79396247Y-56730285D01*
X79396247Y-56730285D02*
X79348628Y-56825523D01*
X79348628Y-56825523D02*
X79301009Y-57015999D01*
X79301009Y-57015999D02*
X79253390Y-57111237D01*
X79253390Y-57111237D02*
X79205771Y-57158856D01*
X79205771Y-57158856D02*
X79110533Y-57206475D01*
X79110533Y-57206475D02*
X79015295Y-57206475D01*
X79015295Y-57206475D02*
X78920057Y-57158856D01*
X78920057Y-57158856D02*
X78872438Y-57111237D01*
X78872438Y-57111237D02*
X78824819Y-57015999D01*
X78824819Y-57015999D02*
X78824819Y-56777904D01*
X78824819Y-56777904D02*
X78872438Y-56635047D01*
X79729580Y-55635047D02*
X79777200Y-55682666D01*
X79777200Y-55682666D02*
X79824819Y-55825523D01*
X79824819Y-55825523D02*
X79824819Y-55920761D01*
X79824819Y-55920761D02*
X79777200Y-56063618D01*
X79777200Y-56063618D02*
X79681961Y-56158856D01*
X79681961Y-56158856D02*
X79586723Y-56206475D01*
X79586723Y-56206475D02*
X79396247Y-56254094D01*
X79396247Y-56254094D02*
X79253390Y-56254094D01*
X79253390Y-56254094D02*
X79062914Y-56206475D01*
X79062914Y-56206475D02*
X78967676Y-56158856D01*
X78967676Y-56158856D02*
X78872438Y-56063618D01*
X78872438Y-56063618D02*
X78824819Y-55920761D01*
X78824819Y-55920761D02*
X78824819Y-55825523D01*
X78824819Y-55825523D02*
X78872438Y-55682666D01*
X78872438Y-55682666D02*
X78920057Y-55635047D01*
X79824819Y-54730285D02*
X79824819Y-55206475D01*
X79824819Y-55206475D02*
X78824819Y-55206475D01*
X76332438Y-56777904D02*
X76284819Y-56873142D01*
X76284819Y-56873142D02*
X76284819Y-57015999D01*
X76284819Y-57015999D02*
X76332438Y-57158856D01*
X76332438Y-57158856D02*
X76427676Y-57254094D01*
X76427676Y-57254094D02*
X76522914Y-57301713D01*
X76522914Y-57301713D02*
X76713390Y-57349332D01*
X76713390Y-57349332D02*
X76856247Y-57349332D01*
X76856247Y-57349332D02*
X77046723Y-57301713D01*
X77046723Y-57301713D02*
X77141961Y-57254094D01*
X77141961Y-57254094D02*
X77237200Y-57158856D01*
X77237200Y-57158856D02*
X77284819Y-57015999D01*
X77284819Y-57015999D02*
X77284819Y-56920761D01*
X77284819Y-56920761D02*
X77237200Y-56777904D01*
X77237200Y-56777904D02*
X77189580Y-56730285D01*
X77189580Y-56730285D02*
X76856247Y-56730285D01*
X76856247Y-56730285D02*
X76856247Y-56920761D01*
X77284819Y-56301713D02*
X76284819Y-56301713D01*
X76284819Y-56301713D02*
X77284819Y-55730285D01*
X77284819Y-55730285D02*
X76284819Y-55730285D01*
X77284819Y-55254094D02*
X76284819Y-55254094D01*
X76284819Y-55254094D02*
X76284819Y-55015999D01*
X76284819Y-55015999D02*
X76332438Y-54873142D01*
X76332438Y-54873142D02*
X76427676Y-54777904D01*
X76427676Y-54777904D02*
X76522914Y-54730285D01*
X76522914Y-54730285D02*
X76713390Y-54682666D01*
X76713390Y-54682666D02*
X76856247Y-54682666D01*
X76856247Y-54682666D02*
X77046723Y-54730285D01*
X77046723Y-54730285D02*
X77141961Y-54777904D01*
X77141961Y-54777904D02*
X77237200Y-54873142D01*
X77237200Y-54873142D02*
X77284819Y-55015999D01*
X77284819Y-55015999D02*
X77284819Y-55254094D01*
X82317200Y-57230285D02*
X82364819Y-57087428D01*
X82364819Y-57087428D02*
X82364819Y-56849333D01*
X82364819Y-56849333D02*
X82317200Y-56754095D01*
X82317200Y-56754095D02*
X82269580Y-56706476D01*
X82269580Y-56706476D02*
X82174342Y-56658857D01*
X82174342Y-56658857D02*
X82079104Y-56658857D01*
X82079104Y-56658857D02*
X81983866Y-56706476D01*
X81983866Y-56706476D02*
X81936247Y-56754095D01*
X81936247Y-56754095D02*
X81888628Y-56849333D01*
X81888628Y-56849333D02*
X81841009Y-57039809D01*
X81841009Y-57039809D02*
X81793390Y-57135047D01*
X81793390Y-57135047D02*
X81745771Y-57182666D01*
X81745771Y-57182666D02*
X81650533Y-57230285D01*
X81650533Y-57230285D02*
X81555295Y-57230285D01*
X81555295Y-57230285D02*
X81460057Y-57182666D01*
X81460057Y-57182666D02*
X81412438Y-57135047D01*
X81412438Y-57135047D02*
X81364819Y-57039809D01*
X81364819Y-57039809D02*
X81364819Y-56801714D01*
X81364819Y-56801714D02*
X81412438Y-56658857D01*
X82364819Y-56230285D02*
X81364819Y-56230285D01*
X81364819Y-56230285D02*
X81364819Y-55992190D01*
X81364819Y-55992190D02*
X81412438Y-55849333D01*
X81412438Y-55849333D02*
X81507676Y-55754095D01*
X81507676Y-55754095D02*
X81602914Y-55706476D01*
X81602914Y-55706476D02*
X81793390Y-55658857D01*
X81793390Y-55658857D02*
X81936247Y-55658857D01*
X81936247Y-55658857D02*
X82126723Y-55706476D01*
X82126723Y-55706476D02*
X82221961Y-55754095D01*
X82221961Y-55754095D02*
X82317200Y-55849333D01*
X82317200Y-55849333D02*
X82364819Y-55992190D01*
X82364819Y-55992190D02*
X82364819Y-56230285D01*
X82079104Y-55277904D02*
X82079104Y-54801714D01*
X82364819Y-55373142D02*
X81364819Y-55039809D01*
X81364819Y-55039809D02*
X82364819Y-54706476D01*
X73744819Y-57111237D02*
X74744819Y-56777904D01*
X74744819Y-56777904D02*
X73744819Y-56444571D01*
X74744819Y-56111237D02*
X73744819Y-56111237D01*
X74744819Y-55635047D02*
X73744819Y-55635047D01*
X73744819Y-55635047D02*
X74744819Y-55063619D01*
X74744819Y-55063619D02*
X73744819Y-55063619D01*
X65933333Y-46634819D02*
X65600000Y-46158628D01*
X65361905Y-46634819D02*
X65361905Y-45634819D01*
X65361905Y-45634819D02*
X65742857Y-45634819D01*
X65742857Y-45634819D02*
X65838095Y-45682438D01*
X65838095Y-45682438D02*
X65885714Y-45730057D01*
X65885714Y-45730057D02*
X65933333Y-45825295D01*
X65933333Y-45825295D02*
X65933333Y-45968152D01*
X65933333Y-45968152D02*
X65885714Y-46063390D01*
X65885714Y-46063390D02*
X65838095Y-46111009D01*
X65838095Y-46111009D02*
X65742857Y-46158628D01*
X65742857Y-46158628D02*
X65361905Y-46158628D01*
X66790476Y-45634819D02*
X66600000Y-45634819D01*
X66600000Y-45634819D02*
X66504762Y-45682438D01*
X66504762Y-45682438D02*
X66457143Y-45730057D01*
X66457143Y-45730057D02*
X66361905Y-45872914D01*
X66361905Y-45872914D02*
X66314286Y-46063390D01*
X66314286Y-46063390D02*
X66314286Y-46444342D01*
X66314286Y-46444342D02*
X66361905Y-46539580D01*
X66361905Y-46539580D02*
X66409524Y-46587200D01*
X66409524Y-46587200D02*
X66504762Y-46634819D01*
X66504762Y-46634819D02*
X66695238Y-46634819D01*
X66695238Y-46634819D02*
X66790476Y-46587200D01*
X66790476Y-46587200D02*
X66838095Y-46539580D01*
X66838095Y-46539580D02*
X66885714Y-46444342D01*
X66885714Y-46444342D02*
X66885714Y-46206247D01*
X66885714Y-46206247D02*
X66838095Y-46111009D01*
X66838095Y-46111009D02*
X66790476Y-46063390D01*
X66790476Y-46063390D02*
X66695238Y-46015771D01*
X66695238Y-46015771D02*
X66504762Y-46015771D01*
X66504762Y-46015771D02*
X66409524Y-46063390D01*
X66409524Y-46063390D02*
X66361905Y-46111009D01*
X66361905Y-46111009D02*
X66314286Y-46206247D01*
X76433333Y-46634819D02*
X76100000Y-46158628D01*
X75861905Y-46634819D02*
X75861905Y-45634819D01*
X75861905Y-45634819D02*
X76242857Y-45634819D01*
X76242857Y-45634819D02*
X76338095Y-45682438D01*
X76338095Y-45682438D02*
X76385714Y-45730057D01*
X76385714Y-45730057D02*
X76433333Y-45825295D01*
X76433333Y-45825295D02*
X76433333Y-45968152D01*
X76433333Y-45968152D02*
X76385714Y-46063390D01*
X76385714Y-46063390D02*
X76338095Y-46111009D01*
X76338095Y-46111009D02*
X76242857Y-46158628D01*
X76242857Y-46158628D02*
X75861905Y-46158628D01*
X76766667Y-45634819D02*
X77433333Y-45634819D01*
X77433333Y-45634819D02*
X77004762Y-46634819D01*
X98053333Y-68394819D02*
X97720000Y-67918628D01*
X97481905Y-68394819D02*
X97481905Y-67394819D01*
X97481905Y-67394819D02*
X97862857Y-67394819D01*
X97862857Y-67394819D02*
X97958095Y-67442438D01*
X97958095Y-67442438D02*
X98005714Y-67490057D01*
X98005714Y-67490057D02*
X98053333Y-67585295D01*
X98053333Y-67585295D02*
X98053333Y-67728152D01*
X98053333Y-67728152D02*
X98005714Y-67823390D01*
X98005714Y-67823390D02*
X97958095Y-67871009D01*
X97958095Y-67871009D02*
X97862857Y-67918628D01*
X97862857Y-67918628D02*
X97481905Y-67918628D01*
X98624762Y-67823390D02*
X98529524Y-67775771D01*
X98529524Y-67775771D02*
X98481905Y-67728152D01*
X98481905Y-67728152D02*
X98434286Y-67632914D01*
X98434286Y-67632914D02*
X98434286Y-67585295D01*
X98434286Y-67585295D02*
X98481905Y-67490057D01*
X98481905Y-67490057D02*
X98529524Y-67442438D01*
X98529524Y-67442438D02*
X98624762Y-67394819D01*
X98624762Y-67394819D02*
X98815238Y-67394819D01*
X98815238Y-67394819D02*
X98910476Y-67442438D01*
X98910476Y-67442438D02*
X98958095Y-67490057D01*
X98958095Y-67490057D02*
X99005714Y-67585295D01*
X99005714Y-67585295D02*
X99005714Y-67632914D01*
X99005714Y-67632914D02*
X98958095Y-67728152D01*
X98958095Y-67728152D02*
X98910476Y-67775771D01*
X98910476Y-67775771D02*
X98815238Y-67823390D01*
X98815238Y-67823390D02*
X98624762Y-67823390D01*
X98624762Y-67823390D02*
X98529524Y-67871009D01*
X98529524Y-67871009D02*
X98481905Y-67918628D01*
X98481905Y-67918628D02*
X98434286Y-68013866D01*
X98434286Y-68013866D02*
X98434286Y-68204342D01*
X98434286Y-68204342D02*
X98481905Y-68299580D01*
X98481905Y-68299580D02*
X98529524Y-68347200D01*
X98529524Y-68347200D02*
X98624762Y-68394819D01*
X98624762Y-68394819D02*
X98815238Y-68394819D01*
X98815238Y-68394819D02*
X98910476Y-68347200D01*
X98910476Y-68347200D02*
X98958095Y-68299580D01*
X98958095Y-68299580D02*
X99005714Y-68204342D01*
X99005714Y-68204342D02*
X99005714Y-68013866D01*
X99005714Y-68013866D02*
X98958095Y-67918628D01*
X98958095Y-67918628D02*
X98910476Y-67871009D01*
X98910476Y-67871009D02*
X98815238Y-67823390D01*
D11*
%TO.C,R2*%
X93490000Y-53080000D02*
X86950000Y-53080000D01*
X93490000Y-52750000D02*
X93490000Y-53080000D01*
X93490000Y-50670000D02*
X93490000Y-50340000D01*
X93490000Y-50340000D02*
X86950000Y-50340000D01*
X86950000Y-53080000D02*
X86950000Y-52750000D01*
X86950000Y-50340000D02*
X86950000Y-50670000D01*
%TO.C,R3*%
X111660000Y-63680000D02*
X105120000Y-63680000D01*
X111660000Y-63350000D02*
X111660000Y-63680000D01*
X111660000Y-61270000D02*
X111660000Y-60940000D01*
X111660000Y-60940000D02*
X105120000Y-60940000D01*
X105120000Y-63680000D02*
X105120000Y-63350000D01*
X105120000Y-60940000D02*
X105120000Y-61270000D01*
%TO.C,R4*%
X118055000Y-39680000D02*
X111515000Y-39680000D01*
X118055000Y-39350000D02*
X118055000Y-39680000D01*
X118055000Y-37270000D02*
X118055000Y-36940000D01*
X118055000Y-36940000D02*
X111515000Y-36940000D01*
X111515000Y-39680000D02*
X111515000Y-39350000D01*
X111515000Y-36940000D02*
X111515000Y-37270000D01*
%TO.C,C2*%
X118740000Y-65710000D02*
X113500000Y-65710000D01*
X118740000Y-62970000D02*
X118740000Y-65710000D01*
X113500000Y-65710000D02*
X113500000Y-62970000D01*
X113500000Y-62970000D02*
X118740000Y-62970000D01*
%TO.C,J2*%
X102770000Y-37920000D02*
X102770000Y-36670000D01*
X102470000Y-37620000D02*
X102470000Y-32900000D01*
X102470000Y-36310000D02*
X101860000Y-36310000D01*
X102470000Y-35010000D02*
X101860000Y-35010000D01*
X102470000Y-32900000D02*
X84350000Y-32900000D01*
X101860000Y-37010000D02*
X101860000Y-33510000D01*
X101860000Y-33510000D02*
X84960000Y-33510000D01*
X101520000Y-37920000D02*
X102770000Y-37920000D01*
X101010000Y-37820000D02*
X101010000Y-37620000D01*
X100710000Y-37820000D02*
X101010000Y-37820000D01*
X100710000Y-37720000D02*
X101010000Y-37720000D01*
X100710000Y-37620000D02*
X100710000Y-37820000D01*
X99910000Y-37620000D02*
X99910000Y-37010000D01*
X99910000Y-37010000D02*
X101860000Y-37010000D01*
X99510000Y-34010000D02*
X99310000Y-34010000D01*
X99510000Y-33510000D02*
X99510000Y-34010000D01*
X99410000Y-33510000D02*
X99410000Y-34010000D01*
X99310000Y-34010000D02*
X99310000Y-33510000D01*
X97510000Y-34010000D02*
X97310000Y-34010000D01*
X97510000Y-33510000D02*
X97510000Y-34010000D01*
X97410000Y-33510000D02*
X97410000Y-34010000D01*
X97310000Y-34010000D02*
X97310000Y-33510000D01*
X95510000Y-34010000D02*
X95310000Y-34010000D01*
X95510000Y-33510000D02*
X95510000Y-34010000D01*
X95410000Y-33510000D02*
X95410000Y-34010000D01*
X95310000Y-34010000D02*
X95310000Y-33510000D01*
X93510000Y-34010000D02*
X93310000Y-34010000D01*
X93510000Y-33510000D02*
X93510000Y-34010000D01*
X93410000Y-33510000D02*
X93410000Y-34010000D01*
X93310000Y-34010000D02*
X93310000Y-33510000D01*
X91510000Y-34010000D02*
X91310000Y-34010000D01*
X91510000Y-33510000D02*
X91510000Y-34010000D01*
X91410000Y-33510000D02*
X91410000Y-34010000D01*
X91310000Y-34010000D02*
X91310000Y-33510000D01*
X89510000Y-34010000D02*
X89310000Y-34010000D01*
X89510000Y-33510000D02*
X89510000Y-34010000D01*
X89410000Y-33510000D02*
X89410000Y-34010000D01*
X89310000Y-34010000D02*
X89310000Y-33510000D01*
X87510000Y-34010000D02*
X87310000Y-34010000D01*
X87510000Y-33510000D02*
X87510000Y-34010000D01*
X87410000Y-33510000D02*
X87410000Y-34010000D01*
X87310000Y-34010000D02*
X87310000Y-33510000D01*
X86910000Y-37010000D02*
X86910000Y-37620000D01*
X84960000Y-37010000D02*
X86910000Y-37010000D01*
X84960000Y-33510000D02*
X84960000Y-37010000D01*
X84350000Y-37620000D02*
X102470000Y-37620000D01*
X84350000Y-36310000D02*
X84960000Y-36310000D01*
X84350000Y-35010000D02*
X84960000Y-35010000D01*
X84350000Y-32900000D02*
X84350000Y-37620000D01*
D12*
%TO.C,U4*%
X36850000Y-40120000D02*
X36850000Y-49010000D01*
X36850000Y-49010000D02*
X38120000Y-49010000D01*
X38120000Y-37580000D02*
X38120000Y-40120000D01*
X38120000Y-40120000D02*
X36850000Y-40120000D01*
X38120000Y-40120000D02*
X38120000Y-49010000D01*
X38120000Y-49010000D02*
X38120000Y-64250000D01*
X38120000Y-64250000D02*
X39390000Y-64250000D01*
X39390000Y-35040000D02*
X50820000Y-35040000D01*
X39390000Y-37580000D02*
X39390000Y-35040000D01*
X39390000Y-64250000D02*
X39390000Y-73140000D01*
X39390000Y-64250000D02*
X52090000Y-64250000D01*
X39390000Y-73140000D02*
X39390000Y-74410000D01*
X39390000Y-74410000D02*
X39390000Y-75680000D01*
X39390000Y-74410000D02*
X52090000Y-74410000D01*
X39390000Y-75680000D02*
X52090000Y-75680000D01*
X48280000Y-54090000D02*
X55900000Y-54090000D01*
X48280000Y-62980000D02*
X48280000Y-54090000D01*
X50820000Y-35040000D02*
X50820000Y-37580000D01*
X50820000Y-37580000D02*
X38120000Y-37580000D01*
X52090000Y-64250000D02*
X57170000Y-64250000D01*
X52090000Y-73140000D02*
X39390000Y-73140000D01*
X52090000Y-73140000D02*
X52090000Y-64250000D01*
X52090000Y-74410000D02*
X52090000Y-73140000D01*
X52090000Y-75680000D02*
X52090000Y-74410000D01*
X55900000Y-54090000D02*
X55900000Y-62980000D01*
X55900000Y-62980000D02*
X48280000Y-62980000D01*
X57170000Y-37580000D02*
X50820000Y-37580000D01*
X57170000Y-64250000D02*
X57170000Y-37580000D01*
D11*
%TO.C,C1*%
X118740000Y-62660000D02*
X113500000Y-62660000D01*
X118740000Y-59920000D02*
X118740000Y-62660000D01*
X113500000Y-62660000D02*
X113500000Y-59920000D01*
X113500000Y-59920000D02*
X118740000Y-59920000D01*
%TO.C,R5*%
X101490000Y-63680000D02*
X101490000Y-63350000D01*
X101490000Y-60940000D02*
X101490000Y-61270000D01*
X94950000Y-63680000D02*
X101490000Y-63680000D01*
X94950000Y-63350000D02*
X94950000Y-63680000D01*
X94950000Y-61270000D02*
X94950000Y-60940000D01*
X94950000Y-60940000D02*
X101490000Y-60940000D01*
%TO.C,J1*%
X92470000Y-65720000D02*
X92470000Y-61000000D01*
X92470000Y-63610000D02*
X91860000Y-63610000D01*
X92470000Y-62310000D02*
X91860000Y-62310000D01*
X92470000Y-61000000D02*
X86350000Y-61000000D01*
X91860000Y-65110000D02*
X91860000Y-61610000D01*
X91860000Y-61610000D02*
X89910000Y-61610000D01*
X89910000Y-61610000D02*
X89910000Y-61000000D01*
X89510000Y-64610000D02*
X89510000Y-65110000D01*
X89410000Y-65110000D02*
X89410000Y-64610000D01*
X89310000Y-65110000D02*
X89310000Y-64610000D01*
X89310000Y-64610000D02*
X89510000Y-64610000D01*
X88910000Y-61610000D02*
X86960000Y-61610000D01*
X88910000Y-61000000D02*
X88910000Y-61610000D01*
X88110000Y-61000000D02*
X88110000Y-60800000D01*
X88110000Y-60900000D02*
X87810000Y-60900000D01*
X88110000Y-60800000D02*
X87810000Y-60800000D01*
X87810000Y-60800000D02*
X87810000Y-61000000D01*
X87300000Y-60700000D02*
X86050000Y-60700000D01*
X86960000Y-65110000D02*
X91860000Y-65110000D01*
X86960000Y-61610000D02*
X86960000Y-65110000D01*
X86350000Y-65720000D02*
X92470000Y-65720000D01*
X86350000Y-63610000D02*
X86960000Y-63610000D01*
X86350000Y-62310000D02*
X86960000Y-62310000D01*
X86350000Y-61000000D02*
X86350000Y-65720000D01*
X86050000Y-60700000D02*
X86050000Y-61950000D01*
%TO.C,C3*%
X78170000Y-63680000D02*
X72930000Y-63680000D01*
X78170000Y-60940000D02*
X78170000Y-63680000D01*
X72930000Y-63680000D02*
X72930000Y-60940000D01*
X72930000Y-60940000D02*
X78170000Y-60940000D01*
%TO.C,U3*%
X71400000Y-60080000D02*
X71400000Y-47380000D01*
X58640000Y-60080000D02*
X71400000Y-60080000D01*
X58640000Y-60080000D02*
X58640000Y-47380000D01*
X58640000Y-47380000D02*
X71340000Y-47380000D01*
%TO.C,R1*%
X93490000Y-57580000D02*
X93490000Y-57250000D01*
X93490000Y-54840000D02*
X93490000Y-55170000D01*
X86950000Y-57580000D02*
X93490000Y-57580000D01*
X86950000Y-57250000D02*
X86950000Y-57580000D01*
X86950000Y-55170000D02*
X86950000Y-54840000D01*
X86950000Y-54840000D02*
X93490000Y-54840000D01*
%TO.C,C8*%
X90280000Y-41180000D02*
X85040000Y-41180000D01*
X90280000Y-38440000D02*
X90280000Y-41180000D01*
X85040000Y-41180000D02*
X85040000Y-38440000D01*
X85040000Y-38440000D02*
X90280000Y-38440000D01*
%TO.C,C5*%
X67530000Y-36560000D02*
G75*
G02*
X59290000Y-36560000I-4120000J0D01*
G01*
X59290000Y-36560000D02*
G75*
G02*
X67530000Y-36560000I4120000J0D01*
G01*
X64450000Y-35840000D02*
X67427000Y-35840000D01*
X64450000Y-35800000D02*
X67419000Y-35800000D01*
X64450000Y-35760000D02*
X67412000Y-35760000D01*
X64450000Y-35720000D02*
X67403000Y-35720000D01*
X64450000Y-35680000D02*
X67395000Y-35680000D01*
X64450000Y-35640000D02*
X67386000Y-35640000D01*
X64450000Y-35600000D02*
X67377000Y-35600000D01*
X64450000Y-35560000D02*
X67367000Y-35560000D01*
X64450000Y-35520000D02*
X67357000Y-35520000D01*
X64450000Y-35480000D02*
X67346000Y-35480000D01*
X64450000Y-35440000D02*
X67335000Y-35440000D01*
X64450000Y-35400000D02*
X67323000Y-35400000D01*
X64450000Y-35360000D02*
X67311000Y-35360000D01*
X64450000Y-35320000D02*
X67299000Y-35320000D01*
X64450000Y-35280000D02*
X67286000Y-35280000D01*
X64450000Y-35240000D02*
X67273000Y-35240000D01*
X64450000Y-35200000D02*
X67259000Y-35200000D01*
X64450000Y-35160000D02*
X67245000Y-35160000D01*
X64450000Y-35120000D02*
X67230000Y-35120000D01*
X64450000Y-35080000D02*
X67215000Y-35080000D01*
X64450000Y-35040000D02*
X67199000Y-35040000D01*
X64450000Y-35000000D02*
X67183000Y-35000000D01*
X64450000Y-34960000D02*
X67167000Y-34960000D01*
X64450000Y-34920000D02*
X67150000Y-34920000D01*
X64450000Y-34880000D02*
X67132000Y-34880000D01*
X64450000Y-34840000D02*
X67114000Y-34840000D01*
X64450000Y-34800000D02*
X67095000Y-34800000D01*
X64450000Y-34760000D02*
X67076000Y-34760000D01*
X64450000Y-34720000D02*
X67056000Y-34720000D01*
X64450000Y-34680000D02*
X67036000Y-34680000D01*
X64450000Y-34640000D02*
X67015000Y-34640000D01*
X64450000Y-34600000D02*
X66994000Y-34600000D01*
X64450000Y-34560000D02*
X66972000Y-34560000D01*
X64450000Y-34520000D02*
X66949000Y-34520000D01*
X64450000Y-34480000D02*
X66926000Y-34480000D01*
X64450000Y-34440000D02*
X66903000Y-34440000D01*
X64450000Y-34400000D02*
X66878000Y-34400000D01*
X64450000Y-34360000D02*
X66853000Y-34360000D01*
X64450000Y-34320000D02*
X66828000Y-34320000D01*
X64450000Y-34280000D02*
X66802000Y-34280000D01*
X64450000Y-34240000D02*
X66775000Y-34240000D01*
X64450000Y-34200000D02*
X66747000Y-34200000D01*
X64450000Y-34160000D02*
X66719000Y-34160000D01*
X64450000Y-34120000D02*
X66690000Y-34120000D01*
X64450000Y-34080000D02*
X66660000Y-34080000D01*
X64450000Y-34040000D02*
X66629000Y-34040000D01*
X64450000Y-34000000D02*
X66598000Y-34000000D01*
X64450000Y-33960000D02*
X66566000Y-33960000D01*
X64450000Y-33920000D02*
X66533000Y-33920000D01*
X64450000Y-33880000D02*
X66499000Y-33880000D01*
X64450000Y-33840000D02*
X66465000Y-33840000D01*
X64450000Y-33800000D02*
X66429000Y-33800000D01*
X62877000Y-32480000D02*
X63943000Y-32480000D01*
X62642000Y-32520000D02*
X64178000Y-32520000D01*
X62463000Y-32560000D02*
X64357000Y-32560000D01*
X62313000Y-32600000D02*
X64507000Y-32600000D01*
X62182000Y-32640000D02*
X64638000Y-32640000D01*
X62064000Y-32680000D02*
X64756000Y-32680000D01*
X61957000Y-32720000D02*
X64863000Y-32720000D01*
X61858000Y-32760000D02*
X64962000Y-32760000D01*
X61766000Y-32800000D02*
X65054000Y-32800000D01*
X61679000Y-32840000D02*
X65141000Y-32840000D01*
X61597000Y-32880000D02*
X65223000Y-32880000D01*
X61520000Y-32920000D02*
X65300000Y-32920000D01*
X61446000Y-32960000D02*
X65374000Y-32960000D01*
X61376000Y-33000000D02*
X65444000Y-33000000D01*
X61309000Y-33040000D02*
X65511000Y-33040000D01*
X61245000Y-33080000D02*
X65575000Y-33080000D01*
X61183000Y-33120000D02*
X65637000Y-33120000D01*
X61123000Y-33160000D02*
X65697000Y-33160000D01*
X61095000Y-40969698D02*
X61095000Y-40169698D01*
X61066000Y-33200000D02*
X65754000Y-33200000D01*
X61010000Y-33240000D02*
X65810000Y-33240000D01*
X60957000Y-33280000D02*
X65863000Y-33280000D01*
X60905000Y-33320000D02*
X65915000Y-33320000D01*
X60855000Y-33360000D02*
X65965000Y-33360000D01*
X60806000Y-33400000D02*
X66014000Y-33400000D01*
X60759000Y-33440000D02*
X66061000Y-33440000D01*
X60714000Y-33480000D02*
X66106000Y-33480000D01*
X60695000Y-40569698D02*
X61495000Y-40569698D01*
X60669000Y-33520000D02*
X66151000Y-33520000D01*
X60626000Y-33560000D02*
X66194000Y-33560000D01*
X60584000Y-33600000D02*
X66236000Y-33600000D01*
X60543000Y-33640000D02*
X66277000Y-33640000D01*
X60504000Y-33680000D02*
X66316000Y-33680000D01*
X60465000Y-33720000D02*
X66355000Y-33720000D01*
X60428000Y-33760000D02*
X66392000Y-33760000D01*
X60391000Y-33800000D02*
X62370000Y-33800000D01*
X60355000Y-33840000D02*
X62370000Y-33840000D01*
X60321000Y-33880000D02*
X62370000Y-33880000D01*
X60287000Y-33920000D02*
X62370000Y-33920000D01*
X60254000Y-33960000D02*
X62370000Y-33960000D01*
X60222000Y-34000000D02*
X62370000Y-34000000D01*
X60191000Y-34040000D02*
X62370000Y-34040000D01*
X60160000Y-34080000D02*
X62370000Y-34080000D01*
X60130000Y-34120000D02*
X62370000Y-34120000D01*
X60101000Y-34160000D02*
X62370000Y-34160000D01*
X60073000Y-34200000D02*
X62370000Y-34200000D01*
X60045000Y-34240000D02*
X62370000Y-34240000D01*
X60018000Y-34280000D02*
X62370000Y-34280000D01*
X59992000Y-34320000D02*
X62370000Y-34320000D01*
X59967000Y-34360000D02*
X62370000Y-34360000D01*
X59942000Y-34400000D02*
X62370000Y-34400000D01*
X59917000Y-34440000D02*
X62370000Y-34440000D01*
X59894000Y-34480000D02*
X62370000Y-34480000D01*
X59871000Y-34520000D02*
X62370000Y-34520000D01*
X59848000Y-34560000D02*
X62370000Y-34560000D01*
X59826000Y-34600000D02*
X62370000Y-34600000D01*
X59805000Y-34640000D02*
X62370000Y-34640000D01*
X59784000Y-34680000D02*
X62370000Y-34680000D01*
X59764000Y-34720000D02*
X62370000Y-34720000D01*
X59744000Y-34760000D02*
X62370000Y-34760000D01*
X59725000Y-34800000D02*
X62370000Y-34800000D01*
X59706000Y-34840000D02*
X62370000Y-34840000D01*
X59688000Y-34880000D02*
X62370000Y-34880000D01*
X59670000Y-34920000D02*
X62370000Y-34920000D01*
X59653000Y-34960000D02*
X62370000Y-34960000D01*
X59637000Y-35000000D02*
X62370000Y-35000000D01*
X59621000Y-35040000D02*
X62370000Y-35040000D01*
X59605000Y-35080000D02*
X62370000Y-35080000D01*
X59590000Y-35120000D02*
X62370000Y-35120000D01*
X59575000Y-35160000D02*
X62370000Y-35160000D01*
X59561000Y-35200000D02*
X62370000Y-35200000D01*
X59547000Y-35240000D02*
X62370000Y-35240000D01*
X59534000Y-35280000D02*
X62370000Y-35280000D01*
X59521000Y-35320000D02*
X62370000Y-35320000D01*
X59509000Y-35360000D02*
X62370000Y-35360000D01*
X59497000Y-35400000D02*
X62370000Y-35400000D01*
X59485000Y-35440000D02*
X62370000Y-35440000D01*
X59474000Y-35480000D02*
X62370000Y-35480000D01*
X59463000Y-35520000D02*
X62370000Y-35520000D01*
X59453000Y-35560000D02*
X62370000Y-35560000D01*
X59443000Y-35600000D02*
X62370000Y-35600000D01*
X59434000Y-35640000D02*
X62370000Y-35640000D01*
X59425000Y-35680000D02*
X62370000Y-35680000D01*
X59417000Y-35720000D02*
X62370000Y-35720000D01*
X59408000Y-35760000D02*
X62370000Y-35760000D01*
X59401000Y-35800000D02*
X62370000Y-35800000D01*
X59393000Y-35840000D02*
X62370000Y-35840000D01*
X59387000Y-35880000D02*
X67433000Y-35880000D01*
X59380000Y-35920000D02*
X67440000Y-35920000D01*
X59374000Y-35960000D02*
X67446000Y-35960000D01*
X59368000Y-36000000D02*
X67452000Y-36000000D01*
X59363000Y-36040000D02*
X67457000Y-36040000D01*
X59358000Y-36080000D02*
X67462000Y-36080000D01*
X59354000Y-36120000D02*
X67466000Y-36120000D01*
X59349000Y-36160000D02*
X67471000Y-36160000D01*
X59346000Y-36200000D02*
X67474000Y-36200000D01*
X59342000Y-36240000D02*
X67478000Y-36240000D01*
X59340000Y-36280000D02*
X67480000Y-36280000D01*
X59337000Y-36320000D02*
X67483000Y-36320000D01*
X59335000Y-36360000D02*
X67485000Y-36360000D01*
X59333000Y-36400000D02*
X67487000Y-36400000D01*
X59332000Y-36440000D02*
X67488000Y-36440000D01*
X59331000Y-36480000D02*
X67489000Y-36480000D01*
X59330000Y-36560000D02*
X67490000Y-36560000D01*
X59330000Y-36520000D02*
X67490000Y-36520000D01*
D12*
%TO.C,U1*%
X124060000Y-54060000D02*
X124060000Y-45060000D01*
X124060000Y-54060000D02*
X122760000Y-54060000D01*
X124060000Y-45060000D02*
X122760000Y-45060000D01*
X122760000Y-58560000D02*
X122760000Y-54060000D01*
X122760000Y-45060000D02*
X122760000Y-40560000D01*
X100060000Y-58560000D02*
X122760000Y-58560000D01*
X100060000Y-58560000D02*
X100060000Y-40560000D01*
X100060000Y-40560000D02*
X122760000Y-40560000D01*
D11*
%TO.C,C6*%
X44530000Y-34680000D02*
X39290000Y-34680000D01*
X44530000Y-31940000D02*
X44530000Y-34680000D01*
X39290000Y-34680000D02*
X39290000Y-31940000D01*
X39290000Y-31940000D02*
X44530000Y-31940000D01*
%TO.C,C4*%
X71430000Y-63430000D02*
X66190000Y-63430000D01*
X71430000Y-60690000D02*
X71430000Y-63430000D01*
X66190000Y-63430000D02*
X66190000Y-60690000D01*
X66190000Y-60690000D02*
X71430000Y-60690000D01*
%TO.C,C7*%
X90930000Y-45560000D02*
G75*
G02*
X84390000Y-45560000I-3270000J0D01*
G01*
X84390000Y-45560000D02*
G75*
G02*
X90930000Y-45560000I3270000J0D01*
G01*
X90900000Y-45158000D02*
X90900000Y-45962000D01*
X90860000Y-44927000D02*
X90860000Y-46193000D01*
X90820000Y-44759000D02*
X90820000Y-46361000D01*
X90780000Y-44621000D02*
X90780000Y-46499000D01*
X90740000Y-44502000D02*
X90740000Y-46618000D01*
X90700000Y-44395000D02*
X90700000Y-46725000D01*
X90660000Y-44299000D02*
X90660000Y-46821000D01*
X90620000Y-44210000D02*
X90620000Y-46910000D01*
X90580000Y-44128000D02*
X90580000Y-46992000D01*
X90540000Y-44051000D02*
X90540000Y-47069000D01*
X90500000Y-43979000D02*
X90500000Y-47141000D01*
X90460000Y-43911000D02*
X90460000Y-47209000D01*
X90420000Y-43846000D02*
X90420000Y-47274000D01*
X90380000Y-43785000D02*
X90380000Y-47335000D01*
X90340000Y-43726000D02*
X90340000Y-47394000D01*
X90300000Y-43670000D02*
X90300000Y-47450000D01*
X90260000Y-43617000D02*
X90260000Y-47503000D01*
X90220000Y-43565000D02*
X90220000Y-47555000D01*
X90180000Y-43516000D02*
X90180000Y-47604000D01*
X90140000Y-43469000D02*
X90140000Y-47651000D01*
X90100000Y-43423000D02*
X90100000Y-47697000D01*
X90060000Y-43379000D02*
X90060000Y-47741000D01*
X90020000Y-43337000D02*
X90020000Y-47783000D01*
X89980000Y-43296000D02*
X89980000Y-47824000D01*
X89940000Y-46600000D02*
X89940000Y-47864000D01*
X89940000Y-43256000D02*
X89940000Y-44520000D01*
X89900000Y-46600000D02*
X89900000Y-47902000D01*
X89900000Y-43218000D02*
X89900000Y-44520000D01*
X89860000Y-46600000D02*
X89860000Y-47939000D01*
X89860000Y-43181000D02*
X89860000Y-44520000D01*
X89820000Y-46600000D02*
X89820000Y-47975000D01*
X89820000Y-43145000D02*
X89820000Y-44520000D01*
X89780000Y-46600000D02*
X89780000Y-48010000D01*
X89780000Y-43110000D02*
X89780000Y-44520000D01*
X89740000Y-46600000D02*
X89740000Y-48043000D01*
X89740000Y-43077000D02*
X89740000Y-44520000D01*
X89700000Y-46600000D02*
X89700000Y-48076000D01*
X89700000Y-43044000D02*
X89700000Y-44520000D01*
X89660000Y-46600000D02*
X89660000Y-48107000D01*
X89660000Y-43013000D02*
X89660000Y-44520000D01*
X89620000Y-46600000D02*
X89620000Y-48137000D01*
X89620000Y-42983000D02*
X89620000Y-44520000D01*
X89580000Y-46600000D02*
X89580000Y-48167000D01*
X89580000Y-42953000D02*
X89580000Y-44520000D01*
X89540000Y-46600000D02*
X89540000Y-48196000D01*
X89540000Y-42924000D02*
X89540000Y-44520000D01*
X89500000Y-46600000D02*
X89500000Y-48223000D01*
X89500000Y-42897000D02*
X89500000Y-44520000D01*
X89460000Y-46600000D02*
X89460000Y-48250000D01*
X89460000Y-42870000D02*
X89460000Y-44520000D01*
X89420000Y-46600000D02*
X89420000Y-48276000D01*
X89420000Y-42844000D02*
X89420000Y-44520000D01*
X89380000Y-46600000D02*
X89380000Y-48301000D01*
X89380000Y-42819000D02*
X89380000Y-44520000D01*
X89340000Y-46600000D02*
X89340000Y-48325000D01*
X89340000Y-42795000D02*
X89340000Y-44520000D01*
X89300000Y-46600000D02*
X89300000Y-48349000D01*
X89300000Y-42771000D02*
X89300000Y-44520000D01*
X89260000Y-46600000D02*
X89260000Y-48372000D01*
X89260000Y-42748000D02*
X89260000Y-44520000D01*
X89220000Y-46600000D02*
X89220000Y-48394000D01*
X89220000Y-42726000D02*
X89220000Y-44520000D01*
X89180000Y-46600000D02*
X89180000Y-48415000D01*
X89180000Y-42705000D02*
X89180000Y-44520000D01*
X89140000Y-46600000D02*
X89140000Y-48436000D01*
X89140000Y-42684000D02*
X89140000Y-44520000D01*
X89100000Y-46600000D02*
X89100000Y-48456000D01*
X89100000Y-42664000D02*
X89100000Y-44520000D01*
X89060000Y-46600000D02*
X89060000Y-48475000D01*
X89060000Y-42645000D02*
X89060000Y-44520000D01*
X89020000Y-46600000D02*
X89020000Y-48494000D01*
X89020000Y-42626000D02*
X89020000Y-44520000D01*
X88980000Y-46600000D02*
X88980000Y-48512000D01*
X88980000Y-42608000D02*
X88980000Y-44520000D01*
X88940000Y-46600000D02*
X88940000Y-48529000D01*
X88940000Y-42591000D02*
X88940000Y-44520000D01*
X88900000Y-46600000D02*
X88900000Y-48546000D01*
X88900000Y-42574000D02*
X88900000Y-44520000D01*
X88860000Y-46600000D02*
X88860000Y-48562000D01*
X88860000Y-42558000D02*
X88860000Y-44520000D01*
X88820000Y-46600000D02*
X88820000Y-48577000D01*
X88820000Y-42543000D02*
X88820000Y-44520000D01*
X88780000Y-46600000D02*
X88780000Y-48592000D01*
X88780000Y-42528000D02*
X88780000Y-44520000D01*
X88740000Y-46600000D02*
X88740000Y-48607000D01*
X88740000Y-42513000D02*
X88740000Y-44520000D01*
X88700000Y-46600000D02*
X88700000Y-48620000D01*
X88700000Y-42500000D02*
X88700000Y-44520000D01*
X88660000Y-46600000D02*
X88660000Y-48633000D01*
X88660000Y-42487000D02*
X88660000Y-44520000D01*
X88620000Y-46600000D02*
X88620000Y-48646000D01*
X88620000Y-42474000D02*
X88620000Y-44520000D01*
X88580000Y-46600000D02*
X88580000Y-48658000D01*
X88580000Y-42462000D02*
X88580000Y-44520000D01*
X88540000Y-46600000D02*
X88540000Y-48669000D01*
X88540000Y-42451000D02*
X88540000Y-44520000D01*
X88500000Y-46600000D02*
X88500000Y-48680000D01*
X88500000Y-42440000D02*
X88500000Y-44520000D01*
X88460000Y-46600000D02*
X88460000Y-48691000D01*
X88460000Y-42429000D02*
X88460000Y-44520000D01*
X88420000Y-46600000D02*
X88420000Y-48700000D01*
X88420000Y-42420000D02*
X88420000Y-44520000D01*
X88380000Y-46600000D02*
X88380000Y-48710000D01*
X88380000Y-42410000D02*
X88380000Y-44520000D01*
X88340000Y-46600000D02*
X88340000Y-48719000D01*
X88340000Y-42401000D02*
X88340000Y-44520000D01*
X88300000Y-46600000D02*
X88300000Y-48727000D01*
X88300000Y-42393000D02*
X88300000Y-44520000D01*
X88260000Y-46600000D02*
X88260000Y-48734000D01*
X88260000Y-42386000D02*
X88260000Y-44520000D01*
X88220000Y-46600000D02*
X88220000Y-48742000D01*
X88220000Y-42378000D02*
X88220000Y-44520000D01*
X88180000Y-46600000D02*
X88180000Y-48748000D01*
X88180000Y-42372000D02*
X88180000Y-44520000D01*
X88140000Y-46600000D02*
X88140000Y-48755000D01*
X88140000Y-42365000D02*
X88140000Y-44520000D01*
X88100000Y-46600000D02*
X88100000Y-48760000D01*
X88100000Y-42360000D02*
X88100000Y-44520000D01*
X88060000Y-46600000D02*
X88060000Y-48765000D01*
X88060000Y-42355000D02*
X88060000Y-44520000D01*
X88020000Y-46600000D02*
X88020000Y-48770000D01*
X88020000Y-42350000D02*
X88020000Y-44520000D01*
X87980000Y-46600000D02*
X87980000Y-48774000D01*
X87980000Y-42346000D02*
X87980000Y-44520000D01*
X87940000Y-46600000D02*
X87940000Y-48778000D01*
X87940000Y-42342000D02*
X87940000Y-44520000D01*
X87900000Y-46600000D02*
X87900000Y-48781000D01*
X87900000Y-42339000D02*
X87900000Y-44520000D01*
X87860000Y-42336000D02*
X87860000Y-48784000D01*
X87820000Y-42334000D02*
X87820000Y-48786000D01*
X87780000Y-42332000D02*
X87780000Y-48788000D01*
X87740000Y-42331000D02*
X87740000Y-48789000D01*
X87700000Y-42330000D02*
X87700000Y-48790000D01*
X87660000Y-42330000D02*
X87660000Y-48790000D01*
X84474759Y-43406000D02*
X84474759Y-44036000D01*
X84159759Y-43721000D02*
X84789759Y-43721000D01*
%TO.C,D1*%
X80805000Y-35810000D02*
G75*
G02*
X75805000Y-35810000I-2500000J0D01*
G01*
X75805000Y-35810000D02*
G75*
G02*
X80805000Y-35810000I2500000J0D01*
G01*
X81295000Y-35810000D02*
G75*
G02*
X75745000Y-37354830I-2990000J0D01*
G01*
X75745000Y-34265170D02*
G75*
G02*
X81295000Y-35810000I2560000J-1544830D01*
G01*
X75745000Y-34265000D02*
X75745000Y-37355000D01*
%TO.C,U2*%
X77084001Y-49793000D02*
G75*
G02*
X74377381Y-49793000I-1353310J0D01*
G01*
X74377381Y-49793000D02*
G75*
G02*
X77084001Y-49793000I1353310J0D01*
G01*
X83815000Y-60588000D02*
X72639000Y-60588000D01*
X83815000Y-46618000D02*
X83815000Y-60588000D01*
X72639000Y-60588000D02*
X72639000Y-46618000D01*
X72639000Y-46618000D02*
X83815000Y-46618000D01*
%TO.C,R6*%
X62830000Y-42440000D02*
X62830000Y-42770000D01*
X62830000Y-45180000D02*
X62830000Y-44850000D01*
X69370000Y-42440000D02*
X62830000Y-42440000D01*
X69370000Y-42770000D02*
X69370000Y-42440000D01*
X69370000Y-44850000D02*
X69370000Y-45180000D01*
X69370000Y-45180000D02*
X62830000Y-45180000D01*
%TO.C,R7*%
X73330000Y-42440000D02*
X73330000Y-42770000D01*
X73330000Y-45180000D02*
X73330000Y-44850000D01*
X79870000Y-42440000D02*
X73330000Y-42440000D01*
X79870000Y-42770000D02*
X79870000Y-42440000D01*
X79870000Y-44850000D02*
X79870000Y-45180000D01*
X79870000Y-45180000D02*
X73330000Y-45180000D01*
%TO.C,R8*%
X94950000Y-64200000D02*
X94950000Y-64530000D01*
X94950000Y-66940000D02*
X94950000Y-66610000D01*
X101490000Y-64200000D02*
X94950000Y-64200000D01*
X101490000Y-64530000D02*
X101490000Y-64200000D01*
X101490000Y-66610000D02*
X101490000Y-66940000D01*
X101490000Y-66940000D02*
X94950000Y-66940000D01*
%TD*%
M02*
