%TF.GenerationSoftware,KiCad,Pcbnew,9.0.6-1.fc42*%
%TF.CreationDate,2026-01-11T17:24:36+03:00*%
%TF.ProjectId,eink-environment-clock,65696e6b-2d65-46e7-9669-726f6e6d656e,rev?*%
%TF.SameCoordinates,Original*%
%TF.FileFunction,Copper,L1,Top*%
%TF.FilePolarity,Positive*%
%FSLAX46Y46*%
G04 Gerber Fmt 4.6, Leading zero omitted, Abs format (unit mm)*
G04 Created by KiCad (PCBNEW 9.0.6-1.fc42) date 2026-01-11 17:24:36*
%MOMM*%
%LPD*%
G01*
G04 APERTURE LIST*
G04 Aperture macros list*
%AMRoundRect*
0 Rectangle with rounded corners*
0 $1 Rounding radius*
0 $2 $3 $4 $5 $6 $7 $8 $9 X,Y pos of 4 corners*
0 Add a 4 corners polygon primitive as box body*
4,1,4,$2,$3,$4,$5,$6,$7,$8,$9,$2,$3,0*
0 Add four circle primitives for the rounded corners*
1,1,$1+$1,$2,$3*
1,1,$1+$1,$4,$5*
1,1,$1+$1,$6,$7*
1,1,$1+$1,$8,$9*
0 Add four rect primitives between the rounded corners*
20,1,$1+$1,$2,$3,$4,$5,0*
20,1,$1+$1,$4,$5,$6,$7,0*
20,1,$1+$1,$6,$7,$8,$9,0*
20,1,$1+$1,$8,$9,$2,$3,0*%
G04 Aperture macros list end*
%TA.AperFunction,ComponentPad*%
%ADD10C,1.600000*%
%TD*%
%TA.AperFunction,ComponentPad*%
%ADD11O,1.200000X1.750000*%
%TD*%
%TA.AperFunction,ComponentPad*%
%ADD12RoundRect,0.250000X0.350000X0.625000X-0.350000X0.625000X-0.350000X-0.625000X0.350000X-0.625000X0*%
%TD*%
%TA.AperFunction,ComponentPad*%
%ADD13C,1.778000*%
%TD*%
%TA.AperFunction,ComponentPad*%
%ADD14R,1.778000X1.778000*%
%TD*%
%TA.AperFunction,ComponentPad*%
%ADD15RoundRect,0.250000X-0.350000X-0.625000X0.350000X-0.625000X0.350000X0.625000X-0.350000X0.625000X0*%
%TD*%
%TA.AperFunction,ComponentPad*%
%ADD16O,1.700000X1.700000*%
%TD*%
%TA.AperFunction,ComponentPad*%
%ADD17R,1.700000X1.700000*%
%TD*%
%TA.AperFunction,ComponentPad*%
%ADD18RoundRect,0.250000X0.550000X-0.550000X0.550000X0.550000X-0.550000X0.550000X-0.550000X-0.550000X0*%
%TD*%
%TA.AperFunction,ComponentPad*%
%ADD19C,1.348000*%
%TD*%
%TA.AperFunction,ComponentPad*%
%ADD20RoundRect,0.250000X-0.550000X-0.550000X0.550000X-0.550000X0.550000X0.550000X-0.550000X0.550000X0*%
%TD*%
%TA.AperFunction,ComponentPad*%
%ADD21C,1.800000*%
%TD*%
%TA.AperFunction,ComponentPad*%
%ADD22R,1.800000X1.800000*%
%TD*%
%TA.AperFunction,ComponentPad*%
%ADD23C,1.524000*%
%TD*%
%TA.AperFunction,Conductor*%
%ADD24C,0.500000*%
%TD*%
%TA.AperFunction,Conductor*%
%ADD25C,0.250000*%
%TD*%
G04 APERTURE END LIST*
D10*
%TO.P,R2,2*%
%TO.N,+3.3V*%
X86410000Y-51710000D03*
%TO.P,R2,1*%
%TO.N,I2C_SCL*%
X94030000Y-51710000D03*
%TD*%
%TO.P,R3,2*%
%TO.N,SPI_SCK*%
X104580000Y-62310000D03*
%TO.P,R3,1*%
%TO.N,Net-(U1-GPIO4)*%
X112200000Y-62310000D03*
%TD*%
%TO.P,R4,2*%
%TO.N,SPI_MOSI*%
X110975000Y-38310000D03*
%TO.P,R4,1*%
%TO.N,Net-(U1-GPIO6)*%
X118595000Y-38310000D03*
%TD*%
%TO.P,C2,2*%
%TO.N,+3.3V*%
X114870000Y-64340000D03*
%TO.P,C2,1*%
%TO.N,GND*%
X117370000Y-64340000D03*
%TD*%
D11*
%TO.P,J2,8,Pin_8*%
%TO.N,+3.3V*%
X86410000Y-35810000D03*
%TO.P,J2,7,Pin_7*%
%TO.N,GND*%
X88410000Y-35810000D03*
%TO.P,J2,6,Pin_6*%
%TO.N,SPI_MOSI*%
X90410000Y-35810000D03*
%TO.P,J2,5,Pin_5*%
%TO.N,SPI_SCK*%
X92410000Y-35810000D03*
%TO.P,J2,4,Pin_4*%
%TO.N,EPD_CS*%
X94410000Y-35810000D03*
%TO.P,J2,3,Pin_3*%
%TO.N,EPD_DC*%
X96410000Y-35810000D03*
%TO.P,J2,2,Pin_2*%
%TO.N,EPD_RST*%
X98410000Y-35810000D03*
D12*
%TO.P,J2,1,Pin_1*%
%TO.N,EPD_BUSY*%
X100410000Y-35810000D03*
%TD*%
D13*
%TO.P,U4,AOT*%
%TO.N,N/C*%
X45740000Y-36310000D03*
%TO.P,U4,GND,GND*%
%TO.N,GND*%
X43200000Y-36310000D03*
%TO.P,U4,HD,HD*%
%TO.N,unconnected-(U4-PadHD)*%
X50820000Y-65799400D03*
%TO.P,U4,PWM,PWM*%
%TO.N,unconnected-(U4-PadPWM)*%
X48280000Y-36310000D03*
%TO.P,U4,RX,RX*%
%TO.N,UART_TX*%
X43200000Y-65799400D03*
%TO.P,U4,SR*%
%TO.N,N/C*%
X48280000Y-65799400D03*
%TO.P,U4,TX,TX*%
%TO.N,UART_RX*%
X45740000Y-65799400D03*
D14*
%TO.P,U4,VIN,VIN*%
%TO.N,+5V*%
X40660000Y-36310000D03*
D13*
%TO.P,U4,VO,VO*%
%TO.N,unconnected-(U4-PadVO)*%
X40660000Y-65799400D03*
%TD*%
D10*
%TO.P,C1,2*%
%TO.N,+3.3V*%
X114870000Y-61290000D03*
%TO.P,C1,1*%
%TO.N,GND*%
X117370000Y-61290000D03*
%TD*%
%TO.P,R5,2*%
%TO.N,D1_LED_STATUS*%
X102030000Y-62310000D03*
%TO.P,R5,1*%
%TO.N,Net-(D1-A)*%
X94410000Y-62310000D03*
%TD*%
D11*
%TO.P,J1,2,Pin_2*%
%TO.N,+5V*%
X90410000Y-62810000D03*
D15*
%TO.P,J1,1,Pin_1*%
%TO.N,GND*%
X88410000Y-62810000D03*
%TD*%
D10*
%TO.P,C3,2*%
%TO.N,GND*%
X76800000Y-62310000D03*
%TO.P,C3,1*%
%TO.N,+3.3V*%
X74300000Y-62310000D03*
%TD*%
D16*
%TO.P,U3,5,GND*%
%TO.N,GND*%
X59910000Y-58810000D03*
%TO.P,U3,4,NC*%
%TO.N,unconnected-(U3-NC-Pad4)*%
X62450000Y-58810000D03*
%TO.P,U3,3,SCL*%
%TO.N,I2C_SCL*%
X64990000Y-58810000D03*
%TO.P,U3,2,SDA*%
%TO.N,I2C_SDA*%
X67530000Y-58810000D03*
D17*
%TO.P,U3,1,VCC*%
%TO.N,+3.3V*%
X70070000Y-58810000D03*
%TD*%
D10*
%TO.P,R1,2*%
%TO.N,I2C_SDA*%
X94030000Y-56210000D03*
%TO.P,R1,1*%
%TO.N,+3.3V*%
X86410000Y-56210000D03*
%TD*%
%TO.P,C8,2*%
%TO.N,+3.3V*%
X86410000Y-39810000D03*
%TO.P,C8,1*%
%TO.N,GND*%
X88910000Y-39810000D03*
%TD*%
%TO.P,C5,2*%
%TO.N,GND*%
X63410000Y-34810000D03*
D18*
%TO.P,C5,1*%
%TO.N,+5V*%
X63410000Y-38310000D03*
%TD*%
D19*
%TO.P,U1,G,GND*%
%TO.N,GND*%
X118770000Y-57180000D03*
%TO.P,U1,21,GPIO21*%
%TO.N,unconnected-(U1-GPIO21-Pad21)*%
X103530000Y-41940000D03*
%TO.P,U1,20,GPIO20*%
%TO.N,unconnected-(U1-GPIO20-Pad20)*%
X106070000Y-41940000D03*
%TO.P,U1,10,GPIO10*%
%TO.N,EPD_BUSY*%
X108610000Y-41940000D03*
%TO.P,U1,9,GPIO9*%
%TO.N,I2C_SCL*%
X111150000Y-41940000D03*
%TO.P,U1,8,GPIO8*%
%TO.N,I2C_SDA*%
X113690000Y-41940000D03*
%TO.P,U1,7,GPIO7*%
%TO.N,EPD_CS*%
X116230000Y-41940000D03*
%TO.P,U1,6,GPIO6*%
%TO.N,Net-(U1-GPIO6)*%
X118770000Y-41940000D03*
%TO.P,U1,5V,5V*%
%TO.N,+5V*%
X121310000Y-57180000D03*
%TO.P,U1,5,GPIO5*%
%TO.N,Net-(U1-GPIO5)*%
X121310000Y-41940000D03*
%TO.P,U1,4,GPIO4*%
%TO.N,Net-(U1-GPIO4)*%
X113690000Y-57180000D03*
%TO.P,U1,3.3,3V3*%
%TO.N,+3.3V*%
X116230000Y-57180000D03*
%TO.P,U1,3,GPIO3*%
%TO.N,EPD_RST*%
X111150000Y-57180000D03*
%TO.P,U1,2,GPIO2*%
%TO.N,EPD_DC*%
X108610000Y-57180000D03*
%TO.P,U1,1,GPIO1*%
%TO.N,Net-(U1-GPIO1)*%
X106070000Y-57180000D03*
%TO.P,U1,0,GPIO0*%
%TO.N,D1_LED_STATUS*%
X103530000Y-57180000D03*
%TD*%
D10*
%TO.P,C6,2*%
%TO.N,+5V*%
X40660000Y-33310000D03*
%TO.P,C6,1*%
%TO.N,GND*%
X43160000Y-33310000D03*
%TD*%
%TO.P,C4,2*%
%TO.N,GND*%
X67560000Y-62060000D03*
%TO.P,C4,1*%
%TO.N,+3.3V*%
X70060000Y-62060000D03*
%TD*%
%TO.P,C7,2*%
%TO.N,GND*%
X88910000Y-45560000D03*
D20*
%TO.P,C7,1*%
%TO.N,+3.3V*%
X86410000Y-45560000D03*
%TD*%
D21*
%TO.P,D1,2,A*%
%TO.N,Net-(D1-A)*%
X79575000Y-35810000D03*
D22*
%TO.P,D1,1,K*%
%TO.N,GND*%
X77035000Y-35810000D03*
%TD*%
D23*
%TO.P,U2,4,SDA*%
%TO.N,I2C_SDA*%
X81910000Y-58810000D03*
%TO.P,U2,3,SCL*%
%TO.N,I2C_SCL*%
X79370000Y-58810000D03*
%TO.P,U2,2,GND*%
%TO.N,GND*%
X76830000Y-58810000D03*
%TO.P,U2,1,VIN*%
%TO.N,+3.3V*%
X74290000Y-58810000D03*
%TD*%
D10*
%TO.P,R6,2*%
%TO.N,UART_RX*%
X62290000Y-43810000D03*
%TO.P,R6,1*%
%TO.N,Net-(U1-GPIO5)*%
X69910000Y-43810000D03*
%TD*%
%TO.P,R7,2*%
%TO.N,Net-(U1-GPIO5)*%
X72790000Y-43810000D03*
%TO.P,R7,1*%
%TO.N,GND*%
X80410000Y-43810000D03*
%TD*%
%TO.P,R8,2*%
%TO.N,UART_TX*%
X94410000Y-65570000D03*
%TO.P,R8,1*%
%TO.N,Net-(U1-GPIO1)*%
X102030000Y-65570000D03*
%TD*%
D24*
%TO.N,I2C_SCL*%
X81070000Y-56250000D02*
X82530000Y-57710000D01*
X66480000Y-60300000D02*
X77880000Y-60300000D01*
%TO.N,Net-(U1-GPIO5)*%
X121310000Y-38260000D02*
X115220000Y-32170000D01*
%TO.N,I2C_SCL*%
X90200000Y-57710000D02*
X94030000Y-53880000D01*
%TO.N,EPD_DC*%
X96410000Y-44980000D02*
X108610000Y-57180000D01*
X96410000Y-35810000D02*
X96410000Y-44980000D01*
%TO.N,EPD_CS*%
X94410000Y-35810000D02*
X96200000Y-34020000D01*
X108640000Y-40240000D02*
X114530000Y-40240000D01*
X96200000Y-34020000D02*
X102420000Y-34020000D01*
%TO.N,I2C_SDA*%
X67530000Y-58810000D02*
X69070000Y-57270000D01*
%TO.N,EPD_CS*%
X102420000Y-34020000D02*
X108640000Y-40240000D01*
X114530000Y-40240000D02*
X116230000Y-41940000D01*
%TO.N,SPI_MOSI*%
X90410000Y-35810000D02*
X93150000Y-33070000D01*
X108530000Y-38310000D02*
X110975000Y-38310000D01*
X93150000Y-33070000D02*
X103290000Y-33070000D01*
X103290000Y-33070000D02*
X108530000Y-38310000D01*
%TO.N,D1_LED_STATUS*%
X102030000Y-62310000D02*
X102030000Y-58680000D01*
X102030000Y-58680000D02*
X103530000Y-57180000D01*
%TO.N,EPD_BUSY*%
X102480000Y-35810000D02*
X108610000Y-41940000D01*
X100410000Y-35810000D02*
X102480000Y-35810000D01*
%TO.N,EPD_RST*%
X98410000Y-35810000D02*
X98410000Y-44440000D01*
X98410000Y-44440000D02*
X111150000Y-57180000D01*
D25*
%TO.N,SPI_SCK*%
X104750000Y-62140000D02*
X104580000Y-62310000D01*
D24*
X92410000Y-43380000D02*
X104750000Y-55720000D01*
X92410000Y-35810000D02*
X92410000Y-43380000D01*
%TO.N,I2C_SDA*%
X81910000Y-58810000D02*
X91430000Y-58810000D01*
X91430000Y-58810000D02*
X94030000Y-56210000D01*
%TO.N,Net-(D1-A)*%
X95950000Y-60770000D02*
X94410000Y-62310000D01*
X95950000Y-51030000D02*
X95950000Y-60770000D01*
%TO.N,Net-(U1-GPIO4)*%
X112200000Y-58670000D02*
X113690000Y-57180000D01*
X112200000Y-62310000D02*
X112200000Y-58670000D01*
%TO.N,Net-(U1-GPIO6)*%
X118595000Y-38310000D02*
X118595000Y-41765000D01*
D25*
X118595000Y-41765000D02*
X118770000Y-41940000D01*
D24*
%TO.N,Net-(D1-A)*%
X79575000Y-35810000D02*
X80730000Y-35810000D01*
%TO.N,I2C_SCL*%
X67550000Y-56250000D02*
X81070000Y-56250000D01*
%TO.N,Net-(D1-A)*%
X87820818Y-42990000D02*
X89690000Y-42990000D01*
X95950000Y-49260000D02*
X95950000Y-51030000D01*
%TO.N,SPI_SCK*%
X104750000Y-55720000D02*
X104810000Y-55780000D01*
%TO.N,I2C_SCL*%
X64990000Y-58810000D02*
X67550000Y-56250000D01*
%TO.N,I2C_SDA*%
X80370000Y-57270000D02*
X81910000Y-58810000D01*
%TO.N,Net-(D1-A)*%
X90999000Y-44299000D02*
X90999000Y-44309000D01*
%TO.N,I2C_SCL*%
X77880000Y-60300000D02*
X79370000Y-58810000D01*
%TO.N,SPI_SCK*%
X104810000Y-55780000D02*
X104810000Y-62080000D01*
%TO.N,Net-(D1-A)*%
X89690000Y-42990000D02*
X90999000Y-44299000D01*
%TO.N,I2C_SCL*%
X64990000Y-58810000D02*
X66480000Y-60300000D01*
%TO.N,I2C_SDA*%
X69070000Y-57270000D02*
X80370000Y-57270000D01*
%TO.N,Net-(D1-A)*%
X80730000Y-35899182D02*
X87820818Y-42990000D01*
X80730000Y-35810000D02*
X80730000Y-35899182D01*
%TO.N,SPI_SCK*%
X104810000Y-62080000D02*
X104750000Y-62140000D01*
%TO.N,UART_TX*%
X43200000Y-65799400D02*
X44850600Y-67450000D01*
%TO.N,I2C_SCL*%
X94030000Y-53880000D02*
X94030000Y-51710000D01*
%TO.N,Net-(U1-GPIO5)*%
X115220000Y-32170000D02*
X76720000Y-32170000D01*
%TO.N,UART_RX*%
X62290000Y-49249400D02*
X45740000Y-65799400D01*
%TO.N,Net-(U1-GPIO1)*%
X102030000Y-65570000D02*
X104550000Y-65570000D01*
%TO.N,Net-(D1-A)*%
X90999000Y-44309000D02*
X95950000Y-49260000D01*
%TO.N,I2C_SCL*%
X82530000Y-57710000D02*
X90200000Y-57710000D01*
%TO.N,Net-(U1-GPIO1)*%
X104550000Y-65570000D02*
X106070000Y-64050000D01*
X106070000Y-64050000D02*
X106070000Y-57180000D01*
%TO.N,UART_TX*%
X44850600Y-67450000D02*
X92530000Y-67450000D01*
%TO.N,UART_RX*%
X62290000Y-43810000D02*
X62290000Y-49249400D01*
%TO.N,Net-(U1-GPIO5)*%
X72790000Y-43810000D02*
X71260000Y-43810000D01*
X76720000Y-32170000D02*
X71260000Y-37630000D01*
X71260000Y-37630000D02*
X71260000Y-43810000D01*
X71260000Y-43810000D02*
X69910000Y-43810000D01*
X121310000Y-41940000D02*
X121310000Y-38260000D01*
%TO.N,UART_TX*%
X92530000Y-67450000D02*
X94410000Y-65570000D01*
%TD*%
%TA.AperFunction,Conductor*%
%TO.N,GND*%
G36*
X76313733Y-31330185D02*
G01*
X76359488Y-31382989D01*
X76369432Y-31452147D01*
X76340407Y-31515703D01*
X76315628Y-31537573D01*
X76315314Y-31537783D01*
X76315270Y-31537812D01*
X76241588Y-31587044D01*
X76241580Y-31587050D01*
X70677048Y-37151583D01*
X70661404Y-37174998D01*
X70634543Y-37215199D01*
X70594919Y-37274499D01*
X70594912Y-37274511D01*
X70538343Y-37411082D01*
X70538340Y-37411092D01*
X70509500Y-37556079D01*
X70509500Y-42466691D01*
X70489815Y-42533730D01*
X70437011Y-42579485D01*
X70367853Y-42589429D01*
X70347182Y-42584622D01*
X70214537Y-42541523D01*
X70062897Y-42517505D01*
X70012352Y-42509500D01*
X69807648Y-42509500D01*
X69783329Y-42513351D01*
X69605465Y-42541522D01*
X69410776Y-42604781D01*
X69228386Y-42697715D01*
X69062786Y-42818028D01*
X68918028Y-42962786D01*
X68797715Y-43128386D01*
X68704781Y-43310776D01*
X68641522Y-43505465D01*
X68609500Y-43707648D01*
X68609500Y-43912351D01*
X68641522Y-44114534D01*
X68704781Y-44309223D01*
X68797715Y-44491613D01*
X68918028Y-44657213D01*
X69062784Y-44801969D01*
X69184535Y-44890425D01*
X69228390Y-44922287D01*
X69344607Y-44981503D01*
X69410776Y-45015218D01*
X69410778Y-45015218D01*
X69410781Y-45015220D01*
X69515137Y-45049127D01*
X69605465Y-45078477D01*
X69706557Y-45094488D01*
X69807648Y-45110500D01*
X69807649Y-45110500D01*
X70012351Y-45110500D01*
X70012352Y-45110500D01*
X70214534Y-45078477D01*
X70409219Y-45015220D01*
X70591610Y-44922287D01*
X70682137Y-44856516D01*
X70757216Y-44801969D01*
X70757216Y-44801967D01*
X70757219Y-44801966D01*
X70901966Y-44657219D01*
X70911477Y-44644128D01*
X70935100Y-44611615D01*
X70990429Y-44568949D01*
X71035418Y-44560500D01*
X71186082Y-44560500D01*
X71333918Y-44560500D01*
X71664582Y-44560500D01*
X71731621Y-44580185D01*
X71764900Y-44611615D01*
X71798028Y-44657212D01*
X71798032Y-44657217D01*
X71942784Y-44801969D01*
X72064535Y-44890425D01*
X72108390Y-44922287D01*
X72224607Y-44981503D01*
X72290776Y-45015218D01*
X72290778Y-45015218D01*
X72290781Y-45015220D01*
X72395137Y-45049127D01*
X72485465Y-45078477D01*
X72586557Y-45094488D01*
X72687648Y-45110500D01*
X72687649Y-45110500D01*
X72892351Y-45110500D01*
X72892352Y-45110500D01*
X73094534Y-45078477D01*
X73289219Y-45015220D01*
X73397628Y-44959983D01*
X85109500Y-44959983D01*
X85109500Y-46160001D01*
X85109501Y-46160018D01*
X85120000Y-46262796D01*
X85120001Y-46262799D01*
X85175185Y-46429331D01*
X85175186Y-46429334D01*
X85267288Y-46578656D01*
X85391344Y-46702712D01*
X85540666Y-46794814D01*
X85707203Y-46849999D01*
X85809991Y-46860500D01*
X87010008Y-46860499D01*
X87112797Y-46849999D01*
X87279334Y-46794814D01*
X87428656Y-46702712D01*
X87552712Y-46578656D01*
X87644814Y-46429334D01*
X87699999Y-46262797D01*
X87710500Y-46160009D01*
X87710499Y-44959992D01*
X87706252Y-44918421D01*
X87699999Y-44857203D01*
X87699998Y-44857200D01*
X87681696Y-44801969D01*
X87644814Y-44690666D01*
X87552712Y-44541344D01*
X87428656Y-44417288D01*
X87279334Y-44325186D01*
X87112797Y-44270001D01*
X87112795Y-44270000D01*
X87010010Y-44259500D01*
X85809998Y-44259500D01*
X85809981Y-44259501D01*
X85707203Y-44270000D01*
X85707200Y-44270001D01*
X85540668Y-44325185D01*
X85540663Y-44325187D01*
X85391342Y-44417289D01*
X85267289Y-44541342D01*
X85175187Y-44690663D01*
X85175185Y-44690668D01*
X85155976Y-44748639D01*
X85120001Y-44857203D01*
X85120001Y-44857204D01*
X85120000Y-44857204D01*
X85109500Y-44959983D01*
X73397628Y-44959983D01*
X73471610Y-44922287D01*
X73515465Y-44890425D01*
X73562138Y-44856516D01*
X73637216Y-44801969D01*
X73637216Y-44801967D01*
X73637219Y-44801966D01*
X73781966Y-44657219D01*
X73781968Y-44657215D01*
X73781971Y-44657213D01*
X73866155Y-44541342D01*
X73902287Y-44491610D01*
X73995220Y-44309219D01*
X74058477Y-44114534D01*
X74090500Y-43912352D01*
X74090500Y-43707648D01*
X74076964Y-43622186D01*
X74058477Y-43505465D01*
X73995218Y-43310776D01*
X73961503Y-43244607D01*
X73902287Y-43128390D01*
X73841068Y-43044128D01*
X73781971Y-42962786D01*
X73637213Y-42818028D01*
X73471613Y-42697715D01*
X73471612Y-42697714D01*
X73471610Y-42697713D01*
X73414514Y-42668621D01*
X73289223Y-42604781D01*
X73094534Y-42541522D01*
X72919995Y-42513878D01*
X72892352Y-42509500D01*
X72687648Y-42509500D01*
X72663329Y-42513351D01*
X72485465Y-42541522D01*
X72333759Y-42590815D01*
X72290781Y-42604780D01*
X72290778Y-42604781D01*
X72290776Y-42604782D01*
X72190795Y-42655725D01*
X72122125Y-42668621D01*
X72057385Y-42642344D01*
X72017128Y-42585238D01*
X72010500Y-42545240D01*
X72010500Y-37992230D01*
X72030185Y-37925191D01*
X72046819Y-37904549D01*
X76994549Y-32956819D01*
X77055872Y-32923334D01*
X77082230Y-32920500D01*
X91938771Y-32920500D01*
X92005810Y-32940185D01*
X92051565Y-32992989D01*
X92061509Y-33062147D01*
X92032484Y-33125703D01*
X92026455Y-33132177D01*
X91762537Y-33396095D01*
X90737698Y-34420932D01*
X90676375Y-34454417D01*
X90630620Y-34455724D01*
X90496611Y-34434500D01*
X90323389Y-34434500D01*
X90283728Y-34440781D01*
X90152302Y-34461597D01*
X89987552Y-34515128D01*
X89833211Y-34593768D01*
X89753256Y-34651859D01*
X89693072Y-34695586D01*
X89693070Y-34695588D01*
X89693069Y-34695588D01*
X89570588Y-34818069D01*
X89570588Y-34818070D01*
X89570586Y-34818072D01*
X89536007Y-34865666D01*
X89468768Y-34958211D01*
X89390128Y-35112552D01*
X89390127Y-35112554D01*
X89390127Y-35112555D01*
X89379612Y-35144916D01*
X89336597Y-35277302D01*
X89328000Y-35331584D01*
X89309500Y-35448389D01*
X89309500Y-36171611D01*
X89336598Y-36342701D01*
X89390127Y-36507445D01*
X89468768Y-36661788D01*
X89570586Y-36801928D01*
X89693072Y-36924414D01*
X89833212Y-37026232D01*
X89987555Y-37104873D01*
X90152299Y-37158402D01*
X90323389Y-37185500D01*
X90323390Y-37185500D01*
X90496610Y-37185500D01*
X90496611Y-37185500D01*
X90667701Y-37158402D01*
X90832445Y-37104873D01*
X90986788Y-37026232D01*
X91126928Y-36924414D01*
X91249414Y-36801928D01*
X91309682Y-36718975D01*
X91328773Y-36704254D01*
X91344893Y-36686330D01*
X91355940Y-36683305D01*
X91365012Y-36676311D01*
X91389031Y-36674248D01*
X91412284Y-36667883D01*
X91423213Y-36671312D01*
X91434626Y-36670332D01*
X91455947Y-36681582D01*
X91478949Y-36688799D01*
X91490276Y-36699695D01*
X91496421Y-36702938D01*
X91505192Y-36712399D01*
X91507869Y-36715606D01*
X91570586Y-36801928D01*
X91627120Y-36858462D01*
X91630692Y-36862741D01*
X91642485Y-36889877D01*
X91656666Y-36915846D01*
X91657617Y-36924691D01*
X91658542Y-36926820D01*
X91658122Y-36929396D01*
X91659500Y-36942204D01*
X91659500Y-43453918D01*
X91659500Y-43453920D01*
X91659499Y-43453920D01*
X91689530Y-43604887D01*
X91687574Y-43605275D01*
X91688109Y-43665986D01*
X91650853Y-43725095D01*
X91587556Y-43754678D01*
X91518312Y-43745343D01*
X91481148Y-43719781D01*
X90168421Y-42407052D01*
X90168420Y-42407051D01*
X90079969Y-42347951D01*
X90045495Y-42324916D01*
X90045493Y-42324915D01*
X90045490Y-42324913D01*
X89908917Y-42268343D01*
X89908907Y-42268340D01*
X89763920Y-42239500D01*
X89763918Y-42239500D01*
X88183048Y-42239500D01*
X88116009Y-42219815D01*
X88095367Y-42203181D01*
X87028700Y-41136514D01*
X86995215Y-41075191D01*
X87000199Y-41005499D01*
X87042071Y-40949566D01*
X87060082Y-40938351D01*
X87091610Y-40922287D01*
X87091609Y-40922287D01*
X87091612Y-40922286D01*
X87257213Y-40801971D01*
X87257215Y-40801968D01*
X87257219Y-40801966D01*
X87401966Y-40657219D01*
X87401968Y-40657215D01*
X87401971Y-40657213D01*
X87477090Y-40553819D01*
X87522287Y-40491610D01*
X87615220Y-40309219D01*
X87678477Y-40114534D01*
X87710500Y-39912352D01*
X87710500Y-39707648D01*
X87684709Y-39544812D01*
X87678477Y-39505465D01*
X87636570Y-39376489D01*
X87615220Y-39310781D01*
X87615218Y-39310778D01*
X87615218Y-39310776D01*
X87572788Y-39227504D01*
X87522287Y-39128390D01*
X87514556Y-39117749D01*
X87401971Y-38962786D01*
X87257213Y-38818028D01*
X87091613Y-38697715D01*
X87091612Y-38697714D01*
X87091610Y-38697713D01*
X87034653Y-38668691D01*
X86909223Y-38604781D01*
X86714534Y-38541522D01*
X86539995Y-38513878D01*
X86512352Y-38509500D01*
X86307648Y-38509500D01*
X86283329Y-38513351D01*
X86105465Y-38541522D01*
X85910776Y-38604781D01*
X85728386Y-38697715D01*
X85562786Y-38818028D01*
X85418028Y-38962786D01*
X85297713Y-39128388D01*
X85281650Y-39159914D01*
X85233676Y-39210709D01*
X85165854Y-39227504D01*
X85099720Y-39204966D01*
X85083485Y-39191299D01*
X81446743Y-35554557D01*
X81442110Y-35547623D01*
X81437871Y-35544680D01*
X81419862Y-35514326D01*
X81410187Y-35490967D01*
X81395085Y-35454508D01*
X81395084Y-35454505D01*
X81390997Y-35448389D01*
X85309500Y-35448389D01*
X85309500Y-36171611D01*
X85336598Y-36342701D01*
X85390127Y-36507445D01*
X85468768Y-36661788D01*
X85570586Y-36801928D01*
X85693072Y-36924414D01*
X85833212Y-37026232D01*
X85987555Y-37104873D01*
X86152299Y-37158402D01*
X86323389Y-37185500D01*
X86323390Y-37185500D01*
X86496610Y-37185500D01*
X86496611Y-37185500D01*
X86667701Y-37158402D01*
X86832445Y-37104873D01*
X86986788Y-37026232D01*
X87126928Y-36924414D01*
X87249414Y-36801928D01*
X87351232Y-36661788D01*
X87429873Y-36507445D01*
X87483402Y-36342701D01*
X87510500Y-36171611D01*
X87510500Y-35448389D01*
X87483402Y-35277299D01*
X87429873Y-35112555D01*
X87351232Y-34958212D01*
X87249414Y-34818072D01*
X87126928Y-34695586D01*
X86986788Y-34593768D01*
X86940653Y-34570261D01*
X86832447Y-34515128D01*
X86832446Y-34515127D01*
X86832445Y-34515127D01*
X86667701Y-34461598D01*
X86667699Y-34461597D01*
X86667698Y-34461597D01*
X86536271Y-34440781D01*
X86496611Y-34434500D01*
X86323389Y-34434500D01*
X86283728Y-34440781D01*
X86152302Y-34461597D01*
X85987552Y-34515128D01*
X85833211Y-34593768D01*
X85753256Y-34651859D01*
X85693072Y-34695586D01*
X85693070Y-34695588D01*
X85693069Y-34695588D01*
X85570588Y-34818069D01*
X85570588Y-34818070D01*
X85570586Y-34818072D01*
X85536007Y-34865666D01*
X85468768Y-34958211D01*
X85390128Y-35112552D01*
X85390127Y-35112554D01*
X85390127Y-35112555D01*
X85379612Y-35144916D01*
X85336597Y-35277302D01*
X85328000Y-35331584D01*
X85309500Y-35448389D01*
X81390997Y-35448389D01*
X81312954Y-35331588D01*
X81312948Y-35331580D01*
X81208419Y-35227051D01*
X81208415Y-35227048D01*
X81085501Y-35144919D01*
X81085488Y-35144912D01*
X80948917Y-35088343D01*
X80948907Y-35088340D01*
X80801165Y-35058952D01*
X80739254Y-35026567D01*
X80725041Y-35010222D01*
X80693943Y-34967420D01*
X80643245Y-34897638D01*
X80487363Y-34741756D01*
X80487358Y-34741752D01*
X80309025Y-34612187D01*
X80309024Y-34612186D01*
X80309022Y-34612185D01*
X80242867Y-34578477D01*
X80112606Y-34512104D01*
X80112603Y-34512103D01*
X79902952Y-34443985D01*
X79794086Y-34426742D01*
X79685222Y-34409500D01*
X79464778Y-34409500D01*
X79392599Y-34420932D01*
X79247047Y-34443985D01*
X79037396Y-34512103D01*
X79037393Y-34512104D01*
X78840974Y-34612187D01*
X78662641Y-34741752D01*
X78662636Y-34741756D01*
X78506756Y-34897636D01*
X78506752Y-34897641D01*
X78377187Y-35075974D01*
X78277104Y-35272393D01*
X78277103Y-35272396D01*
X78208985Y-35482047D01*
X78188640Y-35610499D01*
X78174500Y-35699778D01*
X78174500Y-35920222D01*
X78191742Y-36029086D01*
X78208985Y-36137952D01*
X78277103Y-36347603D01*
X78277104Y-36347606D01*
X78377187Y-36544025D01*
X78506752Y-36722358D01*
X78506756Y-36722363D01*
X78662636Y-36878243D01*
X78662641Y-36878247D01*
X78809255Y-36984767D01*
X78840978Y-37007815D01*
X78951305Y-37064030D01*
X79037393Y-37107895D01*
X79037396Y-37107896D01*
X79074071Y-37119812D01*
X79247049Y-37176015D01*
X79464778Y-37210500D01*
X79464779Y-37210500D01*
X79685221Y-37210500D01*
X79685222Y-37210500D01*
X79902951Y-37176015D01*
X80112606Y-37107895D01*
X80309022Y-37007815D01*
X80487365Y-36878242D01*
X80487365Y-36878241D01*
X80491307Y-36875378D01*
X80492061Y-36876417D01*
X80550436Y-36850260D01*
X80619521Y-36860695D01*
X80654889Y-36885439D01*
X87342404Y-43572954D01*
X87371876Y-43592645D01*
X87416088Y-43622186D01*
X87465323Y-43655084D01*
X87465324Y-43655084D01*
X87465325Y-43655085D01*
X87465327Y-43655086D01*
X87592224Y-43707648D01*
X87601905Y-43711658D01*
X87601909Y-43711658D01*
X87601910Y-43711659D01*
X87746897Y-43740500D01*
X87746900Y-43740500D01*
X87746901Y-43740500D01*
X87894735Y-43740500D01*
X89327770Y-43740500D01*
X89394809Y-43760185D01*
X89415451Y-43776819D01*
X90387272Y-44748639D01*
X90402692Y-44767428D01*
X90416047Y-44787415D01*
X90416052Y-44787421D01*
X95163181Y-49534548D01*
X95196666Y-49595871D01*
X95199500Y-49622229D01*
X95199500Y-50740953D01*
X95179815Y-50807992D01*
X95127011Y-50853747D01*
X95057853Y-50863691D01*
X94994297Y-50834666D01*
X94987819Y-50828634D01*
X94877213Y-50718028D01*
X94711613Y-50597715D01*
X94711612Y-50597714D01*
X94711610Y-50597713D01*
X94654653Y-50568691D01*
X94529223Y-50504781D01*
X94334534Y-50441522D01*
X94159995Y-50413878D01*
X94132352Y-50409500D01*
X93927648Y-50409500D01*
X93903329Y-50413351D01*
X93725465Y-50441522D01*
X93530776Y-50504781D01*
X93348386Y-50597715D01*
X93182786Y-50718028D01*
X93038028Y-50862786D01*
X92917715Y-51028386D01*
X92824781Y-51210776D01*
X92761522Y-51405465D01*
X92729500Y-51607648D01*
X92729500Y-51812351D01*
X92761522Y-52014534D01*
X92824781Y-52209223D01*
X92917715Y-52391613D01*
X93038028Y-52557213D01*
X93038034Y-52557219D01*
X93182781Y-52701966D01*
X93228384Y-52735098D01*
X93271050Y-52790425D01*
X93279500Y-52835416D01*
X93279500Y-53517770D01*
X93259815Y-53584809D01*
X93243181Y-53605451D01*
X89925451Y-56923181D01*
X89864128Y-56956666D01*
X89837770Y-56959500D01*
X87690045Y-56959500D01*
X87623006Y-56939815D01*
X87577251Y-56887011D01*
X87567307Y-56817853D01*
X87579560Y-56779205D01*
X87615218Y-56709223D01*
X87615218Y-56709222D01*
X87615220Y-56709219D01*
X87678477Y-56514534D01*
X87710500Y-56312352D01*
X87710500Y-56107648D01*
X87698902Y-56034420D01*
X87678477Y-55905465D01*
X87615218Y-55710776D01*
X87551088Y-55584916D01*
X87522287Y-55528390D01*
X87505463Y-55505234D01*
X87401971Y-55362786D01*
X87257213Y-55218028D01*
X87091613Y-55097715D01*
X87091612Y-55097714D01*
X87091610Y-55097713D01*
X87034653Y-55068691D01*
X86909223Y-55004781D01*
X86714534Y-54941522D01*
X86539995Y-54913878D01*
X86512352Y-54909500D01*
X86307648Y-54909500D01*
X86283329Y-54913351D01*
X86105465Y-54941522D01*
X85910776Y-55004781D01*
X85728386Y-55097715D01*
X85562786Y-55218028D01*
X85418028Y-55362786D01*
X85297715Y-55528386D01*
X85204781Y-55710776D01*
X85141522Y-55905465D01*
X85109500Y-56107648D01*
X85109500Y-56312351D01*
X85141522Y-56514534D01*
X85204781Y-56709223D01*
X85240440Y-56779205D01*
X85253336Y-56847874D01*
X85227060Y-56912614D01*
X85169954Y-56952872D01*
X85129955Y-56959500D01*
X82892230Y-56959500D01*
X82825191Y-56939815D01*
X82804549Y-56923181D01*
X81548421Y-55667052D01*
X81548414Y-55667046D01*
X81474729Y-55617812D01*
X81474729Y-55617813D01*
X81425491Y-55584913D01*
X81288917Y-55528343D01*
X81288907Y-55528340D01*
X81143920Y-55499500D01*
X81143918Y-55499500D01*
X67476082Y-55499500D01*
X67476076Y-55499500D01*
X67447242Y-55505234D01*
X67447243Y-55505235D01*
X67331093Y-55528339D01*
X67331089Y-55528340D01*
X67252033Y-55561087D01*
X67194503Y-55584916D01*
X67145269Y-55617813D01*
X67071588Y-55667044D01*
X67071580Y-55667050D01*
X65298806Y-57439824D01*
X65237483Y-57473309D01*
X65191726Y-57474616D01*
X65096291Y-57459500D01*
X65096287Y-57459500D01*
X64883713Y-57459500D01*
X64835042Y-57467208D01*
X64673760Y-57492753D01*
X64471585Y-57558444D01*
X64282179Y-57654951D01*
X64110213Y-57779890D01*
X63959890Y-57930213D01*
X63834949Y-58102182D01*
X63830484Y-58110946D01*
X63782509Y-58161742D01*
X63714688Y-58178536D01*
X63648553Y-58155998D01*
X63609516Y-58110946D01*
X63605050Y-58102182D01*
X63480109Y-57930213D01*
X63329786Y-57779890D01*
X63157820Y-57654951D01*
X62968414Y-57558444D01*
X62968413Y-57558443D01*
X62968412Y-57558443D01*
X62766243Y-57492754D01*
X62766241Y-57492753D01*
X62766240Y-57492753D01*
X62604957Y-57467208D01*
X62556287Y-57459500D01*
X62343713Y-57459500D01*
X62295042Y-57467208D01*
X62133760Y-57492753D01*
X61931585Y-57558444D01*
X61742179Y-57654951D01*
X61570213Y-57779890D01*
X61419890Y-57930213D01*
X61294951Y-58102179D01*
X61198444Y-58291585D01*
X61198443Y-58291587D01*
X61198443Y-58291588D01*
X61187467Y-58325368D01*
X61132753Y-58493760D01*
X61099500Y-58703713D01*
X61099500Y-58916286D01*
X61117863Y-59032229D01*
X61132754Y-59126243D01*
X61194156Y-59315219D01*
X61198444Y-59328414D01*
X61294951Y-59517820D01*
X61419890Y-59689786D01*
X61570213Y-59840109D01*
X61742179Y-59965048D01*
X61742181Y-59965049D01*
X61742184Y-59965051D01*
X61931588Y-60061557D01*
X62133757Y-60127246D01*
X62343713Y-60160500D01*
X62343714Y-60160500D01*
X62556286Y-60160500D01*
X62556287Y-60160500D01*
X62766243Y-60127246D01*
X62968412Y-60061557D01*
X63157816Y-59965051D01*
X63261409Y-59889787D01*
X63329786Y-59840109D01*
X63329788Y-59840106D01*
X63329792Y-59840104D01*
X63480104Y-59689792D01*
X63480106Y-59689788D01*
X63480109Y-59689786D01*
X63605048Y-59517820D01*
X63605047Y-59517820D01*
X63605051Y-59517816D01*
X63609514Y-59509054D01*
X63657488Y-59458259D01*
X63725308Y-59441463D01*
X63791444Y-59463999D01*
X63830484Y-59509054D01*
X63834591Y-59517115D01*
X63834951Y-59517820D01*
X63959890Y-59689786D01*
X64110213Y-59840109D01*
X64282179Y-59965048D01*
X64282181Y-59965049D01*
X64282184Y-59965051D01*
X64471588Y-60061557D01*
X64673757Y-60127246D01*
X64883713Y-60160500D01*
X64883714Y-60160500D01*
X65096284Y-60160500D01*
X65096287Y-60160500D01*
X65191731Y-60145382D01*
X65261020Y-60154336D01*
X65298807Y-60180174D01*
X66001580Y-60882948D01*
X66001584Y-60882951D01*
X66124498Y-60965080D01*
X66124511Y-60965087D01*
X66261082Y-61021656D01*
X66261087Y-61021658D01*
X66261091Y-61021658D01*
X66261092Y-61021659D01*
X66406079Y-61050500D01*
X66406082Y-61050500D01*
X66553917Y-61050500D01*
X68942574Y-61050500D01*
X69009613Y-61070185D01*
X69055368Y-61122989D01*
X69065312Y-61192147D01*
X69042892Y-61247385D01*
X68947715Y-61378386D01*
X68854781Y-61560776D01*
X68791522Y-61755465D01*
X68759500Y-61957648D01*
X68759500Y-62162351D01*
X68791522Y-62364534D01*
X68854781Y-62559223D01*
X68947715Y-62741613D01*
X69068028Y-62907213D01*
X69212786Y-63051971D01*
X69367749Y-63164556D01*
X69378390Y-63172287D01*
X69494607Y-63231503D01*
X69560776Y-63265218D01*
X69560778Y-63265218D01*
X69560781Y-63265220D01*
X69665137Y-63299127D01*
X69755465Y-63328477D01*
X69845246Y-63342697D01*
X69957648Y-63360500D01*
X69957649Y-63360500D01*
X70162351Y-63360500D01*
X70162352Y-63360500D01*
X70364534Y-63328477D01*
X70559219Y-63265220D01*
X70741610Y-63172287D01*
X70880301Y-63071523D01*
X70907213Y-63051971D01*
X70907215Y-63051968D01*
X70907219Y-63051966D01*
X71051966Y-62907219D01*
X71051968Y-62907215D01*
X71051971Y-62907213D01*
X71114233Y-62821515D01*
X71172287Y-62741610D01*
X71265220Y-62559219D01*
X71328477Y-62364534D01*
X71360500Y-62162352D01*
X71360500Y-61957648D01*
X71337237Y-61810776D01*
X71328477Y-61755465D01*
X71265218Y-61560776D01*
X71215286Y-61462781D01*
X71172287Y-61378390D01*
X71163537Y-61366347D01*
X71077108Y-61247385D01*
X71053628Y-61181578D01*
X71069454Y-61113525D01*
X71119560Y-61064830D01*
X71177426Y-61050500D01*
X73439377Y-61050500D01*
X73506416Y-61070185D01*
X73552171Y-61122989D01*
X73562115Y-61192147D01*
X73533090Y-61255703D01*
X73512262Y-61274818D01*
X73452786Y-61318028D01*
X73308028Y-61462786D01*
X73187715Y-61628386D01*
X73094781Y-61810776D01*
X73031522Y-62005465D01*
X72999500Y-62207648D01*
X72999500Y-62412351D01*
X73031522Y-62614534D01*
X73094781Y-62809223D01*
X73187715Y-62991613D01*
X73308028Y-63157213D01*
X73452786Y-63301971D01*
X73607749Y-63414556D01*
X73618390Y-63422287D01*
X73727215Y-63477736D01*
X73800776Y-63515218D01*
X73800778Y-63515218D01*
X73800781Y-63515220D01*
X73842207Y-63528680D01*
X73995465Y-63578477D01*
X74096557Y-63594488D01*
X74197648Y-63610500D01*
X74197649Y-63610500D01*
X74402351Y-63610500D01*
X74402352Y-63610500D01*
X74604534Y-63578477D01*
X74799219Y-63515220D01*
X74981610Y-63422287D01*
X75091157Y-63342697D01*
X75147213Y-63301971D01*
X75147215Y-63301968D01*
X75147219Y-63301966D01*
X75291966Y-63157219D01*
X75291968Y-63157215D01*
X75291971Y-63157213D01*
X75354228Y-63071522D01*
X75412287Y-62991610D01*
X75505220Y-62809219D01*
X75568477Y-62614534D01*
X75594792Y-62448389D01*
X89309500Y-62448389D01*
X89309500Y-63171611D01*
X89336598Y-63342701D01*
X89387069Y-63498035D01*
X89390128Y-63507447D01*
X89394089Y-63515220D01*
X89468768Y-63661788D01*
X89570586Y-63801928D01*
X89693072Y-63924414D01*
X89833212Y-64026232D01*
X89987555Y-64104873D01*
X90152299Y-64158402D01*
X90323389Y-64185500D01*
X90323390Y-64185500D01*
X90496610Y-64185500D01*
X90496611Y-64185500D01*
X90667701Y-64158402D01*
X90832445Y-64104873D01*
X90986788Y-64026232D01*
X91126928Y-63924414D01*
X91249414Y-63801928D01*
X91351232Y-63661788D01*
X91429873Y-63507445D01*
X91483402Y-63342701D01*
X91510500Y-63171611D01*
X91510500Y-62448389D01*
X91483402Y-62277299D01*
X91429873Y-62112555D01*
X91351232Y-61958212D01*
X91249414Y-61818072D01*
X91126928Y-61695586D01*
X90986788Y-61593768D01*
X90832445Y-61515127D01*
X90667701Y-61461598D01*
X90667699Y-61461597D01*
X90667698Y-61461597D01*
X90536271Y-61440781D01*
X90496611Y-61434500D01*
X90323389Y-61434500D01*
X90283728Y-61440781D01*
X90152302Y-61461597D01*
X89987552Y-61515128D01*
X89833211Y-61593768D01*
X89785559Y-61628390D01*
X89693072Y-61695586D01*
X89693070Y-61695588D01*
X89693069Y-61695588D01*
X89570588Y-61818069D01*
X89570588Y-61818070D01*
X89570586Y-61818072D01*
X89526859Y-61878256D01*
X89468768Y-61958211D01*
X89390128Y-62112552D01*
X89336597Y-62277302D01*
X89335858Y-62281971D01*
X89309500Y-62448389D01*
X75594792Y-62448389D01*
X75600500Y-62412352D01*
X75600500Y-62207648D01*
X75568477Y-62005466D01*
X75557477Y-61971613D01*
X75505218Y-61810776D01*
X75446525Y-61695586D01*
X75412287Y-61628390D01*
X75404556Y-61617749D01*
X75291971Y-61462786D01*
X75147213Y-61318028D01*
X75087738Y-61274818D01*
X75045072Y-61219489D01*
X75039093Y-61149875D01*
X75071698Y-61088080D01*
X75132537Y-61053723D01*
X75160623Y-61050500D01*
X77953920Y-61050500D01*
X78066015Y-61028202D01*
X78098913Y-61021658D01*
X78235495Y-60965084D01*
X78284729Y-60932186D01*
X78358416Y-60882952D01*
X79138107Y-60103258D01*
X79199428Y-60069775D01*
X79245183Y-60068468D01*
X79270639Y-60072500D01*
X79270640Y-60072500D01*
X79469360Y-60072500D01*
X79469361Y-60072500D01*
X79665636Y-60041413D01*
X79854632Y-59980005D01*
X80031694Y-59889787D01*
X80192464Y-59772981D01*
X80332981Y-59632464D01*
X80449787Y-59471694D01*
X80529515Y-59315218D01*
X80577490Y-59264423D01*
X80645311Y-59247628D01*
X80711446Y-59270165D01*
X80750484Y-59315218D01*
X80830213Y-59471694D01*
X80947019Y-59632464D01*
X81087536Y-59772981D01*
X81248306Y-59889787D01*
X81335149Y-59934035D01*
X81425367Y-59980005D01*
X81425370Y-59980006D01*
X81519866Y-60010709D01*
X81614364Y-60041413D01*
X81810639Y-60072500D01*
X81810640Y-60072500D01*
X82009360Y-60072500D01*
X82009361Y-60072500D01*
X82205636Y-60041413D01*
X82394632Y-59980005D01*
X82571694Y-59889787D01*
X82732464Y-59772981D01*
X82872981Y-59632464D01*
X82888129Y-59611613D01*
X82943460Y-59568949D01*
X82988447Y-59560500D01*
X91503920Y-59560500D01*
X91601462Y-59541096D01*
X91648913Y-59531658D01*
X91785495Y-59475084D01*
X91852220Y-59430500D01*
X91908416Y-59392952D01*
X93764894Y-57536471D01*
X93826215Y-57502988D01*
X93871970Y-57501681D01*
X93927648Y-57510500D01*
X93927649Y-57510500D01*
X94132351Y-57510500D01*
X94132352Y-57510500D01*
X94334534Y-57478477D01*
X94529219Y-57415220D01*
X94711610Y-57322287D01*
X94804590Y-57254732D01*
X94877213Y-57201971D01*
X94877215Y-57201968D01*
X94877219Y-57201966D01*
X94987819Y-57091366D01*
X95049142Y-57057881D01*
X95118834Y-57062865D01*
X95174767Y-57104737D01*
X95199184Y-57170201D01*
X95199500Y-57179047D01*
X95199500Y-60407769D01*
X95179815Y-60474808D01*
X95163181Y-60495450D01*
X94675104Y-60983526D01*
X94613781Y-61017011D01*
X94568025Y-61018318D01*
X94512352Y-61009500D01*
X94307648Y-61009500D01*
X94283329Y-61013351D01*
X94105465Y-61041522D01*
X93910776Y-61104781D01*
X93728386Y-61197715D01*
X93562786Y-61318028D01*
X93418028Y-61462786D01*
X93297715Y-61628386D01*
X93204781Y-61810776D01*
X93141522Y-62005465D01*
X93109500Y-62207648D01*
X93109500Y-62412351D01*
X93141522Y-62614534D01*
X93204781Y-62809223D01*
X93297715Y-62991613D01*
X93418028Y-63157213D01*
X93562786Y-63301971D01*
X93717749Y-63414556D01*
X93728390Y-63422287D01*
X93837215Y-63477736D01*
X93910776Y-63515218D01*
X93910778Y-63515218D01*
X93910781Y-63515220D01*
X93952207Y-63528680D01*
X94105465Y-63578477D01*
X94206557Y-63594488D01*
X94307648Y-63610500D01*
X94307649Y-63610500D01*
X94512351Y-63610500D01*
X94512352Y-63610500D01*
X94714534Y-63578477D01*
X94909219Y-63515220D01*
X95091610Y-63422287D01*
X95201157Y-63342697D01*
X95257213Y-63301971D01*
X95257215Y-63301968D01*
X95257219Y-63301966D01*
X95401966Y-63157219D01*
X95401968Y-63157215D01*
X95401971Y-63157213D01*
X95464228Y-63071522D01*
X95522287Y-62991610D01*
X95615220Y-62809219D01*
X95678477Y-62614534D01*
X95710500Y-62412352D01*
X95710500Y-62207648D01*
X95701681Y-62151971D01*
X95710635Y-62082680D01*
X95736470Y-62044896D01*
X96532952Y-61248416D01*
X96582186Y-61174729D01*
X96615084Y-61125495D01*
X96671658Y-60988913D01*
X96692735Y-60882954D01*
X96700500Y-60843920D01*
X96700500Y-49186079D01*
X96671659Y-49041092D01*
X96671658Y-49041091D01*
X96671658Y-49041087D01*
X96671173Y-49039918D01*
X96671102Y-49039258D01*
X96669890Y-49035260D01*
X96670648Y-49035029D01*
X96663704Y-48970450D01*
X96694977Y-48907970D01*
X96755065Y-48872316D01*
X96824891Y-48874809D01*
X96873415Y-48904783D01*
X103770464Y-55801831D01*
X103803949Y-55863154D01*
X103798965Y-55932846D01*
X103757093Y-55988779D01*
X103691629Y-56013196D01*
X103663385Y-56011985D01*
X103622440Y-56005500D01*
X103622435Y-56005500D01*
X103437565Y-56005500D01*
X103437560Y-56005500D01*
X103254969Y-56034419D01*
X103079150Y-56091546D01*
X103079147Y-56091547D01*
X102914424Y-56175479D01*
X102764870Y-56284135D01*
X102764865Y-56284139D01*
X102634139Y-56414865D01*
X102634135Y-56414870D01*
X102525479Y-56564424D01*
X102441547Y-56729147D01*
X102441546Y-56729150D01*
X102384419Y-56904969D01*
X102355500Y-57087559D01*
X102355500Y-57241769D01*
X102335815Y-57308808D01*
X102319181Y-57329450D01*
X101447050Y-58201581D01*
X101447047Y-58201585D01*
X101415982Y-58248076D01*
X101415983Y-58248077D01*
X101364914Y-58324508D01*
X101308343Y-58461082D01*
X101308340Y-58461092D01*
X101279500Y-58606079D01*
X101279500Y-61184582D01*
X101259815Y-61251621D01*
X101228385Y-61284900D01*
X101182787Y-61318028D01*
X101182782Y-61318032D01*
X101038028Y-61462786D01*
X100917715Y-61628386D01*
X100824781Y-61810776D01*
X100761522Y-62005465D01*
X100729500Y-62207648D01*
X100729500Y-62412351D01*
X100761522Y-62614534D01*
X100824781Y-62809223D01*
X100917715Y-62991613D01*
X101038028Y-63157213D01*
X101182786Y-63301971D01*
X101337749Y-63414556D01*
X101348390Y-63422287D01*
X101457215Y-63477736D01*
X101530776Y-63515218D01*
X101530778Y-63515218D01*
X101530781Y-63515220D01*
X101572207Y-63528680D01*
X101725465Y-63578477D01*
X101826557Y-63594488D01*
X101927648Y-63610500D01*
X101927649Y-63610500D01*
X102132351Y-63610500D01*
X102132352Y-63610500D01*
X102334534Y-63578477D01*
X102529219Y-63515220D01*
X102711610Y-63422287D01*
X102821157Y-63342697D01*
X102877213Y-63301971D01*
X102877215Y-63301968D01*
X102877219Y-63301966D01*
X103021966Y-63157219D01*
X103021968Y-63157215D01*
X103021971Y-63157213D01*
X103142284Y-62991614D01*
X103142285Y-62991613D01*
X103142287Y-62991610D01*
X103194516Y-62889104D01*
X103242489Y-62838310D01*
X103310310Y-62821515D01*
X103376445Y-62844052D01*
X103415485Y-62889106D01*
X103467715Y-62991614D01*
X103588028Y-63157213D01*
X103732786Y-63301971D01*
X103887749Y-63414556D01*
X103898390Y-63422287D01*
X104007215Y-63477736D01*
X104080776Y-63515218D01*
X104080778Y-63515218D01*
X104080781Y-63515220D01*
X104122207Y-63528680D01*
X104275465Y-63578477D01*
X104376557Y-63594488D01*
X104477648Y-63610500D01*
X104477649Y-63610500D01*
X104682351Y-63610500D01*
X104682352Y-63610500D01*
X104884534Y-63578477D01*
X105079219Y-63515220D01*
X105139204Y-63484655D01*
X105141909Y-63484147D01*
X105143989Y-63482346D01*
X105176044Y-63477736D01*
X105207873Y-63471759D01*
X105210422Y-63472793D01*
X105213147Y-63472402D01*
X105242613Y-63485859D01*
X105272614Y-63498035D01*
X105274199Y-63500283D01*
X105276703Y-63501427D01*
X105294217Y-63528680D01*
X105312871Y-63555141D01*
X105313443Y-63558597D01*
X105314477Y-63560205D01*
X105319500Y-63595140D01*
X105319500Y-63687770D01*
X105299815Y-63754809D01*
X105283181Y-63775451D01*
X104275451Y-64783181D01*
X104214128Y-64816666D01*
X104187770Y-64819500D01*
X103155418Y-64819500D01*
X103088379Y-64799815D01*
X103055100Y-64768385D01*
X103021971Y-64722787D01*
X103021967Y-64722782D01*
X102877213Y-64578028D01*
X102711613Y-64457715D01*
X102711612Y-64457714D01*
X102711610Y-64457713D01*
X102609127Y-64405495D01*
X102529223Y-64364781D01*
X102334534Y-64301522D01*
X102159995Y-64273878D01*
X102132352Y-64269500D01*
X101927648Y-64269500D01*
X101903329Y-64273351D01*
X101725465Y-64301522D01*
X101530776Y-64364781D01*
X101348386Y-64457715D01*
X101182786Y-64578028D01*
X101038028Y-64722786D01*
X100917715Y-64888386D01*
X100824781Y-65070776D01*
X100761522Y-65265465D01*
X100729500Y-65467648D01*
X100729500Y-65672351D01*
X100761522Y-65874534D01*
X100824781Y-66069223D01*
X100917715Y-66251613D01*
X101038028Y-66417213D01*
X101182786Y-66561971D01*
X101337749Y-66674556D01*
X101348390Y-66682287D01*
X101464607Y-66741503D01*
X101530776Y-66775218D01*
X101530778Y-66775218D01*
X101530781Y-66775220D01*
X101621160Y-66804586D01*
X101725465Y-66838477D01*
X101809564Y-66851797D01*
X101927648Y-66870500D01*
X101927649Y-66870500D01*
X102132351Y-66870500D01*
X102132352Y-66870500D01*
X102334534Y-66838477D01*
X102529219Y-66775220D01*
X102711610Y-66682287D01*
X102804590Y-66614732D01*
X102877213Y-66561971D01*
X102877215Y-66561968D01*
X102877219Y-66561966D01*
X103021966Y-66417219D01*
X103036881Y-66396690D01*
X103055100Y-66371615D01*
X103110429Y-66328949D01*
X103155418Y-66320500D01*
X104623920Y-66320500D01*
X104721462Y-66301096D01*
X104768913Y-66291658D01*
X104905495Y-66235084D01*
X104954729Y-66202186D01*
X105028416Y-66152952D01*
X106652952Y-64528415D01*
X106700193Y-64457713D01*
X106735084Y-64405495D01*
X106791415Y-64269500D01*
X106791659Y-64268912D01*
X106797878Y-64237648D01*
X113569500Y-64237648D01*
X113569500Y-64442351D01*
X113601522Y-64644534D01*
X113664781Y-64839223D01*
X113757715Y-65021613D01*
X113878028Y-65187213D01*
X114022786Y-65331971D01*
X114132983Y-65412032D01*
X114188390Y-65452287D01*
X114304607Y-65511503D01*
X114370776Y-65545218D01*
X114370778Y-65545218D01*
X114370781Y-65545220D01*
X114475137Y-65579127D01*
X114565465Y-65608477D01*
X114666557Y-65624488D01*
X114767648Y-65640500D01*
X114767649Y-65640500D01*
X114972351Y-65640500D01*
X114972352Y-65640500D01*
X115174534Y-65608477D01*
X115369219Y-65545220D01*
X115551610Y-65452287D01*
X115652658Y-65378872D01*
X119409500Y-65378872D01*
X119409500Y-65641127D01*
X119430436Y-65800140D01*
X119443730Y-65901116D01*
X119511602Y-66154418D01*
X119511605Y-66154428D01*
X119611953Y-66396690D01*
X119611958Y-66396700D01*
X119743075Y-66623803D01*
X119902718Y-66831851D01*
X119902726Y-66831860D01*
X120088140Y-67017274D01*
X120088148Y-67017281D01*
X120296196Y-67176924D01*
X120523299Y-67308041D01*
X120523309Y-67308046D01*
X120765571Y-67408394D01*
X120765581Y-67408398D01*
X121018884Y-67476270D01*
X121278880Y-67510500D01*
X121278887Y-67510500D01*
X121541113Y-67510500D01*
X121541120Y-67510500D01*
X121801116Y-67476270D01*
X122054419Y-67408398D01*
X122296697Y-67308043D01*
X122523803Y-67176924D01*
X122731851Y-67017282D01*
X122731855Y-67017277D01*
X122731860Y-67017274D01*
X122917274Y-66831860D01*
X122917277Y-66831855D01*
X122917282Y-66831851D01*
X123076924Y-66623803D01*
X123208043Y-66396697D01*
X123308398Y-66154419D01*
X123376270Y-65901116D01*
X123410500Y-65641120D01*
X123410500Y-65378880D01*
X123376270Y-65118884D01*
X123308398Y-64865581D01*
X123297480Y-64839223D01*
X123208046Y-64623309D01*
X123208041Y-64623299D01*
X123076924Y-64396196D01*
X122917281Y-64188148D01*
X122917274Y-64188140D01*
X122731860Y-64002726D01*
X122731851Y-64002718D01*
X122523803Y-63843075D01*
X122296700Y-63711958D01*
X122296690Y-63711953D01*
X122054428Y-63611605D01*
X122054421Y-63611603D01*
X122054419Y-63611602D01*
X121801116Y-63543730D01*
X121743339Y-63536123D01*
X121541127Y-63509500D01*
X121541120Y-63509500D01*
X121278880Y-63509500D01*
X121278872Y-63509500D01*
X121047772Y-63539926D01*
X121018884Y-63543730D01*
X120769694Y-63610500D01*
X120765581Y-63611602D01*
X120765571Y-63611605D01*
X120523309Y-63711953D01*
X120523299Y-63711958D01*
X120296196Y-63843075D01*
X120088148Y-64002718D01*
X119902718Y-64188148D01*
X119743075Y-64396196D01*
X119611958Y-64623299D01*
X119611953Y-64623309D01*
X119511605Y-64865571D01*
X119511602Y-64865581D01*
X119456621Y-65070776D01*
X119443730Y-65118885D01*
X119409500Y-65378872D01*
X115652658Y-65378872D01*
X115717213Y-65331971D01*
X115717215Y-65331968D01*
X115717219Y-65331966D01*
X115861966Y-65187219D01*
X115861968Y-65187215D01*
X115861971Y-65187213D01*
X115946566Y-65070776D01*
X115982287Y-65021610D01*
X116075220Y-64839219D01*
X116138477Y-64644534D01*
X116170500Y-64442352D01*
X116170500Y-64237648D01*
X116162240Y-64185500D01*
X116138477Y-64035465D01*
X116102393Y-63924411D01*
X116075220Y-63840781D01*
X116075218Y-63840778D01*
X116075218Y-63840776D01*
X116009581Y-63711958D01*
X115982287Y-63658390D01*
X115936334Y-63595140D01*
X115861971Y-63492786D01*
X115717213Y-63348028D01*
X115551613Y-63227715D01*
X115551612Y-63227714D01*
X115551610Y-63227713D01*
X115442825Y-63172284D01*
X115369223Y-63134781D01*
X115174534Y-63071522D01*
X114999995Y-63043878D01*
X114972352Y-63039500D01*
X114767648Y-63039500D01*
X114743329Y-63043351D01*
X114565465Y-63071522D01*
X114370776Y-63134781D01*
X114188386Y-63227715D01*
X114022786Y-63348028D01*
X113878028Y-63492786D01*
X113757715Y-63658386D01*
X113664781Y-63840776D01*
X113601522Y-64035465D01*
X113569500Y-64237648D01*
X106797878Y-64237648D01*
X106807726Y-64188140D01*
X106811336Y-64169986D01*
X106820500Y-64123917D01*
X106820500Y-63976082D01*
X106820500Y-58141857D01*
X106840185Y-58074818D01*
X106856819Y-58054176D01*
X106890495Y-58020500D01*
X106965859Y-57945136D01*
X107074523Y-57795572D01*
X107158452Y-57630852D01*
X107215580Y-57455029D01*
X107217527Y-57442737D01*
X107247456Y-57379602D01*
X107306768Y-57342671D01*
X107376630Y-57343669D01*
X107434863Y-57382279D01*
X107462473Y-57442737D01*
X107464420Y-57455030D01*
X107521546Y-57630849D01*
X107521547Y-57630852D01*
X107605479Y-57795575D01*
X107714135Y-57945129D01*
X107714139Y-57945134D01*
X107844865Y-58075860D01*
X107844870Y-58075864D01*
X107922309Y-58132126D01*
X107994428Y-58184523D01*
X108102106Y-58239388D01*
X108159147Y-58268452D01*
X108159150Y-58268453D01*
X108334969Y-58325580D01*
X108517560Y-58354500D01*
X108517565Y-58354500D01*
X108702440Y-58354500D01*
X108885030Y-58325580D01*
X109060849Y-58268453D01*
X109060852Y-58268452D01*
X109100840Y-58248077D01*
X109225572Y-58184523D01*
X109375136Y-58075859D01*
X109505859Y-57945136D01*
X109614523Y-57795572D01*
X109698452Y-57630852D01*
X109755580Y-57455029D01*
X109757527Y-57442737D01*
X109787456Y-57379602D01*
X109846768Y-57342671D01*
X109916630Y-57343669D01*
X109974863Y-57382279D01*
X110002473Y-57442737D01*
X110004420Y-57455030D01*
X110061546Y-57630849D01*
X110061547Y-57630852D01*
X110145479Y-57795575D01*
X110254135Y-57945129D01*
X110254139Y-57945134D01*
X110384865Y-58075860D01*
X110384870Y-58075864D01*
X110462309Y-58132126D01*
X110534428Y-58184523D01*
X110642106Y-58239388D01*
X110699147Y-58268452D01*
X110699150Y-58268453D01*
X110874969Y-58325580D01*
X111057560Y-58354500D01*
X111057565Y-58354500D01*
X111242439Y-58354500D01*
X111314880Y-58343025D01*
X111330126Y-58340611D01*
X111399420Y-58349565D01*
X111452872Y-58394561D01*
X111473512Y-58461312D01*
X111471142Y-58487275D01*
X111449500Y-58596077D01*
X111449500Y-61184582D01*
X111429815Y-61251621D01*
X111398385Y-61284900D01*
X111352787Y-61318028D01*
X111352782Y-61318032D01*
X111208028Y-61462786D01*
X111087715Y-61628386D01*
X110994781Y-61810776D01*
X110931522Y-62005465D01*
X110899500Y-62207648D01*
X110899500Y-62412351D01*
X110931522Y-62614534D01*
X110994781Y-62809223D01*
X111087715Y-62991613D01*
X111208028Y-63157213D01*
X111352786Y-63301971D01*
X111507749Y-63414556D01*
X111518390Y-63422287D01*
X111627215Y-63477736D01*
X111700776Y-63515218D01*
X111700778Y-63515218D01*
X111700781Y-63515220D01*
X111742207Y-63528680D01*
X111895465Y-63578477D01*
X111996557Y-63594488D01*
X112097648Y-63610500D01*
X112097649Y-63610500D01*
X112302351Y-63610500D01*
X112302352Y-63610500D01*
X112504534Y-63578477D01*
X112699219Y-63515220D01*
X112881610Y-63422287D01*
X112991157Y-63342697D01*
X113047213Y-63301971D01*
X113047215Y-63301968D01*
X113047219Y-63301966D01*
X113191966Y-63157219D01*
X113191968Y-63157215D01*
X113191971Y-63157213D01*
X113254228Y-63071522D01*
X113312287Y-62991610D01*
X113405220Y-62809219D01*
X113468477Y-62614534D01*
X113500500Y-62412352D01*
X113500500Y-62207648D01*
X113468477Y-62005466D01*
X113457477Y-61971613D01*
X113405218Y-61810776D01*
X113346525Y-61695586D01*
X113312287Y-61628390D01*
X113304556Y-61617749D01*
X113191971Y-61462786D01*
X113047217Y-61318032D01*
X113047212Y-61318028D01*
X113001615Y-61284900D01*
X112998274Y-61280568D01*
X112993297Y-61278295D01*
X112977166Y-61253195D01*
X112969698Y-61243510D01*
X112961706Y-61234287D01*
X112961360Y-61232697D01*
X112958949Y-61229571D01*
X112957695Y-61222897D01*
X112955523Y-61219517D01*
X112950941Y-61187648D01*
X113569500Y-61187648D01*
X113569500Y-61392351D01*
X113601522Y-61594534D01*
X113664781Y-61789223D01*
X113679480Y-61818070D01*
X113750886Y-61958212D01*
X113757715Y-61971613D01*
X113878028Y-62137213D01*
X114022786Y-62281971D01*
X114136427Y-62364534D01*
X114188390Y-62402287D01*
X114304607Y-62461503D01*
X114370776Y-62495218D01*
X114370778Y-62495218D01*
X114370781Y-62495220D01*
X114475137Y-62529127D01*
X114565465Y-62558477D01*
X114659369Y-62573350D01*
X114767648Y-62590500D01*
X114767649Y-62590500D01*
X114972351Y-62590500D01*
X114972352Y-62590500D01*
X115174534Y-62558477D01*
X115369219Y-62495220D01*
X115551610Y-62402287D01*
X115644590Y-62334732D01*
X115717213Y-62281971D01*
X115717215Y-62281968D01*
X115717219Y-62281966D01*
X115861966Y-62137219D01*
X115861968Y-62137215D01*
X115861971Y-62137213D01*
X115957690Y-62005465D01*
X115982287Y-61971610D01*
X116075220Y-61789219D01*
X116138477Y-61594534D01*
X116170500Y-61392352D01*
X116170500Y-61187648D01*
X116138477Y-60985466D01*
X116131855Y-60965087D01*
X116105168Y-60882951D01*
X116075220Y-60790781D01*
X116075218Y-60790778D01*
X116075218Y-60790776D01*
X116041503Y-60724607D01*
X115982287Y-60608390D01*
X115974556Y-60597749D01*
X115861971Y-60442786D01*
X115717213Y-60298028D01*
X115551613Y-60177715D01*
X115551612Y-60177714D01*
X115551610Y-60177713D01*
X115488157Y-60145382D01*
X115369223Y-60084781D01*
X115174534Y-60021522D01*
X114999995Y-59993878D01*
X114972352Y-59989500D01*
X114767648Y-59989500D01*
X114743329Y-59993351D01*
X114565465Y-60021522D01*
X114370776Y-60084781D01*
X114188386Y-60177715D01*
X114022786Y-60298028D01*
X113878028Y-60442786D01*
X113757715Y-60608386D01*
X113664781Y-60790776D01*
X113601522Y-60985465D01*
X113569500Y-61187648D01*
X112950941Y-61187648D01*
X112950500Y-61184582D01*
X112950500Y-59032229D01*
X112970185Y-58965190D01*
X112986819Y-58944548D01*
X113540548Y-58390819D01*
X113601871Y-58357334D01*
X113628229Y-58354500D01*
X113782440Y-58354500D01*
X113965030Y-58325580D01*
X114140849Y-58268453D01*
X114140852Y-58268452D01*
X114180840Y-58248077D01*
X114305572Y-58184523D01*
X114455136Y-58075859D01*
X114585859Y-57945136D01*
X114694523Y-57795572D01*
X114778452Y-57630852D01*
X114835580Y-57455029D01*
X114837527Y-57442737D01*
X114867456Y-57379602D01*
X114926768Y-57342671D01*
X114996630Y-57343669D01*
X115054863Y-57382279D01*
X115082473Y-57442737D01*
X115084420Y-57455030D01*
X115141546Y-57630849D01*
X115141547Y-57630852D01*
X115225479Y-57795575D01*
X115334135Y-57945129D01*
X115334139Y-57945134D01*
X115464865Y-58075860D01*
X115464870Y-58075864D01*
X115542309Y-58132126D01*
X115614428Y-58184523D01*
X115722106Y-58239388D01*
X115779147Y-58268452D01*
X115779150Y-58268453D01*
X115954969Y-58325580D01*
X116137560Y-58354500D01*
X116137565Y-58354500D01*
X116322440Y-58354500D01*
X116505030Y-58325580D01*
X116680849Y-58268453D01*
X116680852Y-58268452D01*
X116720840Y-58248077D01*
X116845572Y-58184523D01*
X116995136Y-58075859D01*
X117125859Y-57945136D01*
X117234523Y-57795572D01*
X117318452Y-57630852D01*
X117341979Y-57558443D01*
X117375580Y-57455030D01*
X117404500Y-57272440D01*
X117404500Y-57087559D01*
X120135500Y-57087559D01*
X120135500Y-57272440D01*
X120164419Y-57455030D01*
X120221546Y-57630849D01*
X120221547Y-57630852D01*
X120305479Y-57795575D01*
X120414135Y-57945129D01*
X120414139Y-57945134D01*
X120544865Y-58075860D01*
X120544870Y-58075864D01*
X120622309Y-58132126D01*
X120694428Y-58184523D01*
X120802106Y-58239388D01*
X120859147Y-58268452D01*
X120859150Y-58268453D01*
X121034969Y-58325580D01*
X121217560Y-58354500D01*
X121217565Y-58354500D01*
X121402440Y-58354500D01*
X121585030Y-58325580D01*
X121760849Y-58268453D01*
X121760852Y-58268452D01*
X121800840Y-58248077D01*
X121925572Y-58184523D01*
X122075136Y-58075859D01*
X122205859Y-57945136D01*
X122314523Y-57795572D01*
X122398452Y-57630852D01*
X122421979Y-57558443D01*
X122455580Y-57455030D01*
X122484500Y-57272440D01*
X122484500Y-57087559D01*
X122455580Y-56904969D01*
X122398453Y-56729150D01*
X122398452Y-56729147D01*
X122369388Y-56672106D01*
X122314523Y-56564428D01*
X122278273Y-56514534D01*
X122205864Y-56414870D01*
X122205860Y-56414865D01*
X122075134Y-56284139D01*
X122075129Y-56284135D01*
X121925575Y-56175479D01*
X121925574Y-56175478D01*
X121925572Y-56175477D01*
X121839500Y-56131621D01*
X121760852Y-56091547D01*
X121760849Y-56091546D01*
X121585030Y-56034419D01*
X121402440Y-56005500D01*
X121402435Y-56005500D01*
X121217565Y-56005500D01*
X121217560Y-56005500D01*
X121034969Y-56034419D01*
X120859150Y-56091546D01*
X120859147Y-56091547D01*
X120694424Y-56175479D01*
X120544870Y-56284135D01*
X120544865Y-56284139D01*
X120414139Y-56414865D01*
X120414135Y-56414870D01*
X120305479Y-56564424D01*
X120221547Y-56729147D01*
X120221546Y-56729150D01*
X120164419Y-56904969D01*
X120135500Y-57087559D01*
X117404500Y-57087559D01*
X117375580Y-56904969D01*
X117318453Y-56729150D01*
X117318452Y-56729147D01*
X117289388Y-56672106D01*
X117234523Y-56564428D01*
X117198273Y-56514534D01*
X117125864Y-56414870D01*
X117125860Y-56414865D01*
X116995134Y-56284139D01*
X116995129Y-56284135D01*
X116845575Y-56175479D01*
X116845574Y-56175478D01*
X116845572Y-56175477D01*
X116759500Y-56131621D01*
X116680852Y-56091547D01*
X116680849Y-56091546D01*
X116505030Y-56034419D01*
X116322440Y-56005500D01*
X116322435Y-56005500D01*
X116137565Y-56005500D01*
X116137560Y-56005500D01*
X115954969Y-56034419D01*
X115779150Y-56091546D01*
X115779147Y-56091547D01*
X115614424Y-56175479D01*
X115464870Y-56284135D01*
X115464865Y-56284139D01*
X115334139Y-56414865D01*
X115334135Y-56414870D01*
X115225479Y-56564424D01*
X115141547Y-56729147D01*
X115141546Y-56729150D01*
X115084420Y-56904969D01*
X115082473Y-56917263D01*
X115052543Y-56980397D01*
X114993231Y-57017328D01*
X114923369Y-57016330D01*
X114865136Y-56977719D01*
X114837527Y-56917263D01*
X114837192Y-56915150D01*
X114835580Y-56904971D01*
X114794755Y-56779323D01*
X114778453Y-56729150D01*
X114778452Y-56729147D01*
X114749388Y-56672106D01*
X114694523Y-56564428D01*
X114658273Y-56514534D01*
X114585864Y-56414870D01*
X114585860Y-56414865D01*
X114455134Y-56284139D01*
X114455129Y-56284135D01*
X114305575Y-56175479D01*
X114305574Y-56175478D01*
X114305572Y-56175477D01*
X114219500Y-56131621D01*
X114140852Y-56091547D01*
X114140849Y-56091546D01*
X113965030Y-56034419D01*
X113782440Y-56005500D01*
X113782435Y-56005500D01*
X113597565Y-56005500D01*
X113597560Y-56005500D01*
X113414969Y-56034419D01*
X113239150Y-56091546D01*
X113239147Y-56091547D01*
X113074424Y-56175479D01*
X112924870Y-56284135D01*
X112924865Y-56284139D01*
X112794139Y-56414865D01*
X112794135Y-56414870D01*
X112685479Y-56564424D01*
X112601547Y-56729147D01*
X112601546Y-56729150D01*
X112544420Y-56904969D01*
X112542473Y-56917263D01*
X112512543Y-56980397D01*
X112453231Y-57017328D01*
X112383369Y-57016330D01*
X112325136Y-56977719D01*
X112297527Y-56917263D01*
X112297192Y-56915150D01*
X112295580Y-56904971D01*
X112254755Y-56779323D01*
X112238453Y-56729150D01*
X112238452Y-56729147D01*
X112209388Y-56672106D01*
X112154523Y-56564428D01*
X112118273Y-56514534D01*
X112045864Y-56414870D01*
X112045860Y-56414865D01*
X111915134Y-56284139D01*
X111915129Y-56284135D01*
X111765575Y-56175479D01*
X111765574Y-56175478D01*
X111765572Y-56175477D01*
X111679500Y-56131621D01*
X111600852Y-56091547D01*
X111600849Y-56091546D01*
X111425030Y-56034419D01*
X111242440Y-56005500D01*
X111242435Y-56005500D01*
X111088230Y-56005500D01*
X111021191Y-55985815D01*
X111000549Y-55969181D01*
X99196819Y-44165451D01*
X99163334Y-44104128D01*
X99160500Y-44077770D01*
X99160500Y-36942204D01*
X99169144Y-36912764D01*
X99175667Y-36882779D01*
X99179422Y-36877762D01*
X99180185Y-36875165D01*
X99196818Y-36854524D01*
X99211886Y-36839456D01*
X99234470Y-36816871D01*
X99295790Y-36783387D01*
X99365482Y-36788371D01*
X99421416Y-36830241D01*
X99427688Y-36839456D01*
X99467285Y-36903652D01*
X99467288Y-36903656D01*
X99591344Y-37027712D01*
X99740666Y-37119814D01*
X99907203Y-37174999D01*
X100009991Y-37185500D01*
X100810008Y-37185499D01*
X100810016Y-37185498D01*
X100810019Y-37185498D01*
X100866302Y-37179748D01*
X100912797Y-37174999D01*
X101079334Y-37119814D01*
X101228656Y-37027712D01*
X101352712Y-36903656D01*
X101444814Y-36754334D01*
X101480879Y-36645494D01*
X101520652Y-36588051D01*
X101585167Y-36561228D01*
X101598585Y-36560500D01*
X102117770Y-36560500D01*
X102184809Y-36580185D01*
X102205451Y-36596819D01*
X104230861Y-38622229D01*
X106162452Y-40553819D01*
X106195937Y-40615142D01*
X106190953Y-40684834D01*
X106149081Y-40740767D01*
X106083617Y-40765184D01*
X106074771Y-40765500D01*
X105977560Y-40765500D01*
X105794969Y-40794419D01*
X105619150Y-40851546D01*
X105619147Y-40851547D01*
X105454424Y-40935479D01*
X105304870Y-41044135D01*
X105304865Y-41044139D01*
X105174139Y-41174865D01*
X105174135Y-41174870D01*
X105065479Y-41324424D01*
X104981547Y-41489147D01*
X104981546Y-41489150D01*
X104924420Y-41664969D01*
X104922473Y-41677263D01*
X104892543Y-41740397D01*
X104833231Y-41777328D01*
X104763369Y-41776330D01*
X104705136Y-41737719D01*
X104677527Y-41677263D01*
X104677192Y-41675150D01*
X104675580Y-41664971D01*
X104618452Y-41489148D01*
X104618452Y-41489147D01*
X104589388Y-41432106D01*
X104534523Y-41324428D01*
X104520639Y-41305318D01*
X104425864Y-41174870D01*
X104425860Y-41174865D01*
X104295134Y-41044139D01*
X104295129Y-41044135D01*
X104145575Y-40935479D01*
X104145574Y-40935478D01*
X104145572Y-40935477D01*
X104052725Y-40888169D01*
X103980852Y-40851547D01*
X103980849Y-40851546D01*
X103805030Y-40794419D01*
X103622440Y-40765500D01*
X103622435Y-40765500D01*
X103437565Y-40765500D01*
X103437560Y-40765500D01*
X103254969Y-40794419D01*
X103079150Y-40851546D01*
X103079147Y-40851547D01*
X102914424Y-40935479D01*
X102764870Y-41044135D01*
X102764865Y-41044139D01*
X102634139Y-41174865D01*
X102634135Y-41174870D01*
X102525479Y-41324424D01*
X102441547Y-41489147D01*
X102441546Y-41489150D01*
X102384419Y-41664969D01*
X102355500Y-41847559D01*
X102355500Y-42032440D01*
X102384419Y-42215030D01*
X102441546Y-42390849D01*
X102441547Y-42390852D01*
X102480190Y-42466691D01*
X102518318Y-42541522D01*
X102525479Y-42555575D01*
X102634135Y-42705129D01*
X102634139Y-42705134D01*
X102764865Y-42835860D01*
X102764870Y-42835864D01*
X102895318Y-42930639D01*
X102914428Y-42944523D01*
X103022106Y-42999388D01*
X103079147Y-43028452D01*
X103079150Y-43028453D01*
X103254969Y-43085580D01*
X103437560Y-43114500D01*
X103437565Y-43114500D01*
X103622440Y-43114500D01*
X103805030Y-43085580D01*
X103980849Y-43028453D01*
X103980852Y-43028452D01*
X104145572Y-42944523D01*
X104295136Y-42835859D01*
X104425859Y-42705136D01*
X104534523Y-42555572D01*
X104618452Y-42390852D01*
X104675580Y-42215029D01*
X104677527Y-42202737D01*
X104707456Y-42139602D01*
X104766768Y-42102671D01*
X104836630Y-42103669D01*
X104894863Y-42142279D01*
X104922473Y-42202737D01*
X104924420Y-42215030D01*
X104981546Y-42390849D01*
X104981547Y-42390852D01*
X105020190Y-42466691D01*
X105058318Y-42541522D01*
X105065479Y-42555575D01*
X105174135Y-42705129D01*
X105174139Y-42705134D01*
X105304865Y-42835860D01*
X105304870Y-42835864D01*
X105435318Y-42930639D01*
X105454428Y-42944523D01*
X105562106Y-42999388D01*
X105619147Y-43028452D01*
X105619150Y-43028453D01*
X105794969Y-43085580D01*
X105977560Y-43114500D01*
X105977565Y-43114500D01*
X106162440Y-43114500D01*
X106345030Y-43085580D01*
X106520849Y-43028453D01*
X106520852Y-43028452D01*
X106685572Y-42944523D01*
X106835136Y-42835859D01*
X106965859Y-42705136D01*
X107074523Y-42555572D01*
X107158452Y-42390852D01*
X107215580Y-42215029D01*
X107217527Y-42202737D01*
X107247456Y-42139602D01*
X107306768Y-42102671D01*
X107376630Y-42103669D01*
X107434863Y-42142279D01*
X107462473Y-42202737D01*
X107464420Y-42215030D01*
X107521546Y-42390849D01*
X107521547Y-42390852D01*
X107560190Y-42466691D01*
X107598318Y-42541522D01*
X107605479Y-42555575D01*
X107714135Y-42705129D01*
X107714139Y-42705134D01*
X107844865Y-42835860D01*
X107844870Y-42835864D01*
X107975318Y-42930639D01*
X107994428Y-42944523D01*
X108102106Y-42999388D01*
X108159147Y-43028452D01*
X108159150Y-43028453D01*
X108334969Y-43085580D01*
X108517560Y-43114500D01*
X108517565Y-43114500D01*
X108702440Y-43114500D01*
X108885030Y-43085580D01*
X109060849Y-43028453D01*
X109060852Y-43028452D01*
X109225572Y-42944523D01*
X109375136Y-42835859D01*
X109505859Y-42705136D01*
X109614523Y-42555572D01*
X109698452Y-42390852D01*
X109755580Y-42215029D01*
X109757527Y-42202737D01*
X109787456Y-42139602D01*
X109846768Y-42102671D01*
X109916630Y-42103669D01*
X109974863Y-42142279D01*
X110002473Y-42202737D01*
X110004420Y-42215030D01*
X110061546Y-42390849D01*
X110061547Y-42390852D01*
X110100190Y-42466691D01*
X110138318Y-42541522D01*
X110145479Y-42555575D01*
X110254135Y-42705129D01*
X110254139Y-42705134D01*
X110384865Y-42835860D01*
X110384870Y-42835864D01*
X110515318Y-42930639D01*
X110534428Y-42944523D01*
X110642106Y-42999388D01*
X110699147Y-43028452D01*
X110699150Y-43028453D01*
X110874969Y-43085580D01*
X111057560Y-43114500D01*
X111057565Y-43114500D01*
X111242440Y-43114500D01*
X111425030Y-43085580D01*
X111600849Y-43028453D01*
X111600852Y-43028452D01*
X111765572Y-42944523D01*
X111915136Y-42835859D01*
X112045859Y-42705136D01*
X112154523Y-42555572D01*
X112238452Y-42390852D01*
X112295580Y-42215029D01*
X112297527Y-42202737D01*
X112327456Y-42139602D01*
X112386768Y-42102671D01*
X112456630Y-42103669D01*
X112514863Y-42142279D01*
X112542473Y-42202737D01*
X112544420Y-42215030D01*
X112601546Y-42390849D01*
X112601547Y-42390852D01*
X112640190Y-42466691D01*
X112678318Y-42541522D01*
X112685479Y-42555575D01*
X112794135Y-42705129D01*
X112794139Y-42705134D01*
X112924865Y-42835860D01*
X112924870Y-42835864D01*
X113055318Y-42930639D01*
X113074428Y-42944523D01*
X113182106Y-42999388D01*
X113239147Y-43028452D01*
X113239150Y-43028453D01*
X113414969Y-43085580D01*
X113597560Y-43114500D01*
X113597565Y-43114500D01*
X113782440Y-43114500D01*
X113965030Y-43085580D01*
X114140849Y-43028453D01*
X114140852Y-43028452D01*
X114305572Y-42944523D01*
X114455136Y-42835859D01*
X114585859Y-42705136D01*
X114694523Y-42555572D01*
X114778452Y-42390852D01*
X114835580Y-42215029D01*
X114837527Y-42202737D01*
X114867456Y-42139602D01*
X114926768Y-42102671D01*
X114996630Y-42103669D01*
X115054863Y-42142279D01*
X115082473Y-42202737D01*
X115084420Y-42215030D01*
X115141546Y-42390849D01*
X115141547Y-42390852D01*
X115180190Y-42466691D01*
X115218318Y-42541522D01*
X115225479Y-42555575D01*
X115334135Y-42705129D01*
X115334139Y-42705134D01*
X115464865Y-42835860D01*
X115464870Y-42835864D01*
X115595318Y-42930639D01*
X115614428Y-42944523D01*
X115722106Y-42999388D01*
X115779147Y-43028452D01*
X115779150Y-43028453D01*
X115954969Y-43085580D01*
X116137560Y-43114500D01*
X116137565Y-43114500D01*
X116322440Y-43114500D01*
X116505030Y-43085580D01*
X116680849Y-43028453D01*
X116680852Y-43028452D01*
X116845572Y-42944523D01*
X116995136Y-42835859D01*
X117125859Y-42705136D01*
X117234523Y-42555572D01*
X117318452Y-42390852D01*
X117375580Y-42215029D01*
X117377527Y-42202737D01*
X117407456Y-42139602D01*
X117466768Y-42102671D01*
X117536630Y-42103669D01*
X117594863Y-42142279D01*
X117622473Y-42202737D01*
X117624420Y-42215030D01*
X117681546Y-42390849D01*
X117681547Y-42390852D01*
X117720190Y-42466691D01*
X117758318Y-42541522D01*
X117765479Y-42555575D01*
X117874135Y-42705129D01*
X117874139Y-42705134D01*
X118004865Y-42835860D01*
X118004870Y-42835864D01*
X118135318Y-42930639D01*
X118154428Y-42944523D01*
X118262106Y-42999388D01*
X118319147Y-43028452D01*
X118319150Y-43028453D01*
X118494969Y-43085580D01*
X118677560Y-43114500D01*
X118677565Y-43114500D01*
X118862440Y-43114500D01*
X119045030Y-43085580D01*
X119220849Y-43028453D01*
X119220852Y-43028452D01*
X119385572Y-42944523D01*
X119535136Y-42835859D01*
X119665859Y-42705136D01*
X119774523Y-42555572D01*
X119858452Y-42390852D01*
X119915580Y-42215029D01*
X119917527Y-42202737D01*
X119947456Y-42139602D01*
X120006768Y-42102671D01*
X120076630Y-42103669D01*
X120134863Y-42142279D01*
X120162473Y-42202737D01*
X120164420Y-42215030D01*
X120221546Y-42390849D01*
X120221547Y-42390852D01*
X120260190Y-42466691D01*
X120298318Y-42541522D01*
X120305479Y-42555575D01*
X120414135Y-42705129D01*
X120414139Y-42705134D01*
X120544865Y-42835860D01*
X120544870Y-42835864D01*
X120675318Y-42930639D01*
X120694428Y-42944523D01*
X120802106Y-42999388D01*
X120859147Y-43028452D01*
X120859150Y-43028453D01*
X121034969Y-43085580D01*
X121217560Y-43114500D01*
X121217565Y-43114500D01*
X121402440Y-43114500D01*
X121585030Y-43085580D01*
X121760849Y-43028453D01*
X121760852Y-43028452D01*
X121925572Y-42944523D01*
X122075136Y-42835859D01*
X122205859Y-42705136D01*
X122314523Y-42555572D01*
X122398452Y-42390852D01*
X122419877Y-42324913D01*
X122455580Y-42215030D01*
X122484500Y-42032440D01*
X122484500Y-41847559D01*
X122455580Y-41664969D01*
X122398453Y-41489150D01*
X122398452Y-41489147D01*
X122369388Y-41432106D01*
X122314523Y-41324428D01*
X122304404Y-41310501D01*
X122205865Y-41174871D01*
X122205861Y-41174867D01*
X122205859Y-41174864D01*
X122096818Y-41065823D01*
X122063334Y-41004500D01*
X122060500Y-40978142D01*
X122060500Y-38186079D01*
X122047695Y-38121708D01*
X122032901Y-38047334D01*
X122031659Y-38041088D01*
X121976903Y-37908897D01*
X121976441Y-37907712D01*
X121976407Y-37907318D01*
X121975764Y-37905522D01*
X121892954Y-37781588D01*
X121892953Y-37781587D01*
X121892951Y-37781584D01*
X121788416Y-37677049D01*
X119811145Y-35699778D01*
X117673870Y-33562502D01*
X117590240Y-33478872D01*
X119409500Y-33478872D01*
X119409500Y-33741127D01*
X119422542Y-33840185D01*
X119443730Y-34001116D01*
X119508831Y-34244076D01*
X119511602Y-34254418D01*
X119511605Y-34254428D01*
X119611953Y-34496690D01*
X119611958Y-34496700D01*
X119743075Y-34723803D01*
X119902718Y-34931851D01*
X119902726Y-34931860D01*
X120088140Y-35117274D01*
X120088148Y-35117281D01*
X120296196Y-35276924D01*
X120523299Y-35408041D01*
X120523309Y-35408046D01*
X120765571Y-35508394D01*
X120765581Y-35508398D01*
X121018884Y-35576270D01*
X121278880Y-35610500D01*
X121278887Y-35610500D01*
X121541113Y-35610500D01*
X121541120Y-35610500D01*
X121801116Y-35576270D01*
X122054419Y-35508398D01*
X122296697Y-35408043D01*
X122523803Y-35276924D01*
X122731851Y-35117282D01*
X122731855Y-35117277D01*
X122731860Y-35117274D01*
X122917274Y-34931860D01*
X122917277Y-34931855D01*
X122917282Y-34931851D01*
X123076924Y-34723803D01*
X123208043Y-34496697D01*
X123308398Y-34254419D01*
X123376270Y-34001116D01*
X123410500Y-33741120D01*
X123410500Y-33478880D01*
X123376270Y-33218884D01*
X123308398Y-32965581D01*
X123210204Y-32728520D01*
X123208046Y-32723309D01*
X123208041Y-32723299D01*
X123076924Y-32496196D01*
X122940209Y-32318028D01*
X122917282Y-32288149D01*
X122917281Y-32288148D01*
X122917274Y-32288140D01*
X122731860Y-32102726D01*
X122731851Y-32102718D01*
X122523803Y-31943075D01*
X122296700Y-31811958D01*
X122296690Y-31811953D01*
X122054428Y-31711605D01*
X122054421Y-31711603D01*
X122054419Y-31711602D01*
X121801116Y-31643730D01*
X121743339Y-31636123D01*
X121541127Y-31609500D01*
X121541120Y-31609500D01*
X121278880Y-31609500D01*
X121278872Y-31609500D01*
X121047772Y-31639926D01*
X121018884Y-31643730D01*
X120937335Y-31665581D01*
X120765581Y-31711602D01*
X120765571Y-31711605D01*
X120523309Y-31811953D01*
X120523299Y-31811958D01*
X120296196Y-31943075D01*
X120088148Y-32102718D01*
X119902718Y-32288148D01*
X119743075Y-32496196D01*
X119611958Y-32723299D01*
X119611953Y-32723309D01*
X119511605Y-32965571D01*
X119511602Y-32965581D01*
X119443730Y-33218885D01*
X119409500Y-33478872D01*
X117590240Y-33478872D01*
X115698421Y-31587052D01*
X115698414Y-31587046D01*
X115624836Y-31537883D01*
X115624836Y-31537884D01*
X115624521Y-31537674D01*
X115579660Y-31484109D01*
X115570880Y-31414793D01*
X115600969Y-31351734D01*
X115660373Y-31314953D01*
X115693304Y-31310500D01*
X122644108Y-31310500D01*
X122704587Y-31310500D01*
X122715394Y-31310972D01*
X122745721Y-31313625D01*
X122872755Y-31324739D01*
X122894035Y-31328491D01*
X122980779Y-31351734D01*
X123041369Y-31367969D01*
X123061681Y-31375362D01*
X123199915Y-31439822D01*
X123218633Y-31450629D01*
X123343582Y-31538119D01*
X123360140Y-31552013D01*
X123467986Y-31659859D01*
X123481880Y-31676417D01*
X123569370Y-31801366D01*
X123580177Y-31820084D01*
X123644637Y-31958318D01*
X123652030Y-31978630D01*
X123691507Y-32125961D01*
X123695260Y-32147246D01*
X123709028Y-32304605D01*
X123709500Y-32315413D01*
X123709500Y-66804586D01*
X123709028Y-66815393D01*
X123709028Y-66815394D01*
X123695260Y-66972753D01*
X123691507Y-66994038D01*
X123652030Y-67141369D01*
X123644637Y-67161681D01*
X123580177Y-67299915D01*
X123569370Y-67318633D01*
X123481880Y-67443582D01*
X123467986Y-67460140D01*
X123360140Y-67567986D01*
X123343582Y-67581880D01*
X123218633Y-67669370D01*
X123199915Y-67680177D01*
X123061681Y-67744637D01*
X123041369Y-67752030D01*
X122894038Y-67791507D01*
X122872753Y-67795260D01*
X122715395Y-67809028D01*
X122704587Y-67809500D01*
X93531230Y-67809500D01*
X93464191Y-67789815D01*
X93418436Y-67737011D01*
X93408492Y-67667853D01*
X93437517Y-67604297D01*
X93443549Y-67597819D01*
X93741452Y-67299915D01*
X94144894Y-66896471D01*
X94206215Y-66862988D01*
X94251970Y-66861681D01*
X94307648Y-66870500D01*
X94307649Y-66870500D01*
X94512351Y-66870500D01*
X94512352Y-66870500D01*
X94714534Y-66838477D01*
X94909219Y-66775220D01*
X95091610Y-66682287D01*
X95184590Y-66614732D01*
X95257213Y-66561971D01*
X95257215Y-66561968D01*
X95257219Y-66561966D01*
X95401966Y-66417219D01*
X95401968Y-66417215D01*
X95401971Y-66417213D01*
X95454732Y-66344590D01*
X95522287Y-66251610D01*
X95615220Y-66069219D01*
X95678477Y-65874534D01*
X95710500Y-65672352D01*
X95710500Y-65467648D01*
X95678477Y-65265466D01*
X95667368Y-65231277D01*
X95630850Y-65118885D01*
X95615220Y-65070781D01*
X95615218Y-65070778D01*
X95615218Y-65070776D01*
X95581503Y-65004607D01*
X95522287Y-64888390D01*
X95513230Y-64875924D01*
X95401971Y-64722786D01*
X95257213Y-64578028D01*
X95091613Y-64457715D01*
X95091612Y-64457714D01*
X95091610Y-64457713D01*
X94989127Y-64405495D01*
X94909223Y-64364781D01*
X94714534Y-64301522D01*
X94539995Y-64273878D01*
X94512352Y-64269500D01*
X94307648Y-64269500D01*
X94283329Y-64273351D01*
X94105465Y-64301522D01*
X93910776Y-64364781D01*
X93728386Y-64457715D01*
X93562786Y-64578028D01*
X93418028Y-64722786D01*
X93297715Y-64888386D01*
X93204781Y-65070776D01*
X93141522Y-65265465D01*
X93109500Y-65467648D01*
X93109500Y-65672351D01*
X93118318Y-65728026D01*
X93109363Y-65797320D01*
X93083526Y-65835105D01*
X92255451Y-66663181D01*
X92194128Y-66696666D01*
X92167770Y-66699500D01*
X52123198Y-66699500D01*
X52056159Y-66679815D01*
X52010404Y-66627011D01*
X52000460Y-66557853D01*
X52012714Y-66519205D01*
X52107696Y-66332793D01*
X52107702Y-66332780D01*
X52150133Y-66202189D01*
X52175286Y-66124775D01*
X52198032Y-65981161D01*
X52209500Y-65908761D01*
X52209500Y-65690038D01*
X52186562Y-65545218D01*
X52175286Y-65474025D01*
X52141493Y-65370021D01*
X52107702Y-65266019D01*
X52107701Y-65266016D01*
X52067548Y-65187213D01*
X52008407Y-65071143D01*
X51972422Y-65021613D01*
X51879857Y-64894206D01*
X51725193Y-64739542D01*
X51548260Y-64610995D01*
X51548259Y-64610994D01*
X51548257Y-64610993D01*
X51483560Y-64578028D01*
X51353383Y-64511698D01*
X51353380Y-64511697D01*
X51145376Y-64444114D01*
X50929361Y-64409900D01*
X50929356Y-64409900D01*
X50710644Y-64409900D01*
X50710639Y-64409900D01*
X50494623Y-64444114D01*
X50286619Y-64511697D01*
X50286616Y-64511698D01*
X50091739Y-64610995D01*
X49914806Y-64739542D01*
X49760142Y-64894206D01*
X49650318Y-65045369D01*
X49594989Y-65088035D01*
X49525375Y-65094014D01*
X49463580Y-65061409D01*
X49449682Y-65045369D01*
X49339857Y-64894206D01*
X49185193Y-64739542D01*
X49008260Y-64610995D01*
X49008259Y-64610994D01*
X49008257Y-64610993D01*
X48943560Y-64578028D01*
X48813383Y-64511698D01*
X48813380Y-64511697D01*
X48605376Y-64444114D01*
X48458373Y-64420830D01*
X48395239Y-64390900D01*
X48358308Y-64331588D01*
X48359306Y-64261726D01*
X48390089Y-64210678D01*
X55531071Y-57069697D01*
X60993120Y-51607648D01*
X85109500Y-51607648D01*
X85109500Y-51812351D01*
X85141522Y-52014534D01*
X85204781Y-52209223D01*
X85297715Y-52391613D01*
X85418028Y-52557213D01*
X85562786Y-52701971D01*
X85684535Y-52790425D01*
X85728390Y-52822287D01*
X85844607Y-52881503D01*
X85910776Y-52915218D01*
X85910778Y-52915218D01*
X85910781Y-52915220D01*
X86015137Y-52949127D01*
X86105465Y-52978477D01*
X86206557Y-52994488D01*
X86307648Y-53010500D01*
X86307649Y-53010500D01*
X86512351Y-53010500D01*
X86512352Y-53010500D01*
X86714534Y-52978477D01*
X86909219Y-52915220D01*
X87091610Y-52822287D01*
X87211619Y-52735096D01*
X87257213Y-52701971D01*
X87257215Y-52701968D01*
X87257219Y-52701966D01*
X87401966Y-52557219D01*
X87401968Y-52557215D01*
X87401971Y-52557213D01*
X87454732Y-52484590D01*
X87522287Y-52391610D01*
X87615220Y-52209219D01*
X87678477Y-52014534D01*
X87710500Y-51812352D01*
X87710500Y-51607648D01*
X87678477Y-51405466D01*
X87615220Y-51210781D01*
X87615218Y-51210778D01*
X87615218Y-51210776D01*
X87579500Y-51140676D01*
X87522287Y-51028390D01*
X87469753Y-50956082D01*
X87401971Y-50862786D01*
X87257213Y-50718028D01*
X87091613Y-50597715D01*
X87091612Y-50597714D01*
X87091610Y-50597713D01*
X87034653Y-50568691D01*
X86909223Y-50504781D01*
X86714534Y-50441522D01*
X86539995Y-50413878D01*
X86512352Y-50409500D01*
X86307648Y-50409500D01*
X86283329Y-50413351D01*
X86105465Y-50441522D01*
X85910776Y-50504781D01*
X85728386Y-50597715D01*
X85562786Y-50718028D01*
X85418028Y-50862786D01*
X85297715Y-51028386D01*
X85204781Y-51210776D01*
X85141522Y-51405465D01*
X85109500Y-51607648D01*
X60993120Y-51607648D01*
X61085673Y-51515095D01*
X62872948Y-49727819D01*
X62872947Y-49727819D01*
X62872951Y-49727816D01*
X62955084Y-49604895D01*
X63011658Y-49468313D01*
X63040500Y-49323318D01*
X63040500Y-44935416D01*
X63060185Y-44868377D01*
X63091613Y-44835099D01*
X63137219Y-44801966D01*
X63281966Y-44657219D01*
X63281968Y-44657215D01*
X63281971Y-44657213D01*
X63366155Y-44541342D01*
X63402287Y-44491610D01*
X63495220Y-44309219D01*
X63558477Y-44114534D01*
X63590500Y-43912352D01*
X63590500Y-43707648D01*
X63576964Y-43622186D01*
X63558477Y-43505465D01*
X63495218Y-43310776D01*
X63461503Y-43244607D01*
X63402287Y-43128390D01*
X63341068Y-43044128D01*
X63281971Y-42962786D01*
X63137213Y-42818028D01*
X62971613Y-42697715D01*
X62971612Y-42697714D01*
X62971610Y-42697713D01*
X62914514Y-42668621D01*
X62789223Y-42604781D01*
X62594534Y-42541522D01*
X62419995Y-42513878D01*
X62392352Y-42509500D01*
X62187648Y-42509500D01*
X62163329Y-42513351D01*
X61985465Y-42541522D01*
X61790776Y-42604781D01*
X61608386Y-42697715D01*
X61442786Y-42818028D01*
X61298028Y-42962786D01*
X61177715Y-43128386D01*
X61084781Y-43310776D01*
X61021522Y-43505465D01*
X60989500Y-43707648D01*
X60989500Y-43912351D01*
X61021522Y-44114534D01*
X61084781Y-44309223D01*
X61177715Y-44491613D01*
X61298028Y-44657213D01*
X61298034Y-44657219D01*
X61442781Y-44801966D01*
X61488384Y-44835098D01*
X61531050Y-44890425D01*
X61539500Y-44935416D01*
X61539500Y-48887169D01*
X61519815Y-48954208D01*
X61503181Y-48974850D01*
X46082894Y-64395136D01*
X46021571Y-64428621D01*
X45975816Y-64429928D01*
X45849361Y-64409900D01*
X45849356Y-64409900D01*
X45630644Y-64409900D01*
X45630639Y-64409900D01*
X45414623Y-64444114D01*
X45206619Y-64511697D01*
X45206616Y-64511698D01*
X45011739Y-64610995D01*
X44834806Y-64739542D01*
X44680142Y-64894206D01*
X44570318Y-65045369D01*
X44514989Y-65088035D01*
X44445375Y-65094014D01*
X44383580Y-65061409D01*
X44369682Y-65045369D01*
X44259857Y-64894206D01*
X44105193Y-64739542D01*
X43928260Y-64610995D01*
X43928259Y-64610994D01*
X43928257Y-64610993D01*
X43863560Y-64578028D01*
X43733383Y-64511698D01*
X43733380Y-64511697D01*
X43525376Y-64444114D01*
X43309361Y-64409900D01*
X43309356Y-64409900D01*
X43090644Y-64409900D01*
X43090639Y-64409900D01*
X42874623Y-64444114D01*
X42666619Y-64511697D01*
X42666616Y-64511698D01*
X42471739Y-64610995D01*
X42294806Y-64739542D01*
X42140142Y-64894206D01*
X42030318Y-65045369D01*
X41974989Y-65088035D01*
X41905375Y-65094014D01*
X41843580Y-65061409D01*
X41829682Y-65045369D01*
X41719857Y-64894206D01*
X41565193Y-64739542D01*
X41388260Y-64610995D01*
X41388259Y-64610994D01*
X41388257Y-64610993D01*
X41323560Y-64578028D01*
X41193383Y-64511698D01*
X41193380Y-64511697D01*
X40985376Y-64444114D01*
X40769361Y-64409900D01*
X40769356Y-64409900D01*
X40550644Y-64409900D01*
X40550639Y-64409900D01*
X40334623Y-64444114D01*
X40126619Y-64511697D01*
X40126616Y-64511698D01*
X39931739Y-64610995D01*
X39754806Y-64739542D01*
X39600142Y-64894206D01*
X39471595Y-65071139D01*
X39372298Y-65266016D01*
X39372297Y-65266019D01*
X39304714Y-65474023D01*
X39270500Y-65690038D01*
X39270500Y-65908761D01*
X39304714Y-66124776D01*
X39372297Y-66332780D01*
X39372298Y-66332783D01*
X39439782Y-66465225D01*
X39467286Y-66519205D01*
X39471595Y-66527660D01*
X39600142Y-66704593D01*
X39754806Y-66859257D01*
X39867483Y-66941120D01*
X39931743Y-66987807D01*
X40059132Y-67052715D01*
X40126616Y-67087101D01*
X40126619Y-67087102D01*
X40230621Y-67120893D01*
X40334625Y-67154686D01*
X40434672Y-67170532D01*
X40550639Y-67188900D01*
X40550644Y-67188900D01*
X40769361Y-67188900D01*
X40874082Y-67172312D01*
X40985375Y-67154686D01*
X41193383Y-67087101D01*
X41388257Y-66987807D01*
X41487601Y-66915629D01*
X41565193Y-66859257D01*
X41565195Y-66859254D01*
X41565199Y-66859252D01*
X41719852Y-66704599D01*
X41829683Y-66553428D01*
X41885011Y-66510764D01*
X41954624Y-66504785D01*
X42016420Y-66537390D01*
X42030313Y-66553423D01*
X42134384Y-66696666D01*
X42140148Y-66704599D01*
X42294806Y-66859257D01*
X42407483Y-66941120D01*
X42471743Y-66987807D01*
X42599132Y-67052715D01*
X42666616Y-67087101D01*
X42666619Y-67087102D01*
X42770621Y-67120893D01*
X42874625Y-67154686D01*
X42974672Y-67170532D01*
X43090639Y-67188900D01*
X43090644Y-67188900D01*
X43309354Y-67188900D01*
X43309356Y-67188900D01*
X43435817Y-67168870D01*
X43505108Y-67177824D01*
X43542894Y-67203662D01*
X43937051Y-67597819D01*
X43970536Y-67659142D01*
X43965552Y-67728834D01*
X43923680Y-67784767D01*
X43858216Y-67809184D01*
X43849370Y-67809500D01*
X33915413Y-67809500D01*
X33904605Y-67809028D01*
X33747246Y-67795260D01*
X33725961Y-67791507D01*
X33578630Y-67752030D01*
X33558318Y-67744637D01*
X33420084Y-67680177D01*
X33401366Y-67669370D01*
X33276417Y-67581880D01*
X33259859Y-67567986D01*
X33152013Y-67460140D01*
X33138119Y-67443582D01*
X33050629Y-67318633D01*
X33039822Y-67299915D01*
X32975362Y-67161681D01*
X32967969Y-67141369D01*
X32928492Y-66994038D01*
X32924739Y-66972752D01*
X32910972Y-66815393D01*
X32910500Y-66804586D01*
X32910500Y-65378872D01*
X33209500Y-65378872D01*
X33209500Y-65641127D01*
X33230436Y-65800140D01*
X33243730Y-65901116D01*
X33311602Y-66154418D01*
X33311605Y-66154428D01*
X33411953Y-66396690D01*
X33411958Y-66396700D01*
X33543075Y-66623803D01*
X33702718Y-66831851D01*
X33702726Y-66831860D01*
X33888140Y-67017274D01*
X33888148Y-67017281D01*
X34096196Y-67176924D01*
X34323299Y-67308041D01*
X34323309Y-67308046D01*
X34565571Y-67408394D01*
X34565581Y-67408398D01*
X34818884Y-67476270D01*
X35078880Y-67510500D01*
X35078887Y-67510500D01*
X35341113Y-67510500D01*
X35341120Y-67510500D01*
X35601116Y-67476270D01*
X35854419Y-67408398D01*
X36096697Y-67308043D01*
X36323803Y-67176924D01*
X36531851Y-67017282D01*
X36531855Y-67017277D01*
X36531860Y-67017274D01*
X36717274Y-66831860D01*
X36717277Y-66831855D01*
X36717282Y-66831851D01*
X36876924Y-66623803D01*
X37008043Y-66396697D01*
X37108398Y-66154419D01*
X37176270Y-65901116D01*
X37210500Y-65641120D01*
X37210500Y-65378880D01*
X37176270Y-65118884D01*
X37108398Y-64865581D01*
X37097480Y-64839223D01*
X37008046Y-64623309D01*
X37008041Y-64623299D01*
X36876924Y-64396196D01*
X36717281Y-64188148D01*
X36717274Y-64188140D01*
X36531860Y-64002726D01*
X36531851Y-64002718D01*
X36323803Y-63843075D01*
X36096700Y-63711958D01*
X36096690Y-63711953D01*
X35854428Y-63611605D01*
X35854421Y-63611603D01*
X35854419Y-63611602D01*
X35601116Y-63543730D01*
X35543339Y-63536123D01*
X35341127Y-63509500D01*
X35341120Y-63509500D01*
X35078880Y-63509500D01*
X35078872Y-63509500D01*
X34847772Y-63539926D01*
X34818884Y-63543730D01*
X34569694Y-63610500D01*
X34565581Y-63611602D01*
X34565571Y-63611605D01*
X34323309Y-63711953D01*
X34323299Y-63711958D01*
X34096196Y-63843075D01*
X33888148Y-64002718D01*
X33702718Y-64188148D01*
X33543075Y-64396196D01*
X33411958Y-64623299D01*
X33411953Y-64623309D01*
X33311605Y-64865571D01*
X33311602Y-64865581D01*
X33256621Y-65070776D01*
X33243730Y-65118885D01*
X33209500Y-65378872D01*
X32910500Y-65378872D01*
X32910500Y-37709983D01*
X62109500Y-37709983D01*
X62109500Y-38910001D01*
X62109501Y-38910018D01*
X62120000Y-39012796D01*
X62120001Y-39012799D01*
X62144004Y-39085233D01*
X62175186Y-39179334D01*
X62267288Y-39328656D01*
X62391344Y-39452712D01*
X62540666Y-39544814D01*
X62707203Y-39599999D01*
X62809991Y-39610500D01*
X64010008Y-39610499D01*
X64112797Y-39599999D01*
X64279334Y-39544814D01*
X64428656Y-39452712D01*
X64552712Y-39328656D01*
X64644814Y-39179334D01*
X64699999Y-39012797D01*
X64710500Y-38910009D01*
X64710499Y-37709992D01*
X64699999Y-37607203D01*
X64644814Y-37440666D01*
X64552712Y-37291344D01*
X64428656Y-37167288D01*
X64279334Y-37075186D01*
X64112797Y-37020001D01*
X64112795Y-37020000D01*
X64010010Y-37009500D01*
X62809998Y-37009500D01*
X62809981Y-37009501D01*
X62707203Y-37020000D01*
X62707200Y-37020001D01*
X62540668Y-37075185D01*
X62540663Y-37075187D01*
X62391342Y-37167289D01*
X62267289Y-37291342D01*
X62175187Y-37440663D01*
X62175185Y-37440668D01*
X62174964Y-37441335D01*
X62120001Y-37607203D01*
X62120001Y-37607204D01*
X62120000Y-37607204D01*
X62109500Y-37709983D01*
X32910500Y-37709983D01*
X32910500Y-33478872D01*
X33209500Y-33478872D01*
X33209500Y-33741127D01*
X33222542Y-33840185D01*
X33243730Y-34001116D01*
X33308831Y-34244076D01*
X33311602Y-34254418D01*
X33311605Y-34254428D01*
X33411953Y-34496690D01*
X33411958Y-34496700D01*
X33543075Y-34723803D01*
X33702718Y-34931851D01*
X33702726Y-34931860D01*
X33888140Y-35117274D01*
X33888148Y-35117281D01*
X34096196Y-35276924D01*
X34323299Y-35408041D01*
X34323309Y-35408046D01*
X34565571Y-35508394D01*
X34565581Y-35508398D01*
X34818884Y-35576270D01*
X35078880Y-35610500D01*
X35078887Y-35610500D01*
X35341113Y-35610500D01*
X35341120Y-35610500D01*
X35601116Y-35576270D01*
X35854419Y-35508398D01*
X36096697Y-35408043D01*
X36157160Y-35373135D01*
X39270500Y-35373135D01*
X39270500Y-37246870D01*
X39270501Y-37246876D01*
X39276908Y-37306483D01*
X39327202Y-37441328D01*
X39327206Y-37441335D01*
X39413452Y-37556544D01*
X39413455Y-37556547D01*
X39528664Y-37642793D01*
X39528671Y-37642797D01*
X39663517Y-37693091D01*
X39663516Y-37693091D01*
X39670444Y-37693835D01*
X39723127Y-37699500D01*
X41596872Y-37699499D01*
X41656483Y-37693091D01*
X41791331Y-37642796D01*
X41906546Y-37556546D01*
X41992796Y-37441331D01*
X42043091Y-37306483D01*
X42049500Y-37246873D01*
X42049499Y-36200638D01*
X44350500Y-36200638D01*
X44350500Y-36419361D01*
X44384714Y-36635376D01*
X44452297Y-36843380D01*
X44452298Y-36843383D01*
X44496125Y-36929396D01*
X44545465Y-37026231D01*
X44551595Y-37038260D01*
X44680142Y-37215193D01*
X44834806Y-37369857D01*
X44962716Y-37462787D01*
X45011743Y-37498407D01*
X45131644Y-37559500D01*
X45206616Y-37597701D01*
X45206619Y-37597702D01*
X45301057Y-37628386D01*
X45414625Y-37665286D01*
X45514672Y-37681132D01*
X45630639Y-37699500D01*
X45630644Y-37699500D01*
X45849361Y-37699500D01*
X45954082Y-37682912D01*
X46065375Y-37665286D01*
X46273383Y-37597701D01*
X46468257Y-37498407D01*
X46588437Y-37411092D01*
X46645193Y-37369857D01*
X46645195Y-37369854D01*
X46645199Y-37369852D01*
X46799852Y-37215199D01*
X46909683Y-37064028D01*
X46965011Y-37021364D01*
X47034624Y-37015385D01*
X47096420Y-37047990D01*
X47110313Y-37064023D01*
X47198569Y-37185498D01*
X47220148Y-37215199D01*
X47374806Y-37369857D01*
X47502716Y-37462787D01*
X47551743Y-37498407D01*
X47671644Y-37559500D01*
X47746616Y-37597701D01*
X47746619Y-37597702D01*
X47841057Y-37628386D01*
X47954625Y-37665286D01*
X48054672Y-37681132D01*
X48170639Y-37699500D01*
X48170644Y-37699500D01*
X48389361Y-37699500D01*
X48494082Y-37682912D01*
X48605375Y-37665286D01*
X48813383Y-37597701D01*
X48815011Y-37596871D01*
X48816039Y-37596348D01*
X48849457Y-37579319D01*
X49008257Y-37498407D01*
X49128437Y-37411092D01*
X49185193Y-37369857D01*
X49185195Y-37369854D01*
X49185199Y-37369852D01*
X49339852Y-37215199D01*
X49339854Y-37215195D01*
X49339857Y-37215193D01*
X49409154Y-37119812D01*
X49468407Y-37038257D01*
X49567701Y-36843383D01*
X49635286Y-36635375D01*
X49655548Y-36507445D01*
X49669500Y-36419361D01*
X49669500Y-36200638D01*
X49649595Y-36074971D01*
X49635286Y-35984625D01*
X49567701Y-35776617D01*
X49567701Y-35776616D01*
X49528549Y-35699778D01*
X49468407Y-35581743D01*
X49443618Y-35547623D01*
X49339857Y-35404806D01*
X49185193Y-35250142D01*
X49008260Y-35121595D01*
X49008259Y-35121594D01*
X49008257Y-35121593D01*
X48942995Y-35088340D01*
X48813383Y-35022298D01*
X48813380Y-35022297D01*
X48605376Y-34954714D01*
X48389361Y-34920500D01*
X48389356Y-34920500D01*
X48170644Y-34920500D01*
X48170639Y-34920500D01*
X47954623Y-34954714D01*
X47746619Y-35022297D01*
X47746616Y-35022298D01*
X47551739Y-35121595D01*
X47374806Y-35250142D01*
X47220142Y-35404806D01*
X47110318Y-35555969D01*
X47054989Y-35598635D01*
X46985375Y-35604614D01*
X46923580Y-35572009D01*
X46909682Y-35555969D01*
X46799857Y-35404806D01*
X46645193Y-35250142D01*
X46468260Y-35121595D01*
X46468259Y-35121594D01*
X46468257Y-35121593D01*
X46402995Y-35088340D01*
X46273383Y-35022298D01*
X46273380Y-35022297D01*
X46065376Y-34954714D01*
X45849361Y-34920500D01*
X45849356Y-34920500D01*
X45630644Y-34920500D01*
X45630639Y-34920500D01*
X45414623Y-34954714D01*
X45206619Y-35022297D01*
X45206616Y-35022298D01*
X45011739Y-35121595D01*
X44834806Y-35250142D01*
X44680142Y-35404806D01*
X44551595Y-35581739D01*
X44452298Y-35776616D01*
X44452297Y-35776619D01*
X44384714Y-35984623D01*
X44350500Y-36200638D01*
X42049499Y-36200638D01*
X42049499Y-35373128D01*
X42043091Y-35313517D01*
X42010841Y-35227051D01*
X41992797Y-35178671D01*
X41992793Y-35178664D01*
X41906547Y-35063455D01*
X41906544Y-35063452D01*
X41791335Y-34977206D01*
X41791328Y-34977202D01*
X41656482Y-34926908D01*
X41656483Y-34926908D01*
X41596883Y-34920501D01*
X41596881Y-34920500D01*
X41596873Y-34920500D01*
X41596864Y-34920500D01*
X39723129Y-34920500D01*
X39723123Y-34920501D01*
X39663516Y-34926908D01*
X39528671Y-34977202D01*
X39528664Y-34977206D01*
X39413455Y-35063452D01*
X39413452Y-35063455D01*
X39327206Y-35178664D01*
X39327202Y-35178671D01*
X39276908Y-35313517D01*
X39270501Y-35373116D01*
X39270501Y-35373123D01*
X39270500Y-35373135D01*
X36157160Y-35373135D01*
X36323803Y-35276924D01*
X36531851Y-35117282D01*
X36531855Y-35117277D01*
X36531860Y-35117274D01*
X36717274Y-34931860D01*
X36717277Y-34931855D01*
X36717282Y-34931851D01*
X36876924Y-34723803D01*
X37008043Y-34496697D01*
X37108398Y-34254419D01*
X37176270Y-34001116D01*
X37210500Y-33741120D01*
X37210500Y-33478880D01*
X37176270Y-33218884D01*
X37173259Y-33207648D01*
X39359500Y-33207648D01*
X39359500Y-33412351D01*
X39391522Y-33614534D01*
X39454781Y-33809223D01*
X39547715Y-33991613D01*
X39668028Y-34157213D01*
X39812786Y-34301971D01*
X39960790Y-34409500D01*
X39978390Y-34422287D01*
X40094607Y-34481503D01*
X40160776Y-34515218D01*
X40160778Y-34515218D01*
X40160781Y-34515220D01*
X40265137Y-34549127D01*
X40355465Y-34578477D01*
X40451995Y-34593766D01*
X40557648Y-34610500D01*
X40557649Y-34610500D01*
X40762351Y-34610500D01*
X40762352Y-34610500D01*
X40964534Y-34578477D01*
X41159219Y-34515220D01*
X41341610Y-34422287D01*
X41434590Y-34354732D01*
X41507213Y-34301971D01*
X41507215Y-34301968D01*
X41507219Y-34301966D01*
X41651966Y-34157219D01*
X41651968Y-34157215D01*
X41651971Y-34157213D01*
X41707225Y-34081161D01*
X41772287Y-33991610D01*
X41865220Y-33809219D01*
X41928477Y-33614534D01*
X41960500Y-33412352D01*
X41960500Y-33207648D01*
X41928477Y-33005466D01*
X41915514Y-32965571D01*
X41865218Y-32810776D01*
X41820651Y-32723309D01*
X41772287Y-32628390D01*
X41762786Y-32615313D01*
X41651971Y-32462786D01*
X41507213Y-32318028D01*
X41341613Y-32197715D01*
X41341612Y-32197714D01*
X41341610Y-32197713D01*
X41284653Y-32168691D01*
X41159223Y-32104781D01*
X40964534Y-32041522D01*
X40789995Y-32013878D01*
X40762352Y-32009500D01*
X40557648Y-32009500D01*
X40533329Y-32013351D01*
X40355465Y-32041522D01*
X40160776Y-32104781D01*
X39978386Y-32197715D01*
X39812786Y-32318028D01*
X39668028Y-32462786D01*
X39547715Y-32628386D01*
X39454781Y-32810776D01*
X39391522Y-33005465D01*
X39359500Y-33207648D01*
X37173259Y-33207648D01*
X37108398Y-32965581D01*
X37010204Y-32728520D01*
X37008046Y-32723309D01*
X37008041Y-32723299D01*
X36876924Y-32496196D01*
X36740209Y-32318028D01*
X36717282Y-32288149D01*
X36717281Y-32288148D01*
X36717274Y-32288140D01*
X36531860Y-32102726D01*
X36531851Y-32102718D01*
X36323803Y-31943075D01*
X36096700Y-31811958D01*
X36096690Y-31811953D01*
X35854428Y-31711605D01*
X35854421Y-31711603D01*
X35854419Y-31711602D01*
X35601116Y-31643730D01*
X35543339Y-31636123D01*
X35341127Y-31609500D01*
X35341120Y-31609500D01*
X35078880Y-31609500D01*
X35078872Y-31609500D01*
X34847772Y-31639926D01*
X34818884Y-31643730D01*
X34737335Y-31665581D01*
X34565581Y-31711602D01*
X34565571Y-31711605D01*
X34323309Y-31811953D01*
X34323299Y-31811958D01*
X34096196Y-31943075D01*
X33888148Y-32102718D01*
X33702718Y-32288148D01*
X33543075Y-32496196D01*
X33411958Y-32723299D01*
X33411953Y-32723309D01*
X33311605Y-32965571D01*
X33311602Y-32965581D01*
X33243730Y-33218885D01*
X33209500Y-33478872D01*
X32910500Y-33478872D01*
X32910500Y-32315413D01*
X32910972Y-32304606D01*
X32920324Y-32197713D01*
X32924739Y-32147242D01*
X32928490Y-32125966D01*
X32967969Y-31978627D01*
X32975362Y-31958318D01*
X32982470Y-31943075D01*
X33039823Y-31820081D01*
X33050629Y-31801366D01*
X33138119Y-31676417D01*
X33152007Y-31659865D01*
X33259865Y-31552007D01*
X33276417Y-31538119D01*
X33276856Y-31537812D01*
X33401366Y-31450629D01*
X33420081Y-31439823D01*
X33558320Y-31375361D01*
X33578627Y-31367969D01*
X33725966Y-31328490D01*
X33747242Y-31324739D01*
X33879885Y-31313134D01*
X33904606Y-31310972D01*
X33915413Y-31310500D01*
X33975892Y-31310500D01*
X76246694Y-31310500D01*
X76313733Y-31330185D01*
G37*
%TD.AperFunction*%
%TA.AperFunction,Conductor*%
G36*
X78155623Y-58021275D02*
G01*
X78158294Y-58020614D01*
X78188956Y-58031062D01*
X78220022Y-58040185D01*
X78221822Y-58042263D01*
X78224428Y-58043151D01*
X78244578Y-58068525D01*
X78265777Y-58092989D01*
X78266168Y-58095710D01*
X78267880Y-58097866D01*
X78271111Y-58130089D01*
X78275721Y-58162147D01*
X78274661Y-58165488D01*
X78274852Y-58167387D01*
X78263468Y-58200795D01*
X78199994Y-58325367D01*
X78199993Y-58325370D01*
X78138587Y-58514362D01*
X78107500Y-58710639D01*
X78107500Y-58909362D01*
X78111531Y-58934816D01*
X78102575Y-59004109D01*
X78076738Y-59041893D01*
X77605451Y-59513181D01*
X77544128Y-59546666D01*
X77517770Y-59549500D01*
X75532493Y-59549500D01*
X75465454Y-59529815D01*
X75419699Y-59477011D01*
X75409755Y-59407853D01*
X75422008Y-59369205D01*
X75460005Y-59294632D01*
X75460006Y-59294629D01*
X75514717Y-59126243D01*
X75521413Y-59105636D01*
X75552500Y-58909361D01*
X75552500Y-58710639D01*
X75521413Y-58514364D01*
X75481271Y-58390819D01*
X75460006Y-58325370D01*
X75460005Y-58325367D01*
X75396532Y-58200795D01*
X75383636Y-58132126D01*
X75409912Y-58067385D01*
X75467019Y-58027128D01*
X75507017Y-58020500D01*
X78152983Y-58020500D01*
X78155623Y-58021275D01*
G37*
%TD.AperFunction*%
%TD*%
M02*
