M48
; DRILL file {KiCad 9.0.6-1.fc42} date 2026-01-11T17:24:32+0300
; FORMAT={-:-/ absolute / metric / decimal}
; #@! TF.CreationDate,2026-01-11T17:24:32+03:00
; #@! TF.GenerationSoftware,Kicad,Pcbnew,9.0.6-1.fc42
; #@! TF.FileFunction,Plated,1,2,PTH
FMAT,2
METRIC
; #@! TA.AperFunction,Plated,PTH,ComponentDrill
T1C0.600
; #@! TA.AperFunction,Plated,PTH,ComponentDrill
T2C0.750
; #@! TA.AperFunction,Plated,PTH,ComponentDrill
T3C0.762
; #@! TA.AperFunction,Plated,PTH,ComponentDrill
T4C0.800
; #@! TA.AperFunction,Plated,PTH,ComponentDrill
T5C0.840
; #@! TA.AperFunction,Plated,PTH,ComponentDrill
T6C0.900
; #@! TA.AperFunction,Plated,PTH,ComponentDrill
T7C1.000
%
G90
G05
T1
X40.66Y-36.31
X40.66Y-65.799
X43.2Y-36.31
X43.2Y-65.799
X45.74Y-36.31
X45.74Y-65.799
X48.28Y-36.31
X48.28Y-65.799
X50.82Y-65.799
T2
X86.41Y-35.81
X88.41Y-35.81
X88.41Y-62.81
X90.41Y-35.81
X90.41Y-62.81
X92.41Y-35.81
X94.41Y-35.81
X96.41Y-35.81
X98.41Y-35.81
X100.41Y-35.81
T3
X74.29Y-58.81
X76.83Y-58.81
X79.37Y-58.81
X81.91Y-58.81
T4
X40.66Y-33.31
X43.16Y-33.31
X62.29Y-43.81
X63.41Y-34.81
X63.41Y-38.31
X67.56Y-62.06
X69.91Y-43.81
X70.06Y-62.06
X72.79Y-43.81
X74.3Y-62.31
X76.8Y-62.31
X80.41Y-43.81
X86.41Y-39.81
X86.41Y-45.56
X86.41Y-51.71
X86.41Y-56.21
X88.91Y-39.81
X88.91Y-45.56
X94.03Y-51.71
X94.03Y-56.21
X94.41Y-62.31
X94.41Y-65.57
X102.03Y-62.31
X102.03Y-65.57
X104.58Y-62.31
X110.975Y-38.31
X112.2Y-62.31
X114.87Y-61.29
X114.87Y-64.34
X117.37Y-61.29
X117.37Y-64.34
X118.595Y-38.31
T5
X103.53Y-41.94
X103.53Y-57.18
X106.07Y-41.94
X106.07Y-57.18
X108.61Y-41.94
X108.61Y-57.18
X111.15Y-41.94
X111.15Y-57.18
X113.69Y-41.94
X113.69Y-57.18
X116.23Y-41.94
X116.23Y-57.18
X118.77Y-41.94
X118.77Y-57.18
X121.31Y-41.94
X121.31Y-57.18
T6
X77.035Y-35.81
X79.575Y-35.81
T7
X59.91Y-58.81
X62.45Y-58.81
X64.99Y-58.81
X67.53Y-58.81
X70.07Y-58.81
M30
